<svg width="33" height="26" viewBox="0 0 40 40" fill="none" xmlns="http://www.w3.org/2000/svg">
<path d="M20 31.6667C26.4433 31.6667 31.6667 26.4433 31.6667 20C31.6667 13.5567 26.4433 8.33333 20 8.33333C13.5567 8.33333 8.33334 13.5567 8.33334 20C8.33334 26.4433 13.5567 31.6667 20 31.6667Z" stroke="#1C1C1C" stroke-width="2"/>
<path d="M20 26.6667C23.6819 26.6667 26.6667 23.6819 26.6667 20C26.6667 16.3181 23.6819 13.3333 20 13.3333C16.3181 13.3333 13.3333 16.3181 13.3333 20C13.3333 23.6819 16.3181 26.6667 20 26.6667Z" fill="#161616"/>
<path d="M5 20H8.33333M31.6667 20H35M20 35V31.6667M20 8.33333V5" stroke="#1C1C1C" stroke-width="2" stroke-linecap="round"/>
</svg>
