<svg width="33" height="26" viewBox="0 0 33 26" fill="none" xmlns="http://www.w3.org/2000/svg">
<path d="M11.1997 9.33333L15.3333 6.66667H20.4251L18.8328 2.66667H15.0417V0H20.875L22.4674 4H28.1667V8H24.0597L26.1841 13.3363C29.7137 13.4352 32.5417 16.0823 32.5417 19.3333C32.5417 22.6471 29.6036 25.3333 25.9792 25.3333C22.3548 25.3333 19.4167 22.6471 19.4167 19.3333C19.4167 16.8963 21.0058 14.7985 23.2884 13.8592L21.4866 9.33333H20.1047L17.7979 17.16L13.5328 18.5852C13.5662 18.8303 13.5833 19.08 13.5833 19.3333C13.5833 22.6471 10.6452 25.3333 7.02084 25.3333C3.39648 25.3333 0.458344 22.6471 0.458344 19.3333C0.458344 16.7209 2.28448 14.4984 4.83334 13.6748V12H1.91668V9.33333H11.1997ZM7.02084 22.6667C9.03438 22.6667 10.6667 21.1743 10.6667 19.3333C10.6667 17.4924 9.03438 16 7.02084 16C5.00731 16 3.37501 17.4924 3.37501 19.3333C3.37501 21.1743 5.00731 22.6667 7.02084 22.6667ZM25.9792 22.6667C27.9927 22.6667 29.625 21.1743 29.625 19.3333C29.625 17.4924 27.9927 16 25.9792 16C23.9657 16 22.3333 17.4924 22.3333 19.3333C22.3333 21.1743 23.9657 22.6667 25.9792 22.6667Z" fill="black"/>
</svg>
