<svg width="29" height="28" viewBox="0 0 29 28" fill="none" xmlns="http://www.w3.org/2000/svg">
<g clip-path="url(#clip0_29_248)">
<path d="M22.719 25.8423H6.5158C6.38167 25.8423 6.2677 25.9026 6.1745 25.9846C6.06304 26.0809 5.98624 26.2102 5.98624 26.3662V27.4761C5.98624 27.7614 6.22678 28 6.5158 28H22.719C23.0092 28 23.2467 27.7614 23.2467 27.4761V26.3662C23.2467 26.2102 23.1698 26.0809 23.059 25.9846C22.9696 25.9026 22.8525 25.8423 22.719 25.8423ZM5.69216 0H4.86476C4.64436 0 4.43028 0.172768 4.38242 0.384071L4.3459 0.554345L4.21871 1.13228L4.17461 1.32989C4.12677 1.5418 4.26843 1.71274 4.48947 1.71274H24.7466C24.9657 1.71274 25.1093 1.5418 25.0601 1.32989L25.0154 1.13228L24.8876 0.554345L24.8523 0.384071C24.8051 0.172768 24.5872 0 24.3706 0H5.69216Z" fill="#010101"/>
<path d="M27.357 5.63616C26.1801 4.79533 24.8282 4.73691 23.9492 4.82516C24.0002 4.57723 24.0411 4.36033 24.0826 4.15773C24.1267 3.93154 24.1626 3.74693 24.1979 3.58101C24.269 3.21746 24.3156 3 24.3156 3H5.73039C5.73039 3 5.77449 3.21746 5.845 3.58101C5.87899 3.74693 5.91677 3.93154 5.96214 4.15773C6.00242 4.36033 6.04273 4.57723 6.095 4.82518C5.44893 4.76242 4.53964 4.80467 3.63729 5.15703C3.56805 5.18189 3.50192 5.1993 3.43204 5.22789C3.18141 5.34221 2.92955 5.46339 2.6827 5.63616C1.29924 6.63171 0.89626 8.1698 1.0216 9.34935C1.19916 11.0601 2.14999 12.1794 3.38229 12.9661C3.46476 13.0183 3.5542 13.0699 3.63729 13.1228C4.85512 13.8473 6.41928 14.4116 7.23157 15.053C7.79829 15.4992 7.97773 16.4214 7.71894 17.0789C7.64843 17.2709 7.49669 17.4847 7.3046 17.5786C7.14657 17.6543 6.89027 17.663 6.8487 17.4536C6.82794 17.353 6.89595 17.2014 6.9646 17.1305C7.04269 17.0565 7.07921 16.936 7.07921 16.8334C7.07921 16.5637 6.80336 16.3456 6.54333 16.3698C6.08489 16.4233 5.88657 16.9409 5.9111 17.3374C5.93694 17.7699 6.26942 18.2603 6.67493 18.4187C7.56155 18.7667 8.42297 18.0154 8.70631 17.2461C8.71511 17.2081 8.72646 17.1659 8.73904 17.1212C8.77303 17.1858 8.81019 17.2485 8.84609 17.3107C8.84862 17.3194 8.85615 17.3262 8.85868 17.3331C8.94371 17.4847 9.03121 17.6339 9.12882 17.7768C9.13891 17.7898 9.14455 17.8079 9.15716 17.8234C9.25037 17.9682 9.35363 18.1068 9.45436 18.2491H9.45562C9.66847 18.5325 9.88886 18.809 10.1168 19.0675C10.1281 19.0744 10.1332 19.0831 10.1395 19.0967C10.2528 19.2167 10.3655 19.3416 10.4764 19.4578C10.4808 19.4578 10.4808 19.4578 10.4808 19.4597C10.6963 19.6866 10.9198 19.9061 11.1508 20.1178C11.1621 20.1196 11.164 20.1308 11.1734 20.1377C11.2779 20.2334 11.3812 20.3247 11.4857 20.4117C11.4857 20.4161 11.4895 20.4186 11.4908 20.4204C11.6973 20.5969 11.8837 20.7529 12.0499 20.8865C12.0613 20.8934 12.0676 20.8934 12.072 20.9045C12.1532 20.9648 12.2269 21.0226 12.2981 21.0761C12.3006 21.0804 12.3056 21.0804 12.3094 21.0848C12.4479 21.1923 12.56 21.2724 12.6381 21.3302C12.6469 21.3302 12.6507 21.3346 12.6551 21.3371C12.691 21.3638 12.7206 21.3837 12.7376 21.3974C12.7439 21.4035 12.7439 21.4035 12.7533 21.4035C12.7653 21.4147 12.7766 21.4216 12.7766 21.4216V23.6022H8.80702C8.51361 23.6022 8.27178 23.8403 8.27178 24.1261V24.975C8.27178 25.2627 8.51361 25.5014 8.80702 25.5014H21.2397C21.5312 25.5014 21.7686 25.2627 21.7686 24.975V24.1261C21.7686 23.8403 21.5312 23.6022 21.2397 23.6022H17.2663V21.4216C17.2663 21.4216 17.2789 21.4147 17.2902 21.4035C17.2978 21.4035 17.2978 21.4035 17.3047 21.3974C17.3255 21.3837 17.3501 21.3638 17.391 21.3371C17.391 21.3346 17.3941 21.3327 17.3998 21.3302C17.4791 21.2724 17.595 21.1873 17.7373 21.0829C17.7417 21.0804 17.7417 21.0804 17.7443 21.0804C17.8129 21.0251 17.8878 20.9623 17.9715 20.9021C17.9766 20.8934 17.986 20.8934 17.9891 20.8909C18.292 20.6464 18.5881 20.3938 18.877 20.1333C18.877 20.1265 18.8827 20.1265 18.8852 20.1196C19.2158 19.8189 19.564 19.4733 19.9072 19.0831C19.9091 19.0806 19.9129 19.0787 19.9186 19.0744C20.2605 18.686 20.5948 18.2646 20.8908 17.8104C20.9009 17.801 20.9034 17.7948 20.9078 17.788C21.0501 17.5717 21.1836 17.353 21.3045 17.1212C21.3129 17.1637 21.3249 17.2055 21.3404 17.2461C21.6206 18.0155 22.4845 18.7667 23.3686 18.4187C23.7741 18.2603 24.1066 17.7699 24.1337 17.3374C24.1563 16.941 23.9605 16.4233 23.5003 16.3698C23.2401 16.3456 22.9669 16.5637 22.9669 16.8334C22.9669 16.936 23.0028 17.0565 23.0752 17.1305C23.1488 17.2013 23.2156 17.353 23.1973 17.4536C23.1552 17.6631 22.8932 17.6543 22.7396 17.5786C22.55 17.4847 22.3945 17.2709 22.3234 17.0789C22.0646 16.4214 22.244 15.4992 22.8101 15.053C23.6797 14.3663 25.412 13.7703 26.6613 12.9661C27.8967 12.1794 28.8431 11.0601 29.0264 9.34935C29.1473 8.1698 28.7443 6.63174 27.3571 5.63616H27.357ZM7.04263 13.8573C6.82476 13.7355 6.59431 13.6218 6.38147 13.4944C5.85253 13.1812 5.32232 12.9065 4.82361 12.5504C4.38157 12.2304 3.97606 11.8761 3.63726 11.4492C3.60075 11.4051 3.55794 11.3665 3.5233 11.3199C3.15998 10.8116 2.9522 10.2566 2.90683 9.63453C2.89992 9.55563 2.89048 9.4761 2.89048 9.39595C2.89048 8.35374 3.20026 7.65524 3.63726 7.17796C3.86648 6.92818 4.12654 6.738 4.40172 6.59756C5.12589 6.22344 5.9243 6.16749 6.35942 6.17681C6.46585 6.69448 6.57602 7.25628 6.68875 7.83671C7.13078 10.087 7.62071 12.643 7.93616 14.4191C7.65343 14.2059 7.343 14.0288 7.04263 13.8573ZM27.1398 9.63453C27.0913 10.2566 26.8848 10.8116 26.519 11.3199C26.1713 11.8102 25.7091 12.1981 25.2167 12.5504C24.7205 12.9065 24.1865 13.1812 23.6614 13.4944C23.4467 13.6218 23.2219 13.7355 23.0027 13.8573C22.7005 14.0288 22.3876 14.2059 22.1086 14.4191C22.5028 12.185 23.1778 8.71045 23.6797 6.17681C24.6002 6.15757 27.1493 6.38126 27.1493 9.39592C27.1493 9.4761 27.1448 9.5556 27.1398 9.63453ZM14.8709 6.60809C14.9547 6.44281 15.092 6.44281 15.1744 6.60809L16.0636 8.34631C16.1479 8.50849 16.3671 8.66634 16.5509 8.69307L18.4998 8.99075C18.6831 9.01873 18.7246 9.14672 18.5937 9.27538L17.1951 10.6482C17.061 10.7774 16.9779 11.0297 17.0068 11.2112L17.3229 13.1333C17.3544 13.3154 17.2436 13.3943 17.0773 13.3092L15.3237 12.4186C15.1581 12.3335 14.8892 12.3335 14.723 12.4186L12.9693 13.3092C12.8043 13.3943 12.6934 13.3154 12.723 13.1333L13.0398 11.2112C13.0688 11.0297 12.9844 10.7774 12.8534 10.6481L11.453 9.27538C11.322 9.14675 11.3642 9.01873 11.5462 8.99075L13.4957 8.69307C13.6795 8.66634 13.8987 8.50852 13.9818 8.34631L14.8709 6.60809H14.8709Z" fill="#F2B12B"/>
</g>
<defs>
<clipPath id="clip0_29_248">
<rect width="28.0466" height="28" fill="white" transform="translate(0.595306)"/>
</clipPath>
</defs>
</svg>
