<svg width="28" height="28" viewBox="0 0 28 28" fill="none" xmlns="http://www.w3.org/2000/svg">
<path d="M26.3207 14.8025C25.9111 14.377 25.3713 14.1118 24.7938 14.0524C24.2162 13.9929 23.6366 14.1428 23.1539 14.4765L21.7993 15.4158C20.2153 16.5162 18.5022 17.4032 16.7015 18.0555L16.8699 17.8979C17.1511 17.6338 17.3747 17.3107 17.5256 16.9501C17.6765 16.5896 17.7514 16.1998 17.7452 15.8069C17.739 15.414 17.6519 15.027 17.4897 14.6717C17.3274 14.3164 17.0938 14.0011 16.8045 13.7466C16.3775 13.3704 15.8453 13.1456 15.2859 13.1049C14.7265 13.0643 14.1692 13.21 13.6956 13.5208C10.0991 15.7642 6.16287 17.3639 2.05239 18.2528C1.46851 18.3822 0.94557 18.7159 0.57172 19.1977C0.19787 19.6795 -0.00402762 20.28 6.08966e-05 20.8979V25.2903C-0.000867943 26.007 0.272956 26.6948 0.761451 27.2028C1.24995 27.7108 1.91322 27.9975 2.60573 28H9.55476C9.61489 28 9.67486 27.9935 9.73367 27.9806C15.2925 26.7608 20.4378 24.0332 24.6424 20.0774L26.23 18.583C26.4824 18.345 26.6856 18.0566 26.8274 17.7352C26.9692 17.4138 27.0467 17.066 27.0552 16.7128C27.0637 16.3596 27.003 16.0082 26.8767 15.6799C26.7505 15.3516 26.5614 15.0532 26.3207 14.8025ZM25.0644 17.2439L23.4768 18.7374C19.5225 22.4578 14.6881 25.0301 9.46355 26.1935H2.60529C2.3745 26.1926 2.1535 26.097 1.99071 25.9277C1.82793 25.7584 1.73665 25.5292 1.73688 25.2903V20.8979C1.7357 20.6923 1.80302 20.4926 1.92749 20.3324C2.05196 20.1721 2.22599 20.0612 2.42026 20.0182C6.72684 19.0844 10.8504 17.4056 14.6173 15.0523C14.7625 14.9572 14.9307 14.9066 15.1025 14.9064C15.2867 14.9081 15.4661 14.9674 15.6172 15.0764C15.7683 15.1854 15.8841 15.339 15.9494 15.5173C16.0147 15.6955 16.0265 15.89 15.9832 16.0753C15.94 16.2605 15.8437 16.428 15.7069 16.5557L12.9171 19.1669C11.9707 19.8978 10.9077 20.4511 9.77644 20.8017C9.66356 20.8288 9.55702 20.8789 9.46304 20.949C9.36906 21.0192 9.28952 21.108 9.22905 21.2103C9.16859 21.3126 9.12841 21.4263 9.11086 21.5449C9.09332 21.6634 9.09876 21.7844 9.12686 21.9007C9.15496 22.017 9.20517 22.1264 9.27455 22.2224C9.34393 22.3185 9.4311 22.3993 9.53097 22.4601C9.63083 22.5209 9.7414 22.5605 9.85623 22.5766C9.97105 22.5928 10.0878 22.5851 10.1997 22.554C11.5009 22.1633 12.7265 21.5413 13.8217 20.7159C17.019 20.0874 20.0603 18.7957 22.7624 16.9188L24.117 15.9794C24.2801 15.8691 24.4774 15.8265 24.6695 15.8599C24.8617 15.8933 25.0347 16.0003 25.154 16.1597C25.2734 16.3191 25.3304 16.5191 25.3137 16.72C25.297 16.9209 25.2083 17.108 25.0644 17.2439ZM2.98975 12.6452H23.9363C24.6305 12.6443 25.296 12.3586 25.7869 11.8506C26.2777 11.3426 26.5538 10.6539 26.5547 9.93548V2.70968C26.5538 1.99128 26.2777 1.30255 25.7869 0.79457C25.296 0.286588 24.6305 0.000836663 23.9363 0H2.98975C2.29557 0.000836663 1.63006 0.286588 1.13921 0.79457C0.648353 1.30255 0.372235 1.99128 0.371426 2.70968V9.93548C0.372235 10.6539 0.648353 11.3426 1.13921 11.8506C1.63006 12.3586 2.29557 12.6443 2.98975 12.6452ZM2.11697 2.70968C2.11721 2.4702 2.20923 2.2406 2.37286 2.07126C2.53649 1.90193 2.75835 1.80669 2.98975 1.80645H23.9363C24.1677 1.80669 24.3896 1.90193 24.5532 2.07126C24.7168 2.2406 24.8089 2.4702 24.8091 2.70968V9.93548C24.8089 10.175 24.7168 10.4046 24.5532 10.5739C24.3896 10.7432 24.1677 10.8385 23.9363 10.8387H2.98975C2.75835 10.8385 2.53649 10.7432 2.37286 10.5739C2.20923 10.4046 2.11721 10.175 2.11697 9.93548V2.70968ZM11.484 6.56419C11.2772 6.35549 11.1125 6.10637 10.9994 5.83127C10.8864 5.55618 10.8272 5.26059 10.8254 4.96165C10.8236 4.66272 10.8792 4.36639 10.9889 4.08985C11.0986 3.81331 11.2603 3.56207 11.4646 3.3507C11.6688 3.13933 11.9116 2.97204 12.1789 2.85854C12.4461 2.74503 12.7324 2.68757 13.0213 2.68949C13.3102 2.6914 13.5958 2.75266 13.8616 2.8697C14.1274 2.98674 14.3681 3.15723 14.5697 3.37129C14.6507 3.45521 14.715 3.55482 14.7588 3.66443C14.8026 3.77404 14.8251 3.89151 14.825 4.01012C14.825 4.12874 14.8023 4.24618 14.7584 4.35575C14.7145 4.46531 14.6502 4.56485 14.5691 4.64868C14.488 4.73251 14.3917 4.79899 14.2858 4.84432C14.1799 4.88966 14.0664 4.91296 13.9518 4.91289C13.8371 4.91283 13.7237 4.88941 13.6178 4.84396C13.5119 4.7985 13.4157 4.73192 13.3347 4.648C13.2839 4.59556 13.2214 4.5569 13.1528 4.53543C13.0841 4.51395 13.0113 4.51034 12.941 4.52489C12.8706 4.53945 12.8048 4.57174 12.7494 4.61889C12.694 4.66604 12.6507 4.72661 12.6233 4.79523C12.5959 4.86384 12.5852 4.93839 12.5923 5.01228C12.5994 5.08617 12.6239 5.15711 12.6638 5.21882C12.7037 5.28054 12.7577 5.33112 12.821 5.3661C12.8843 5.40108 12.9549 5.41937 13.0267 5.41935C13.3855 5.41935 13.7388 5.51093 14.0553 5.68599C14.3717 5.86105 14.6416 6.11418 14.8409 6.42296C15.0403 6.73173 15.163 7.08663 15.1981 7.4562C15.2333 7.82577 15.1798 8.19861 15.0425 8.54169C14.9051 8.88477 14.6881 9.18749 14.4107 9.42305C14.1333 9.65862 13.8041 9.81974 13.4521 9.89214C13.1002 9.96455 12.7364 9.94601 12.393 9.83817C12.0497 9.73032 11.7373 9.5365 11.4836 9.27387C11.4026 9.18995 11.3383 9.09034 11.2945 8.98073C11.2507 8.87112 11.2282 8.75365 11.2283 8.63504C11.2283 8.51642 11.251 8.39898 11.2949 8.28941C11.3388 8.17985 11.4032 8.08031 11.4842 7.99648C11.5653 7.91265 11.6616 7.84617 11.7675 7.80084C11.8734 7.7555 11.9869 7.7322 12.1015 7.73227C12.2162 7.73233 12.3296 7.75576 12.4355 7.80121C12.5414 7.84666 12.6376 7.91324 12.7186 7.99716C12.7694 8.0496 12.8319 8.08826 12.9005 8.10973C12.9692 8.13121 13.042 8.13482 13.1123 8.12027C13.1827 8.10571 13.2485 8.07342 13.3039 8.02627C13.3593 7.97912 13.4026 7.91855 13.43 7.84994C13.4574 7.78132 13.4681 7.70677 13.461 7.63288C13.4539 7.55899 13.4294 7.48805 13.3895 7.42634C13.3496 7.36462 13.2956 7.31404 13.2323 7.27906C13.169 7.24408 13.0984 7.22579 13.0267 7.22581C12.74 7.22658 12.4561 7.16851 12.1913 7.05494C11.9265 6.94137 11.6861 6.77457 11.484 6.56419ZM4.95349 6.32258C4.95349 6.09928 5.01747 5.88099 5.13735 5.69532C5.25723 5.50966 5.42761 5.36494 5.62696 5.27949C5.82631 5.19404 6.04567 5.17168 6.2573 5.21524C6.46892 5.25881 6.66331 5.36634 6.81589 5.52423C6.96846 5.68213 7.07237 5.88331 7.11446 6.10232C7.15656 6.32133 7.13495 6.54834 7.05238 6.75464C6.96981 6.96095 6.82998 7.13728 6.65057 7.26134C6.47116 7.3854 6.26023 7.45161 6.04446 7.45161C5.75522 7.45125 5.47793 7.33219 5.27341 7.12053C5.06889 6.90887 4.95384 6.62191 4.95349 6.32258ZM19.7907 6.32258C19.7907 6.09928 19.8546 5.88099 19.9745 5.69532C20.0944 5.50966 20.2648 5.36494 20.4641 5.27949C20.6635 5.19404 20.8828 5.17168 21.0945 5.21524C21.3061 5.25881 21.5005 5.36634 21.653 5.52423C21.8056 5.68213 21.9095 5.88331 21.9516 6.10232C21.9937 6.32133 21.9721 6.54834 21.8895 6.75464C21.807 6.96095 21.6671 7.13728 21.4877 7.26134C21.3083 7.3854 21.0974 7.45161 20.8816 7.45161C20.5924 7.45125 20.3151 7.33219 20.1106 7.12053C19.906 6.90887 19.791 6.62191 19.7907 6.32258Z" fill="url(#paint0_linear_29_252)"/>
<defs>
<linearGradient id="paint0_linear_29_252" x1="6.08966e-05" y1="14" x2="27.0561" y2="14" gradientUnits="userSpaceOnUse">
<stop stop-color="#EA5A6B"/>
<stop offset="1" stop-color="#5A4EF6"/>
</linearGradient>
</defs>
</svg>
