<!-- <svg xmlns="http://www.w3.org/2000/svg" width="25" height="25" viewBox="0 0 24 24" id="eye">
  <path fill="none" d="M0 0h24v24H0z"></path>
  <path d="M12 4.5C6.48 4.5 2.16 7.54 0 12c2.16 4.46 6.48 7.5 12 7.5s9.84-3.04 12-7.5c-2.16-4.46-6.48-7.5-12-7.5zm0 13.5c-3.86 0-7-3.14-7-7s3.14-7 7-7 7 3.14 7 7-3.14 7-7 7zm0-10c-1.66 0-3 1.34-3 3s1.34 3 3 3 3-1.34 3-3-1.34-3-3-3z"></path>
</svg> -->
<!-- <svg xmlns="http://www.w3.org/2000/svg" width="25" height="25" viewBox="0 0 25 20" id="eye">
  <path fill="none" d="M0 0h24v24H0z"></path>
  <path d="M12 4.5C6.48 4.5 2.16 7.54 0 12c2.16 4.46 6.48 7.5 12 7.5s9.84-3.04 12-7.5c-2.16-4.46-6.48-7.5-12-7.5zm0 13.5c-3.86 0-7-3.14-7-7s3.14-7 7-7 7 3.14 7 7-3.14 7-7 7zm0-10c-1.66 0-3 1.34-3 3s1.34 3 3 3 3-1.34 3-3-1.34-3-3-3z"></path>
</svg> -->

<svg xmlns="http://www.w3.org/2000/svg" width="25" height="28" viewBox="0 0 24 24" id="eye">
  <g>
    <g>
      <circle cx="12" cy="12" r="1.5"></circle>
      <path d="M21.87 11.5c-.64-1.11-4.16-6.68-10.14-6.5-5.53.14-8.73 5-9.6 6.5a1 1 0 0 0 0 1c.63 1.09 4 6.5 9.89 6.5h.25c5.53-.14 8.74-5 9.6-6.5a1 1 0 0 0 0-1zm-9.87 4a3.5 3.5 0 1 1 3.5-3.5 3.5 3.5 0 0 1-3.5 3.5z"></path>
    </g>
  </g>
</svg>
