<svg width="29" height="28" viewBox="0 0 29 28" fill="none" xmlns="http://www.w3.org/2000/svg">
<path d="M28.3835 14C28.3835 15.8958 28.0078 17.7066 27.2563 19.4323C26.5048 21.158 25.4946 22.6467 24.2257 23.8984C22.9569 25.1502 21.4478 26.1467 19.6984 26.888C17.9491 27.6293 16.1135 28 14.1917 28C12.0728 28 10.0586 27.5595 8.14917 26.6784C6.23969 25.7973 4.61355 24.5547 3.27075 22.9505C3.18452 22.829 3.14448 22.6923 3.15064 22.5404C3.1568 22.3885 3.20916 22.2639 3.30771 22.1667L5.83931 19.651C5.9625 19.5417 6.11649 19.487 6.30128 19.487C6.49839 19.5113 6.64006 19.5842 6.7263 19.7057C7.6256 20.8602 8.72817 21.7535 10.034 22.3854C11.3398 23.0174 12.7258 23.3333 14.1917 23.3333C15.4729 23.3333 16.6956 23.0872 17.8598 22.5951C19.024 22.1029 20.0311 21.4375 20.8811 20.599C21.7311 19.7604 22.4056 18.7669 22.9045 17.6185C23.4034 16.4701 23.6529 15.2639 23.6529 14C23.6529 12.7361 23.4034 11.5299 22.9045 10.3815C22.4056 9.23307 21.7311 8.23958 20.8811 7.40104C20.0311 6.5625 19.024 5.89714 17.8598 5.40495C16.6956 4.91276 15.4729 4.66667 14.1917 4.66667C12.9845 4.66667 11.8265 4.88238 10.7177 5.3138C9.60899 5.74523 8.62346 6.36198 7.76111 7.16406L10.2927 9.67969C10.6746 10.0443 10.7608 10.4635 10.5514 10.9375C10.342 11.4236 9.97857 11.6667 9.46116 11.6667H1.18265C0.862346 11.6667 0.585163 11.5512 0.351098 11.3203C0.117033 11.0894 0 10.816 0 10.5V2.33333C0 1.82292 0.246384 1.46441 0.739153 1.25781C1.2196 1.05122 1.64462 1.13628 2.01419 1.51302L4.41644 3.86458C5.7346 2.63715 7.24062 1.6862 8.93452 1.01172C10.6284 0.33724 12.3808 0 14.1917 0C16.1135 0 17.9491 0.37066 19.6984 1.11198C21.4478 1.8533 22.9569 2.84983 24.2257 4.10156C25.4946 5.3533 26.5048 6.84201 27.2563 8.56771C28.0078 10.2934 28.3835 12.1042 28.3835 14ZM16.557 8.75V16.9167C16.557 17.0868 16.5016 17.2266 16.3907 17.3359C16.2799 17.4453 16.1382 17.5 15.9657 17.5H10.0525C9.88002 17.5 9.73835 17.4453 9.62747 17.3359C9.5166 17.2266 9.46116 17.0868 9.46116 16.9167V15.75C9.46116 15.5799 9.5166 15.4401 9.62747 15.3307C9.73835 15.2214 9.88002 15.1667 10.0525 15.1667H14.1917V8.75C14.1917 8.57986 14.2472 8.4401 14.3581 8.33073C14.4689 8.22135 14.6106 8.16667 14.7831 8.16667H15.9657C16.1382 8.16667 16.2799 8.22135 16.3907 8.33073C16.5016 8.4401 16.557 8.57986 16.557 8.75Z" fill="black"/>
</svg>

