<svg width="400" height="329" viewBox="0 0 400 329" fill="none" xmlns="http://www.w3.org/2000/svg">
<path d="M19 194.596C19 101.483 94.4829 26 187.596 26H204C300.098 26 378 103.902 378 200C378 264.065 326.065 316 262 316H140.404C73.3545 316 19 261.645 19 194.596Z" fill="url(#paint0_linear_604_207)"/>
<path d="M125.583 282.266H173.414H186.936C187.251 282.266 187.251 281.769 186.936 281.769C170.998 281.769 155.043 281.769 139.105 281.769C134.603 281.769 130.084 281.769 125.583 281.769C125.268 281.769 125.268 282.266 125.583 282.266Z" fill="#090808"/>
<path d="M190.147 282.266H238.989H252.842C253.156 282.266 253.156 281.769 252.842 281.769C236.556 281.769 220.286 281.769 204 281.769C199.383 281.769 194.765 281.769 190.147 281.769C189.833 281.769 189.833 282.266 190.147 282.266Z" fill="black"/>
<path d="M201.948 286.817H240.263C240.577 286.817 240.577 286.321 240.263 286.321C227.486 286.321 214.725 286.321 201.948 286.321C201.617 286.321 201.617 286.817 201.948 286.817Z" fill="black"/>
<path d="M162.557 287.893H184.801C185.116 287.893 185.116 287.397 184.801 287.397C177.387 287.397 169.972 287.397 162.557 287.397C162.243 287.397 162.243 287.893 162.557 287.893Z" fill="black"/>
<path d="M261.415 282.001H279.091C279.406 282.001 279.406 281.504 279.091 281.504C273.199 281.504 267.307 281.504 261.415 281.504C261.1 281.504 261.1 282.001 261.415 282.001Z" fill="black"/>
<path d="M132.551 250.704C134.669 254.394 135.116 258.846 133.792 262.885C133.742 263.017 133.842 263.15 133.957 263.183C134.454 263.348 134.967 263.563 135.315 263.944C135.761 264.441 135.861 265.434 135.099 265.732C134.95 265.798 134.818 266.013 134.984 266.145C136.274 267.155 136.423 268.843 136.523 270.366C136.622 271.872 136.771 273.362 137.135 274.818C137.847 277.632 139.237 280.247 141.571 282.018C141.819 282.216 142.067 281.786 141.819 281.587C139.237 279.634 137.913 276.572 137.35 273.461C136.903 271.044 137.499 267.503 135.315 265.798C135.281 265.93 135.248 266.079 135.199 266.212C135.894 265.93 136.241 265.219 136.092 264.474C135.894 263.497 134.917 262.984 134.04 262.703C134.09 262.802 134.156 262.901 134.206 263.001C135.579 258.83 135.099 254.229 132.915 250.439C132.815 250.174 132.385 250.422 132.551 250.704Z" fill="black"/>
<path d="M132.7 250.306C136.076 252.375 138.774 255.288 140.991 258.532C142.067 260.088 143.044 261.726 143.954 263.381C144.715 264.772 146.453 267.254 145.013 268.727C144.881 268.86 144.947 269.091 145.129 269.141C146.255 269.439 146.718 270.713 147.132 271.69C147.562 272.716 147.91 273.775 148.174 274.851C148.737 277.085 148.969 279.386 148.87 281.687C148.853 282.001 149.35 282.001 149.366 281.687C149.465 279.038 149.168 276.39 148.406 273.841C148.059 272.683 147.645 271.541 147.115 270.465C146.718 269.654 146.172 268.909 145.262 268.661C145.295 268.793 145.328 268.942 145.377 269.075C146.602 267.834 145.924 266.013 145.228 264.672C144.219 262.703 143.11 260.783 141.885 258.946C139.518 255.371 136.639 252.127 132.948 249.876C132.683 249.71 132.435 250.141 132.7 250.306Z" fill="black"/>
<path d="M132.931 250.455C140.478 259.211 145.278 270.184 146.569 281.67C146.602 281.984 147.099 281.984 147.066 281.67C146.039 272.617 142.878 263.828 137.88 256.215C136.473 254.08 134.934 252.044 133.262 250.108C133.064 249.859 132.716 250.224 132.931 250.455Z" fill="black"/>
<path d="M134.355 262.206C138.509 264.01 142.001 267.039 144.368 270.895C144.533 271.16 144.964 270.912 144.798 270.647C142.398 266.725 138.84 263.613 134.603 261.776C134.321 261.66 134.073 262.074 134.355 262.206Z" fill="black"/>
<path d="M140.892 258.151C141.025 259.906 141.223 261.627 141.538 263.365C141.587 263.679 142.067 263.547 142.018 263.232C141.72 261.544 141.521 259.856 141.389 258.151C141.356 257.837 140.859 257.837 140.892 258.151Z" fill="black"/>
<path d="M136.589 271.309C140.412 273.03 143.755 275.695 146.271 279.055C146.453 279.303 146.884 279.055 146.701 278.807C144.136 275.381 140.76 272.65 136.837 270.879C136.556 270.763 136.308 271.177 136.589 271.309Z" fill="black"/>
<path d="M143.193 260.965C143.143 256.893 143.789 252.855 145.079 248.999C144.964 249.048 144.831 249.098 144.715 249.148C145.013 249.297 145.295 249.446 145.593 249.578C145.758 249.661 145.957 249.561 145.973 249.363C146.039 246.847 146.768 244.447 148.125 242.329C147.976 242.312 147.827 242.296 147.678 242.263C148.803 245.473 149.929 248.668 151.054 251.879C151.6 253.434 152.147 254.974 152.693 256.529C153.107 257.704 154.811 261.064 152.643 261.428C152.445 261.462 152.411 261.726 152.527 261.842C153.669 263.067 154.1 264.705 154.315 266.327C154.53 267.999 154.563 269.687 154.497 271.359C154.348 274.868 153.62 278.31 152.362 281.587C152.246 281.885 152.726 282.018 152.842 281.72C154.182 278.227 154.927 274.504 155.01 270.763C155.076 267.734 155.093 263.861 152.875 261.511C152.842 261.644 152.809 261.793 152.759 261.925C154.033 261.71 154.348 260.353 154.116 259.244C153.702 257.34 152.825 255.454 152.18 253.616C150.839 249.793 149.482 245.97 148.141 242.13C148.075 241.932 147.81 241.882 147.695 242.064C146.288 244.249 145.526 246.748 145.477 249.346C145.609 249.28 145.725 249.197 145.857 249.131C145.559 248.982 145.278 248.833 144.98 248.701C144.831 248.618 144.666 248.684 144.616 248.85C143.309 252.756 142.663 256.827 142.713 260.948C142.696 261.279 143.193 261.279 143.193 260.965Z" fill="black"/>
<path d="M147.198 242.776C149.796 255.669 148.026 268.926 150.161 281.869C150.21 282.183 150.69 282.051 150.641 281.736C148.522 268.793 150.293 255.52 147.678 242.643C147.612 242.329 147.132 242.461 147.198 242.776Z" fill="black"/>
<path d="M143.458 253.319C144.434 258.052 146.602 262.388 148.754 266.692C148.903 266.973 149.333 266.725 149.184 266.443C147.049 262.19 144.914 257.887 143.937 253.203C143.871 252.872 143.391 253.004 143.458 253.319Z" fill="black"/>
<path d="M151.766 253.385C150.558 255.669 149.581 258.069 148.82 260.535C148.721 260.833 149.201 260.965 149.3 260.667C150.045 258.234 151.021 255.884 152.196 253.633C152.345 253.352 151.915 253.103 151.766 253.385Z" fill="black"/>
<path d="M225.02 281.587C225.5 277.433 225.98 273.279 226.46 269.125C226.377 269.207 226.294 269.29 226.211 269.373C226.708 269.34 227.089 269.439 227.502 269.753C227.668 269.886 227.916 269.803 227.933 269.571C227.982 268.661 228.015 267.767 228.065 266.857C227.966 266.94 227.85 267.023 227.751 267.089C228.959 267.304 229.604 266.178 230.051 265.252C230.73 263.828 231.59 262.587 232.583 261.379C234.387 259.194 236.44 257.059 237.118 254.212C236.953 254.212 236.804 254.212 236.638 254.212C237.565 257.142 238.525 260.121 238.674 263.216C238.79 265.599 238.525 269.058 235.91 270.084C235.761 270.151 235.678 270.3 235.761 270.449C237.201 273.13 233.444 274.95 231.806 276.274C229.968 277.764 228.462 279.618 227.337 281.687C227.188 281.968 227.618 282.216 227.767 281.935C229.207 279.303 231.21 277.234 233.659 275.53C235.347 274.355 237.383 272.435 236.191 270.2C236.142 270.316 236.092 270.449 236.043 270.564C238.459 269.604 239.121 266.807 239.187 264.457C239.27 260.899 238.178 257.44 237.118 254.08C237.052 253.848 236.705 253.832 236.638 254.08C236.026 256.678 234.205 258.664 232.534 260.651C231.756 261.577 230.995 262.521 230.366 263.547C229.853 264.408 229.174 266.84 227.866 266.609C227.701 266.576 227.569 266.675 227.552 266.841C227.502 267.751 227.469 268.645 227.42 269.555C227.569 269.489 227.701 269.439 227.85 269.373C227.353 268.976 226.84 268.81 226.195 268.843C226.046 268.86 225.963 268.942 225.947 269.091C225.467 273.246 224.987 277.4 224.507 281.554C224.49 281.902 224.987 281.902 225.02 281.587Z" fill="black"/>
<path d="M236.622 254.874C236.34 259.575 235.463 264.358 232.948 268.413C231.723 270.399 230.101 272.137 228.793 274.073C227.535 275.927 226.592 277.963 225.93 280.098C225.831 280.396 226.311 280.528 226.41 280.23C227.138 277.896 228.214 275.712 229.637 273.726C231.028 271.789 232.633 270.018 233.808 267.933C236.026 263.961 236.837 259.376 237.102 254.874C237.135 254.56 236.638 254.56 236.622 254.874Z" fill="black"/>
<path d="M231.144 262.802C231.177 265.119 231.524 267.403 232.203 269.621C232.302 269.919 232.782 269.803 232.683 269.489C232.021 267.32 231.673 265.086 231.64 262.802C231.623 262.488 231.127 262.471 231.144 262.802Z" fill="black"/>
<path d="M235.364 264.424C236.671 263.812 237.83 262.968 238.823 261.925C239.038 261.693 238.691 261.346 238.475 261.577C237.499 262.587 236.39 263.398 235.116 263.994C234.818 264.126 235.083 264.556 235.364 264.424Z" fill="black"/>
<path d="M233.56 281.72C233.411 279.899 233.212 278.078 232.981 276.274C232.948 275.96 232.434 275.96 232.484 276.274C232.716 278.078 232.914 279.899 233.063 281.72C233.08 282.034 233.576 282.034 233.56 281.72Z" fill="black"/>
<path d="M239.286 261.329C241.091 257.92 242.63 254.361 243.888 250.704C243.722 250.704 243.573 250.704 243.408 250.704C244.351 254.56 245.278 258.416 246.221 262.272C246.271 262.173 246.337 262.074 246.387 261.975C245.725 262.173 245.063 262.372 244.401 262.57C244.285 262.604 244.219 262.703 244.219 262.802C244.185 263.199 244.401 263.431 244.699 263.663C245.394 264.242 245.576 264.705 245.526 265.616C245.476 266.443 245.394 267.254 245.328 268.065C245.278 268.694 245.311 270.316 244.334 270.267C244.186 270.267 244.037 270.432 244.103 270.581C244.848 272.65 244.02 274.785 243.043 276.622C242.084 278.426 240.908 280.098 239.551 281.637C239.336 281.869 239.684 282.233 239.899 281.984C241.405 280.28 242.712 278.393 243.739 276.357C244.649 274.537 245.311 272.451 244.599 270.449C244.517 270.548 244.434 270.664 244.368 270.763C245.923 270.846 245.824 268.446 245.907 267.453C245.973 266.543 246.172 265.55 246.023 264.639C245.973 264.341 245.874 264.06 245.692 263.828C245.443 263.514 244.732 263.232 244.765 262.802C244.699 262.885 244.649 262.968 244.583 263.034C245.245 262.835 245.907 262.637 246.569 262.438C246.701 262.405 246.767 262.272 246.734 262.14C245.791 258.284 244.864 254.427 243.921 250.571C243.854 250.323 243.523 250.356 243.441 250.571C242.199 254.196 240.693 257.688 238.889 261.081C238.707 261.362 239.138 261.61 239.286 261.329Z" fill="black"/>
<path d="M243.242 251.779C244.798 261.693 237.847 270.217 236.059 279.585C235.993 279.899 236.473 280.031 236.539 279.717C238.343 270.233 245.294 261.693 243.722 251.647C243.672 251.332 243.192 251.465 243.242 251.779Z" fill="black"/>
<path d="M239.866 258.913C240.246 260.882 240.611 262.852 240.991 264.838C241.057 265.152 241.537 265.02 241.471 264.705C241.091 262.736 240.726 260.766 240.346 258.78C240.28 258.466 239.816 258.598 239.866 258.913Z" fill="black"/>
<path d="M242.878 261.445C243.639 260.336 244.5 259.31 245.443 258.35C245.675 258.118 245.311 257.771 245.096 258.002C244.119 258.979 243.242 260.055 242.448 261.197C242.266 261.462 242.696 261.71 242.878 261.445Z" fill="black"/>
<path d="M109.297 235.361C121.478 232.68 134.255 232.994 146.288 236.304C152.428 237.993 158.221 240.624 164.146 242.941C169.988 245.225 175.963 247.129 182.054 248.651C188.856 250.356 195.774 251.581 202.759 252.325C203.073 252.359 203.073 251.862 202.759 251.829C190.114 250.472 177.635 247.509 165.735 243.007C159.727 240.74 153.901 238.009 147.744 236.188C141.902 234.467 135.844 233.458 129.753 233.16C122.852 232.812 115.917 233.408 109.181 234.881C108.866 234.947 108.999 235.427 109.297 235.361Z" fill="black"/>
<path d="M175.5 242.726C188.542 245.937 202.097 244.596 215.122 241.981C228.545 239.283 241.67 235.162 255.208 233.044C262.888 231.836 270.7 231.323 278.462 232.1C278.777 232.134 278.777 231.637 278.462 231.604C264.891 230.247 251.385 232.878 238.244 236.023C225.003 239.201 211.829 242.941 198.191 243.918C190.627 244.447 183.014 244.083 175.632 242.263C175.318 242.163 175.185 242.643 175.5 242.726Z" fill="black"/>
<path d="M136.092 221.376C143.937 219.803 151.716 222.352 159.247 224.272C166.877 226.225 174.639 227.119 182.501 226.341C190.313 225.563 197.86 223.345 205.506 221.657C213.401 219.903 221.428 218.694 229.488 218.065C238.426 217.354 247.413 217.354 256.367 218.032C256.681 218.049 256.681 217.552 256.367 217.536C240.478 216.344 224.44 217.321 208.816 220.465C200.955 222.054 193.242 224.404 185.281 225.53C177.155 226.672 168.995 226.175 161.034 224.239C152.842 222.236 144.467 219.207 135.943 220.912C135.646 220.945 135.778 221.425 136.092 221.376Z" fill="black"/>
<path d="M218.598 211.18C227.436 212.091 236.175 210.138 244.732 208.168C249.101 207.158 253.487 206.149 257.923 205.487C262.507 204.808 267.158 204.56 271.792 204.775C277.022 205.023 282.203 205.834 287.267 207.208C287.582 207.291 287.714 206.811 287.4 206.728C278.545 204.328 269.26 203.617 260.157 204.692C251.269 205.735 242.696 208.433 233.891 209.922C228.843 210.783 223.729 211.197 218.615 210.667C218.284 210.651 218.284 211.147 218.598 211.18Z" fill="black"/>
<path d="M111.895 211.793C118.565 212.951 125.136 210.618 131.773 210.253C138.774 209.856 145.742 210.998 152.61 212.14C152.925 212.19 153.057 211.71 152.743 211.66C146.023 210.551 139.237 209.442 132.402 209.724C125.616 210.005 118.83 212.504 112.011 211.313C111.713 211.263 111.581 211.743 111.895 211.793Z" fill="black"/>
<path d="M142.812 305.536H166.562C166.877 305.536 166.877 305.04 166.562 305.04C158.651 305.04 150.74 305.04 142.812 305.04C142.498 305.04 142.498 305.536 142.812 305.536Z" fill="#161616"/>
<path d="M161.233 308.681H183.279C183.593 308.681 183.593 308.184 183.279 308.184C175.93 308.184 168.582 308.184 161.233 308.184C160.919 308.184 160.919 308.681 161.233 308.681Z" fill="#161616"/>
<path d="M123.679 304.808C119.558 304.808 115.437 304.808 111.316 304.808C111.001 304.808 111.001 305.305 111.316 305.305H123.679C123.994 305.305 123.994 304.808 123.679 304.808Z" fill="#161616"/>
<path d="M178.198 296.334H216.959C217.274 296.334 217.274 295.837 216.959 295.837C204.033 295.837 191.107 295.837 178.198 295.837C177.883 295.837 177.867 296.334 178.198 296.334Z" fill="#161616"/>
<path d="M240.23 292.693H254.761C255.076 292.693 255.076 292.196 254.761 292.196C249.912 292.196 245.063 292.196 240.23 292.196C239.899 292.196 239.899 292.693 240.23 292.693Z" fill="#161616"/>
<path d="M265.42 294.398H287.714C288.028 294.398 288.028 293.901 287.714 293.901C280.283 293.901 272.851 293.901 265.42 293.901C265.106 293.901 265.106 294.398 265.42 294.398Z" fill="#161616"/>
<path d="M119.856 290.012C119.79 290.955 119.74 291.882 119.674 292.825C119.161 292.974 118.631 293.14 118.118 293.289C118.201 293.951 118.3 294.613 118.383 295.275C117.754 295.275 117.125 295.275 116.48 295.275C116.596 296.235 116.728 297.195 116.844 298.155C117.92 298.171 119.012 298.188 120.088 298.221C120.204 298.999 120.336 299.777 120.452 300.554C119.691 300.554 118.896 300.538 118.069 300.488C117.092 300.439 116.182 300.356 115.321 300.24C115.288 301.266 115.238 302.276 115.205 303.302C117.92 303.269 120.634 303.219 123.348 303.186C123.431 303.898 123.514 304.609 123.597 305.321C128.645 305.884 134.421 306.082 140.743 305.503C142.481 305.338 144.153 305.139 145.758 304.891C145.758 304.08 145.758 303.252 145.758 302.441C145.179 302.673 144.484 302.888 143.673 303.054C142.316 303.318 141.14 303.318 140.247 303.236C140.346 302.59 140.445 301.928 140.545 301.283C140.677 300.852 140.809 300.323 140.842 299.694C140.876 299.28 140.859 298.916 140.842 298.585C139.27 298.601 137.698 298.618 136.126 298.651C136.092 297.575 136.043 296.483 136.01 295.407C137.466 295.291 138.906 295.159 140.363 295.043C140.396 294.464 140.445 293.901 140.478 293.322C139.75 293.222 139.005 293.123 138.277 293.024C138.244 291.915 138.194 290.823 138.161 289.714C132.071 289.813 125.963 289.912 119.856 290.012Z" fill="#474747"/>
<path d="M252.643 269.108C252.626 269.787 252.61 270.465 252.593 271.127C254.099 271.226 255.606 271.326 257.112 271.409V273.312C256.549 273.444 255.986 273.577 255.44 273.709C255.407 274.437 255.357 275.182 255.324 275.91C253.57 275.927 251.815 275.943 250.061 275.96C250.011 276.688 249.945 277.433 249.896 278.161C251.964 278.194 254.033 278.244 256.086 278.277V280.942C253.984 280.991 251.882 281.058 249.78 281.107C249.747 281.951 249.697 282.812 249.664 283.656C250.342 283.706 251.021 283.772 251.683 283.822C251.7 284.566 251.716 285.328 251.733 286.073C250.822 286.155 249.912 286.221 249.018 286.304C249.051 287.281 249.101 288.274 249.134 289.25C250.227 289.234 251.335 289.217 252.428 289.201V292.329C254.894 292.461 257.459 292.544 260.124 292.56C264.295 292.577 268.25 292.428 271.941 292.163C272.123 291.369 272.289 290.492 272.405 289.565C272.554 288.39 272.62 287.297 272.636 286.321C273.1 286.238 273.563 286.172 274.027 286.089C274.043 285.377 274.06 284.666 274.076 283.954C272.918 283.937 271.759 283.921 270.601 283.904C270.65 282.961 270.716 282.018 270.766 281.074C272.52 281.025 274.275 280.958 276.029 280.909C276.046 280.081 276.062 279.254 276.079 278.426C274.606 278.426 273.149 278.426 271.676 278.426C271.726 277.747 271.792 277.069 271.842 276.407C273.447 276.308 275.053 276.208 276.642 276.125C276.658 275.298 276.675 274.47 276.691 273.643H278.826C278.793 272.898 278.744 272.137 278.71 271.392C276.956 271.425 275.202 271.475 273.447 271.508C273.497 270.598 273.563 269.687 273.613 268.793C271.478 268.297 268.995 267.9 266.198 267.751C260.736 267.42 256.052 268.214 252.643 269.108Z" fill="#666666"/>
<path d="M123.299 303.203C123.315 303.898 123.348 304.609 123.365 305.304C123.365 305.453 123.481 305.536 123.613 305.553C130.912 306.049 138.227 306 145.51 305.387C145.609 305.371 145.725 305.321 145.742 305.205C145.957 304.295 146.006 303.418 145.907 302.491C145.874 302.176 145.377 302.176 145.411 302.491C145.51 303.368 145.46 304.212 145.262 305.073C145.344 305.007 145.427 304.957 145.493 304.891C138.211 305.487 130.879 305.553 123.597 305.056L123.845 305.304C123.828 304.609 123.795 303.898 123.779 303.203C123.779 302.888 123.282 302.888 123.299 303.203Z" fill="#161616"/>
<path d="M115.04 300.174V303.103C115.04 303.418 115.536 303.418 115.536 303.103C115.536 302.127 115.536 301.15 115.536 300.174C115.536 299.843 115.04 299.843 115.04 300.174Z" fill="#161616"/>
<path d="M115.586 303.55H140.164C140.478 303.55 140.478 303.054 140.164 303.054C131.971 303.054 123.779 303.054 115.586 303.054C115.272 303.054 115.272 303.55 115.586 303.55Z" fill="#161616"/>
<path d="M125.003 303.6C125.07 304.146 125.086 304.676 125.053 305.222C125.037 305.536 125.533 305.536 125.55 305.222C125.583 304.676 125.583 304.146 125.5 303.6C125.467 303.285 124.97 303.285 125.003 303.6Z" fill="#161616"/>
<path d="M126.576 303.666C126.675 304.08 126.692 304.494 126.675 304.907C126.658 305.222 127.155 305.222 127.172 304.907C127.205 304.444 127.172 303.98 127.056 303.534C126.99 303.236 126.51 303.368 126.576 303.666Z" fill="#161616"/>
<path d="M140.495 303.269C140.66 302.623 140.743 301.961 140.727 301.283C140.727 300.968 140.23 300.968 140.23 301.283C140.247 301.912 140.18 302.524 140.015 303.136C139.932 303.434 140.412 303.567 140.495 303.269Z" fill="#161616"/>
<path d="M115.619 300.488C123.795 301.63 132.054 301.845 140.28 301.134C140.594 301.101 140.594 300.604 140.28 300.637C132.104 301.349 123.878 301.15 115.752 300.008C115.437 299.959 115.305 300.439 115.619 300.488Z" fill="#161616"/>
<path d="M140.677 303.385C142.316 303.534 143.937 303.335 145.51 302.838C145.808 302.739 145.675 302.259 145.377 302.358C143.838 302.855 142.282 303.037 140.677 302.888C140.363 302.872 140.363 303.368 140.677 303.385Z" fill="#161616"/>
<path d="M137.599 303.6V305.321C137.599 305.635 138.095 305.635 138.095 305.321C138.095 304.742 138.095 304.179 138.095 303.6C138.095 303.285 137.599 303.285 137.599 303.6Z" fill="#161616"/>
<path d="M141.339 303.269C141.438 303.881 141.521 304.494 141.62 305.089C141.67 305.404 142.15 305.271 142.1 304.957C142.001 304.345 141.918 303.732 141.819 303.136C141.769 302.822 141.306 302.954 141.339 303.269Z" fill="#161616"/>
<path d="M143.623 303.169C143.673 303.5 143.64 303.831 143.557 304.146C143.474 304.46 143.954 304.593 144.037 304.278C144.153 303.865 144.169 303.451 144.103 303.037C144.053 302.723 143.573 302.855 143.623 303.169Z" fill="#161616"/>
<path d="M117.44 300.571C117.473 301.448 117.506 302.325 117.539 303.203C117.556 303.517 118.052 303.517 118.036 303.203C118.002 302.325 117.969 301.448 117.936 300.571C117.92 300.256 117.423 300.256 117.44 300.571Z" fill="#161616"/>
<path d="M120.733 300.869C120.8 301.547 120.866 302.226 120.932 302.888C120.965 303.203 121.462 303.203 121.428 302.888C121.362 302.209 121.296 301.531 121.23 300.869C121.197 300.554 120.7 300.554 120.733 300.869Z" fill="#161616"/>
<path d="M122.637 301.283C122.587 301.68 122.62 302.077 122.736 302.458C122.819 302.772 123.299 302.64 123.216 302.325C123.117 301.978 123.1 301.63 123.133 301.283C123.166 300.968 122.67 300.968 122.637 301.283Z" fill="#161616"/>
<path d="M119.989 298.353C120.005 299.131 120.071 299.892 120.204 300.637C120.253 300.952 120.733 300.819 120.684 300.505C120.551 299.793 120.485 299.065 120.485 298.353C120.485 298.022 119.989 298.022 119.989 298.353Z" fill="#161616"/>
<path d="M120.551 298.386C127.304 298.519 134.057 298.668 140.809 298.8C140.727 298.734 140.644 298.684 140.578 298.618C140.694 299.313 140.694 299.992 140.611 300.703C140.578 301.018 141.074 301.018 141.107 300.703C141.19 299.959 141.174 299.23 141.058 298.486C141.041 298.37 140.925 298.304 140.826 298.304C134.073 298.171 127.321 298.022 120.568 297.89C120.237 297.89 120.237 298.386 120.551 298.386Z" fill="#161616"/>
<path d="M116.149 295.473C116.314 296.351 116.43 297.244 116.529 298.138C116.563 298.452 117.059 298.452 117.026 298.138C116.927 297.195 116.794 296.268 116.629 295.341C116.579 295.026 116.099 295.159 116.149 295.473Z" fill="#161616"/>
<path d="M116.695 295.473C119.906 295.672 123.133 295.54 126.344 295.506C129.588 295.49 132.832 295.457 136.076 295.44C135.993 295.357 135.91 295.275 135.828 295.192C135.861 296.036 135.894 296.88 135.91 297.724C135.927 298.039 136.423 298.039 136.407 297.724C136.374 296.88 136.341 296.036 136.324 295.192C136.324 295.06 136.208 294.944 136.076 294.944C132.832 294.96 129.588 294.993 126.344 295.01C123.133 295.026 119.906 295.159 116.695 294.977C116.38 294.96 116.38 295.457 116.695 295.473Z" fill="#161616"/>
<path d="M116.91 298.469C118.085 298.436 119.277 298.403 120.452 298.37C120.766 298.353 120.766 297.857 120.452 297.873C119.277 297.906 118.085 297.939 116.91 297.972C116.596 297.972 116.579 298.469 116.91 298.469Z" fill="#161616"/>
<path d="M117.754 293.256C117.853 293.934 117.953 294.596 118.069 295.275C118.118 295.589 118.598 295.457 118.549 295.142C118.449 294.464 118.35 293.802 118.234 293.123C118.184 292.809 117.705 292.941 117.754 293.256Z" fill="#161616"/>
<path d="M118.201 293.388C125.599 292.262 133.13 292.312 140.511 293.57C140.826 293.62 140.958 293.14 140.644 293.09C133.179 291.832 125.55 291.766 118.069 292.908C117.754 292.958 117.887 293.438 118.201 293.388Z" fill="#161616"/>
<path d="M135.943 295.622C136.97 295.573 137.979 295.523 139.005 295.49C139.502 295.473 140.098 295.573 140.429 295.142C140.627 294.894 140.197 294.646 139.998 294.894C139.8 295.159 138.327 295.026 138.045 295.043C137.35 295.076 136.655 295.109 135.96 295.142C135.612 295.142 135.612 295.639 135.943 295.622Z" fill="#161616"/>
<path d="M140.197 293.007C140.098 293.504 140.032 294 140.015 294.497C139.998 294.811 140.495 294.811 140.511 294.497C140.528 294.033 140.578 293.587 140.677 293.14C140.743 292.825 140.263 292.693 140.197 293.007Z" fill="#161616"/>
<path d="M119.955 292.776C119.955 291.832 119.955 290.905 119.955 289.962C119.955 289.647 119.459 289.647 119.459 289.962V292.776C119.459 293.107 119.955 293.107 119.955 292.776Z" fill="#161616"/>
<path d="M120.104 290.194C126.145 289.896 132.203 289.78 138.244 289.83C138.558 289.83 138.558 289.333 138.244 289.333C132.203 289.283 126.145 289.399 120.104 289.697C119.79 289.714 119.79 290.21 120.104 290.194Z" fill="#161616"/>
<path d="M137.996 289.78C138.062 290.723 138.128 291.65 138.194 292.593C138.211 292.908 138.707 292.908 138.691 292.593C138.625 291.65 138.558 290.723 138.492 289.78C138.476 289.449 137.979 289.449 137.996 289.78Z" fill="#161616"/>
<path d="M120.518 293.173C120.584 293.785 120.634 294.398 120.7 295.026C120.733 295.341 121.23 295.341 121.197 295.026C121.131 294.414 121.081 293.802 121.015 293.173C120.998 292.858 120.485 292.858 120.518 293.173Z" fill="#161616"/>
<path d="M122.57 292.875C122.554 293.388 122.604 293.884 122.703 294.398C122.753 294.712 123.232 294.58 123.183 294.265C123.1 293.802 123.067 293.338 123.067 292.875C123.067 292.56 122.57 292.56 122.57 292.875Z" fill="#161616"/>
<path d="M126.03 295.788C126.096 296.466 126.145 297.145 126.212 297.824C126.245 298.138 126.741 298.138 126.708 297.824C126.642 297.145 126.592 296.466 126.526 295.788C126.51 295.473 126.013 295.473 126.03 295.788Z" fill="#161616"/>
<path d="M128.132 295.589C128.198 296.268 128.247 296.946 128.314 297.625C128.347 297.939 128.843 297.939 128.81 297.625C128.744 296.946 128.694 296.268 128.628 295.589C128.595 295.275 128.098 295.275 128.132 295.589Z" fill="#161616"/>
<path d="M131.591 295.506C131.657 296.284 131.723 297.062 131.789 297.84C131.822 298.155 132.319 298.155 132.286 297.84C132.22 297.062 132.153 296.284 132.087 295.506C132.071 295.175 131.574 295.175 131.591 295.506Z" fill="#161616"/>
<path d="M132.551 298.601C132.633 299.379 132.7 300.157 132.782 300.935C132.815 301.25 133.312 301.25 133.279 300.935C133.196 300.157 133.13 299.379 133.047 298.601C133.014 298.287 132.517 298.287 132.551 298.601Z" fill="#161616"/>
<path d="M134.702 298.668C134.818 299.379 134.835 300.108 134.801 300.836C134.785 301.15 135.281 301.15 135.298 300.836C135.348 300.058 135.315 299.297 135.182 298.535C135.132 298.221 134.653 298.353 134.702 298.668Z" fill="#161616"/>
<path d="M137.317 298.502C137.383 299.247 137.383 299.992 137.284 300.736C137.251 301.051 137.748 301.051 137.781 300.736C137.863 299.992 137.88 299.247 137.814 298.502C137.797 298.188 137.301 298.188 137.317 298.502Z" fill="#161616"/>
<path d="M129.671 301.415C129.621 301.895 129.588 302.392 129.538 302.872C129.505 303.186 130.002 303.186 130.035 302.872C130.084 302.392 130.118 301.895 130.167 301.415C130.2 301.101 129.704 301.101 129.671 301.415Z" fill="#161616"/>
<path d="M130.929 301.68C131.094 302.077 131.144 302.458 131.094 302.872C131.061 303.186 131.558 303.186 131.591 302.872C131.64 302.408 131.574 301.961 131.409 301.547C131.293 301.25 130.813 301.382 130.929 301.68Z" fill="#161616"/>
<path d="M129.919 292.395C129.985 293.173 130.002 293.951 130.018 294.729C130.018 295.043 130.515 295.043 130.515 294.729C130.515 293.951 130.482 293.173 130.416 292.395C130.399 292.08 129.902 292.08 129.919 292.395Z" fill="#161616"/>
<path d="M131.889 292.66C131.988 293.189 132.021 293.702 131.988 294.249C131.971 294.563 132.468 294.563 132.484 294.249C132.534 293.669 132.484 293.107 132.369 292.527C132.302 292.213 131.822 292.345 131.889 292.66Z" fill="#161616"/>
<path d="M124.507 289.747C124.705 290.525 124.755 291.303 124.705 292.097C124.672 292.411 125.169 292.411 125.202 292.097C125.268 291.253 125.202 290.425 124.987 289.614C124.904 289.3 124.424 289.432 124.507 289.747Z" fill="#161616"/>
<path d="M126.543 289.747C126.658 290.392 126.758 291.038 126.874 291.683C126.923 291.998 127.403 291.865 127.354 291.551C127.238 290.905 127.138 290.26 127.023 289.614C126.973 289.3 126.493 289.432 126.543 289.747Z" fill="#161616"/>
<path d="M133.726 289.846C133.825 290.492 133.858 291.154 133.825 291.816C133.808 292.13 134.305 292.13 134.321 291.816C134.371 291.104 134.321 290.409 134.206 289.714C134.156 289.399 133.676 289.532 133.726 289.846Z" fill="#161616"/>
<path d="M252.146 289.681C252.163 290.64 252.18 291.6 252.196 292.544C252.196 292.676 252.312 292.792 252.444 292.792C256.582 292.825 260.703 292.792 264.841 292.676C266.844 292.627 268.863 292.544 270.865 292.461C271.345 292.445 272.14 292.56 272.421 292.031C272.537 291.816 272.52 291.485 272.52 291.269C272.554 290.773 272.57 290.26 272.587 289.747C272.603 289.432 272.107 289.432 272.09 289.747C272.074 290.144 272.057 290.558 272.04 290.955C272.007 291.534 271.958 291.816 271.345 291.931C270.468 292.097 269.475 292.014 268.581 292.047C266.794 292.114 264.99 292.163 263.202 292.213C259.611 292.296 256.019 292.312 252.444 292.279L252.693 292.527C252.676 291.567 252.659 290.607 252.643 289.664C252.626 289.366 252.13 289.366 252.146 289.681Z" fill="#161616"/>
<path d="M248.704 286.519C248.737 287.413 248.77 288.307 248.803 289.217C248.82 289.532 249.316 289.532 249.3 289.217C249.267 288.323 249.233 287.43 249.2 286.519C249.2 286.205 248.704 286.205 248.704 286.519Z" fill="#161616"/>
<path d="M249.167 289.565H272.554C272.868 289.565 272.868 289.068 272.554 289.068C264.758 289.068 256.963 289.068 249.167 289.068C248.853 289.068 248.853 289.565 249.167 289.565Z" fill="#161616"/>
<path d="M249.349 286.503H272.818C273.133 286.503 273.133 286.006 272.818 286.006C264.99 286.006 257.161 286.006 249.349 286.006C249.035 286.006 249.035 286.503 249.349 286.503Z" fill="#161616"/>
<path d="M272.388 286.337V289.3C272.388 289.614 272.885 289.614 272.885 289.3C272.885 288.307 272.885 287.314 272.885 286.337C272.885 286.023 272.388 286.023 272.388 286.337Z" fill="#161616"/>
<path d="M251.915 286.155C251.915 285.41 251.915 284.666 251.915 283.921C251.915 283.606 251.418 283.606 251.418 283.921V286.155C251.418 286.47 251.915 286.47 251.915 286.155Z" fill="#161616"/>
<path d="M251.849 284.169H274.391C274.705 284.169 274.705 283.673 274.391 283.673C266.877 283.673 259.363 283.673 251.849 283.673C251.534 283.673 251.534 284.169 251.849 284.169Z" fill="#161616"/>
<path d="M273.778 283.921V286.056C273.778 286.37 274.275 286.37 274.275 286.056C274.275 285.344 274.275 284.633 274.275 283.921C274.275 283.606 273.778 283.606 273.778 283.921Z" fill="#161616"/>
<path d="M272.554 286.404H273.944C274.258 286.404 274.258 285.907 273.944 285.907C273.48 285.907 273.017 285.907 272.554 285.907C272.223 285.907 272.223 286.404 272.554 286.404Z" fill="#161616"/>
<path d="M249.382 281.322V283.358C249.382 283.673 249.879 283.673 249.879 283.358C249.879 282.68 249.879 282.001 249.879 281.322C249.879 281.008 249.382 281.008 249.382 281.322Z" fill="#161616"/>
<path d="M249.73 281.389H270.799C271.114 281.389 271.114 280.892 270.799 280.892C263.782 280.892 256.764 280.892 249.73 280.892C249.399 280.892 249.399 281.389 249.73 281.389Z" fill="#161616"/>
<path d="M270.435 281.24V283.474C270.435 283.788 270.932 283.788 270.932 283.474C270.932 282.729 270.932 281.984 270.932 281.24C270.932 280.925 270.435 280.909 270.435 281.24Z" fill="#161616"/>
<path d="M249.73 283.904H270.418C270.733 283.904 270.733 283.408 270.418 283.408C263.517 283.408 256.632 283.408 249.73 283.408C249.399 283.408 249.399 283.904 249.73 283.904Z" fill="#161616"/>
<path d="M256.284 280.859C256.284 280.147 256.284 279.436 256.284 278.724C256.284 278.409 255.788 278.409 255.788 278.724V280.859C255.788 281.19 256.284 281.19 256.284 280.859Z" fill="#161616"/>
<path d="M256.119 278.79H276.062C276.377 278.79 276.377 278.294 276.062 278.294C269.409 278.294 262.755 278.294 256.119 278.294C255.804 278.294 255.804 278.79 256.119 278.79Z" fill="#161616"/>
<path d="M270.601 281.207H275.516C275.831 281.207 275.831 280.71 275.516 280.71C273.878 280.71 272.239 280.71 270.601 280.71C270.286 280.71 270.286 281.207 270.601 281.207Z" fill="#161616"/>
<path d="M275.831 278.641V280.776C275.831 281.091 276.327 281.091 276.327 280.776C276.327 280.065 276.327 279.353 276.327 278.641C276.327 278.327 275.831 278.327 275.831 278.641Z" fill="#161616"/>
<path d="M250.193 278.509H271.726C272.04 278.509 272.04 278.012 271.726 278.012C264.543 278.012 257.376 278.012 250.193 278.012C249.862 278.012 249.862 278.509 250.193 278.509Z" fill="#161616"/>
<path d="M250.243 278.178C250.243 277.532 250.243 276.887 250.243 276.225C250.243 275.91 249.747 275.91 249.747 276.225V278.178C249.747 278.492 250.243 278.492 250.243 278.178Z" fill="#161616"/>
<path d="M250.094 276.39H271.809C272.123 276.39 272.123 275.894 271.809 275.894C264.576 275.894 257.327 275.894 250.094 275.894C249.78 275.894 249.78 276.39 250.094 276.39Z" fill="#161616"/>
<path d="M271.643 276.142V277.913C271.643 278.227 272.14 278.227 272.14 277.913C272.14 277.317 272.14 276.738 272.14 276.142C272.14 275.811 271.643 275.811 271.643 276.142Z" fill="#161616"/>
<path d="M255.639 275.943C255.639 275.232 255.639 274.52 255.639 273.808C255.639 273.494 255.142 273.494 255.142 273.808V275.943C255.142 276.274 255.639 276.274 255.639 275.943Z" fill="#161616"/>
<path d="M255.572 273.875H276.642C276.956 273.875 276.956 273.378 276.642 273.378C269.624 273.378 262.607 273.378 255.572 273.378C255.241 273.378 255.241 273.875 255.572 273.875Z" fill="#161616"/>
<path d="M276.377 273.726V274.752C276.377 275.066 276.873 275.066 276.873 274.752C276.873 274.404 276.873 274.073 276.873 273.726C276.873 273.395 276.377 273.395 276.377 273.726Z" fill="#161616"/>
<path d="M271.709 276.39H276.625C276.939 276.39 276.939 275.894 276.625 275.894C274.986 275.894 273.348 275.894 271.709 275.894C271.395 275.894 271.395 276.39 271.709 276.39Z" fill="#161616"/>
<path d="M276.377 274.007V275.861C276.377 276.175 276.873 276.175 276.873 275.861C276.873 275.248 276.873 274.619 276.873 274.007C276.873 273.676 276.377 273.676 276.377 274.007Z" fill="#161616"/>
<path d="M257.294 273.262C257.294 272.666 257.294 272.087 257.294 271.491C257.294 271.177 256.797 271.177 256.797 271.491V273.262C256.797 273.577 257.294 273.577 257.294 273.262Z" fill="#161616"/>
<path d="M256.963 271.657H278.578C278.892 271.657 278.892 271.16 278.578 271.16C271.378 271.16 264.162 271.16 256.963 271.16C256.648 271.16 256.632 271.657 256.963 271.657Z" fill="#161616"/>
<path d="M278.578 271.657C278.892 271.657 278.892 271.16 278.578 271.16C278.264 271.16 278.264 271.657 278.578 271.657Z" fill="#161616"/>
<path d="M278.512 271.409V273.179C278.512 273.494 279.008 273.494 279.008 273.179C279.008 272.584 279.008 272.004 279.008 271.409C279.008 271.077 278.512 271.077 278.512 271.409Z" fill="#161616"/>
<path d="M276.542 273.792H278.777C279.091 273.792 279.091 273.295 278.777 273.295C278.032 273.295 277.287 273.295 276.542 273.295C276.211 273.295 276.211 273.792 276.542 273.792Z" fill="#161616"/>
<path d="M252.345 269.273V271.226C252.345 271.541 252.842 271.541 252.842 271.226C252.842 270.581 252.842 269.935 252.842 269.273C252.842 268.942 252.345 268.942 252.345 269.273Z" fill="#161616"/>
<path d="M252.593 271.458H257.89C258.204 271.458 258.204 270.962 257.89 270.962C256.119 270.962 254.364 270.962 252.593 270.962C252.279 270.962 252.279 271.458 252.593 271.458Z" fill="#161616"/>
<path d="M252.643 269.224C259.512 267.767 266.612 267.651 273.53 268.893C273.844 268.942 273.977 268.462 273.662 268.413C266.661 267.155 259.478 267.271 252.511 268.744C252.196 268.81 252.328 269.29 252.643 269.224Z" fill="#161616"/>
<path d="M273.414 268.81V270.763C273.414 271.077 273.911 271.077 273.911 270.763C273.911 270.118 273.911 269.472 273.911 268.81C273.911 268.479 273.414 268.479 273.414 268.81Z" fill="#161616"/>
<path d="M254 269.356C255.175 269.72 256.466 269.571 257.674 269.555C259.032 269.538 260.389 269.505 261.746 269.489C264.51 269.439 267.274 269.389 270.038 269.356C270.352 269.356 270.352 268.86 270.038 268.86C267.373 268.909 264.725 268.942 262.06 268.992C260.753 269.009 259.462 269.042 258.154 269.058C256.847 269.075 255.39 269.29 254.116 268.893C253.818 268.793 253.686 269.273 254 269.356Z" fill="#161616"/>
<path d="M256.334 269.538V271.21C256.334 271.524 256.83 271.524 256.83 271.21C256.83 270.647 256.83 270.101 256.83 269.538C256.83 269.224 256.334 269.224 256.334 269.538Z" fill="#161616"/>
<path d="M258.022 269.638C258.072 270.035 258.121 270.449 258.171 270.846C258.204 271.16 258.701 271.16 258.667 270.846C258.618 270.449 258.568 270.035 258.518 269.638C258.485 269.323 257.989 269.323 258.022 269.638Z" fill="#161616"/>
<path d="M264.394 269.555C264.444 270.051 264.493 270.548 264.56 271.044C264.593 271.359 265.089 271.359 265.056 271.044C265.006 270.548 264.957 270.051 264.891 269.555C264.857 269.24 264.361 269.224 264.394 269.555Z" fill="#161616"/>
<path d="M266.364 269.737V270.846C266.364 271.16 266.86 271.16 266.86 270.846C266.86 270.482 266.86 270.101 266.86 269.737C266.86 269.406 266.364 269.406 266.364 269.737Z" fill="#161616"/>
<path d="M265.073 271.673C265.023 272.22 265.056 272.766 265.139 273.328C265.188 273.643 265.668 273.51 265.619 273.196C265.536 272.699 265.536 272.186 265.569 271.673C265.586 271.359 265.089 271.359 265.073 271.673Z" fill="#161616"/>
<path d="M266.91 271.673C266.959 272.12 266.943 272.567 266.86 272.997C266.81 273.312 267.274 273.444 267.34 273.13C267.423 272.65 267.456 272.153 267.406 271.673C267.373 271.359 266.877 271.359 266.91 271.673Z" fill="#161616"/>
<path d="M256.714 273.908V275.943C256.714 276.258 257.211 276.258 257.211 275.943C257.211 275.265 257.211 274.586 257.211 273.908C257.211 273.593 256.714 273.593 256.714 273.908Z" fill="#161616"/>
<path d="M258.469 274.007C258.469 274.52 258.518 275.033 258.601 275.563C258.651 275.877 259.131 275.745 259.081 275.43C259.015 274.967 258.982 274.487 258.982 274.007C258.965 273.676 258.469 273.676 258.469 274.007Z" fill="#161616"/>
<path d="M260.769 271.69C260.802 272.269 260.852 272.865 260.885 273.444C260.902 273.759 261.398 273.759 261.382 273.444C261.349 272.865 261.299 272.269 261.266 271.69C261.249 271.359 260.753 271.359 260.769 271.69Z" fill="#161616"/>
<path d="M270.203 271.491C270.27 272.054 270.319 272.6 270.385 273.163C270.418 273.477 270.915 273.477 270.882 273.163C270.816 272.6 270.766 272.054 270.7 271.491C270.667 271.177 270.17 271.177 270.203 271.491Z" fill="#161616"/>
<path d="M274.49 271.591C274.507 272.021 274.523 272.451 274.54 272.898C274.556 273.213 275.053 273.213 275.036 272.898C275.02 272.468 275.003 272.037 274.986 271.591C274.97 271.26 274.473 271.26 274.49 271.591Z" fill="#161616"/>
<path d="M266.91 273.808V275.761C266.91 276.076 267.406 276.076 267.406 275.761C267.406 275.116 267.406 274.47 267.406 273.808C267.406 273.494 266.91 273.494 266.91 273.808Z" fill="#161616"/>
<path d="M262.193 273.544V275.116C262.193 275.43 262.689 275.43 262.689 275.116C262.689 274.586 262.689 274.057 262.689 273.544C262.689 273.213 262.193 273.213 262.193 273.544Z" fill="#161616"/>
<path d="M252.544 276.324C252.511 276.97 252.544 277.598 252.659 278.244C252.709 278.558 253.189 278.426 253.139 278.112C253.04 277.516 253.007 276.92 253.04 276.324C253.057 275.993 252.56 275.993 252.544 276.324Z" fill="#161616"/>
<path d="M255.97 276.407V278.078C255.97 278.393 256.466 278.393 256.466 278.078C256.466 277.516 256.466 276.97 256.466 276.407C256.466 276.092 255.97 276.092 255.97 276.407Z" fill="#161616"/>
<path d="M260.074 276.655C260.157 277.102 260.174 277.532 260.14 277.979C260.107 278.294 260.604 278.294 260.637 277.979C260.687 277.483 260.654 277.003 260.554 276.523C260.488 276.208 260.008 276.341 260.074 276.655Z" fill="#161616"/>
<path d="M264.51 276.407C264.46 276.87 264.493 277.317 264.576 277.781C264.642 278.095 265.122 277.963 265.056 277.648C264.973 277.234 264.957 276.821 265.006 276.407C265.039 276.092 264.543 276.092 264.51 276.407Z" fill="#161616"/>
<path d="M268.78 276.324V277.532C268.78 277.847 269.276 277.847 269.276 277.532C269.276 277.135 269.276 276.721 269.276 276.324C269.276 275.993 268.78 275.993 268.78 276.324Z" fill="#161616"/>
<path d="M257.906 278.823C257.939 279.502 257.939 280.18 257.873 280.876C257.84 281.19 258.336 281.19 258.37 280.876C258.436 280.197 258.452 279.518 258.403 278.823C258.386 278.509 257.89 278.509 257.906 278.823Z" fill="#161616"/>
<path d="M258.998 278.823C259.048 279.535 259.065 280.247 259.032 280.958C259.015 281.273 259.512 281.273 259.528 280.958C259.561 280.247 259.545 279.535 259.495 278.823C259.462 278.509 258.965 278.509 258.998 278.823Z" fill="#161616"/>
<path d="M262.292 278.542C262.259 279.369 262.209 280.214 262.176 281.041C262.16 281.356 262.656 281.356 262.673 281.041C262.706 280.214 262.755 279.369 262.789 278.542C262.805 278.227 262.309 278.227 262.292 278.542Z" fill="#161616"/>
<path d="M263.136 278.724C263.219 279.436 263.252 280.147 263.202 280.859C263.186 281.173 263.682 281.173 263.699 280.859C263.749 280.147 263.715 279.436 263.633 278.724C263.6 278.409 263.103 278.409 263.136 278.724Z" fill="#161616"/>
<path d="M266.926 278.641C266.877 279.419 266.91 280.164 267.026 280.925C267.075 281.24 267.555 281.107 267.506 280.793C267.406 280.081 267.39 279.353 267.423 278.625C267.439 278.327 266.943 278.327 266.926 278.641Z" fill="#161616"/>
<path d="M271.163 278.641C271.229 279.287 271.296 279.932 271.362 280.594C271.395 280.909 271.891 280.909 271.858 280.594C271.792 279.949 271.726 279.303 271.66 278.641C271.627 278.327 271.13 278.327 271.163 278.641Z" fill="#161616"/>
<path d="M272.752 278.923C272.785 279.369 272.785 279.816 272.719 280.247C272.669 280.561 273.149 280.693 273.199 280.379C273.282 279.899 273.298 279.403 273.249 278.923C273.216 278.608 272.719 278.592 272.752 278.923Z" fill="#161616"/>
<path d="M250.491 281.521V283.474C250.491 283.788 250.988 283.788 250.988 283.474C250.988 282.829 250.988 282.183 250.988 281.521C250.988 281.19 250.491 281.19 250.491 281.521Z" fill="#161616"/>
<path d="M251.6 281.422C251.666 282.1 251.716 282.779 251.782 283.457C251.815 283.772 252.312 283.772 252.279 283.457C252.213 282.779 252.163 282.1 252.097 281.422C252.08 281.107 251.584 281.107 251.6 281.422Z" fill="#161616"/>
<path d="M254.149 281.24C254.199 281.835 254.248 282.415 254.298 283.011C254.331 283.325 254.828 283.325 254.795 283.011C254.745 282.415 254.695 281.835 254.646 281.24C254.612 280.925 254.116 280.909 254.149 281.24Z" fill="#161616"/>
<path d="M256.549 281.339C256.632 282.018 256.731 282.696 256.814 283.375C256.863 283.689 257.36 283.689 257.31 283.375C257.228 282.696 257.128 282.018 257.045 281.339C257.012 281.025 256.516 281.025 256.549 281.339Z" fill="#161616"/>
<path d="M264.51 281.422V283.838C264.51 284.153 265.006 284.153 265.006 283.838C265.006 283.027 265.006 282.233 265.006 281.422C265.006 281.107 264.51 281.107 264.51 281.422Z" fill="#161616"/>
<path d="M268.399 281.24V283.275C268.399 283.59 268.896 283.59 268.896 283.275C268.896 282.597 268.896 281.918 268.896 281.24C268.896 280.925 268.399 280.909 268.399 281.24Z" fill="#161616"/>
<path d="M253.47 284.186C253.57 284.782 253.57 285.394 253.454 285.99C253.404 286.304 253.868 286.437 253.934 286.122C254.066 285.427 254.066 284.748 253.95 284.053C253.884 283.739 253.421 283.871 253.47 284.186Z" fill="#161616"/>
<path d="M254.679 284.384C254.712 284.947 254.761 285.493 254.795 286.056C254.811 286.37 255.308 286.37 255.291 286.056C255.258 285.493 255.208 284.947 255.175 284.384C255.142 284.07 254.646 284.07 254.679 284.384Z" fill="#161616"/>
<path d="M259.412 284.202C259.379 284.881 259.412 285.543 259.528 286.221C259.578 286.536 260.058 286.404 260.008 286.089C259.909 285.46 259.876 284.848 259.909 284.202C259.925 283.888 259.429 283.888 259.412 284.202Z" fill="#161616"/>
<path d="M260.769 284.302C260.802 284.864 260.836 285.41 260.885 285.973C260.902 286.288 261.398 286.288 261.382 285.973C261.349 285.41 261.316 284.864 261.266 284.302C261.249 283.987 260.753 283.987 260.769 284.302Z" fill="#161616"/>
<path d="M261.845 284.384C261.878 284.782 261.911 285.195 261.961 285.593C261.994 285.907 262.491 285.907 262.458 285.593C262.424 285.195 262.391 284.782 262.342 284.384C262.325 284.07 261.829 284.07 261.845 284.384Z" fill="#161616"/>
<path d="M266.281 284.02C266.33 284.699 266.38 285.377 266.43 286.073C266.446 286.387 266.943 286.387 266.926 286.073C266.877 285.394 266.827 284.715 266.777 284.02C266.744 283.706 266.248 283.706 266.281 284.02Z" fill="#161616"/>
<path d="M269.392 284.119C269.425 284.682 269.459 285.228 269.508 285.791C269.525 286.106 270.021 286.106 270.005 285.791C269.972 285.228 269.939 284.682 269.889 284.119C269.872 283.805 269.376 283.788 269.392 284.119Z" fill="#161616"/>
<path d="M271.908 284.136C271.825 284.715 271.792 285.295 271.842 285.874C271.875 286.188 272.371 286.188 272.338 285.874C272.289 285.328 272.305 284.798 272.388 284.268C272.438 283.954 271.958 283.822 271.908 284.136Z" fill="#161616"/>
<path d="M250.309 286.503C250.442 287.43 250.524 288.373 250.558 289.316C250.574 289.631 251.071 289.631 251.054 289.316C251.021 288.323 250.938 287.347 250.789 286.37C250.756 286.056 250.276 286.188 250.309 286.503Z" fill="#161616"/>
<path d="M251.815 286.519C251.733 287.363 251.782 288.174 251.964 289.002C252.031 289.316 252.511 289.184 252.444 288.87C252.279 288.092 252.229 287.314 252.312 286.519C252.345 286.205 251.849 286.205 251.815 286.519Z" fill="#161616"/>
<path d="M255.672 286.437C255.754 287.231 255.788 288.042 255.788 288.853C255.788 289.167 256.284 289.167 256.284 288.853C256.284 288.042 256.251 287.248 256.168 286.437C256.135 286.122 255.639 286.122 255.672 286.437Z" fill="#161616"/>
<path d="M262.54 286.255C262.64 287.181 262.673 288.108 262.656 289.035C262.656 289.35 263.153 289.35 263.153 289.035C263.169 288.108 263.136 287.181 263.037 286.255C263.004 285.94 262.507 285.924 262.54 286.255Z" fill="#161616"/>
<path d="M263.864 286.718C263.815 287.463 263.881 288.191 264.046 288.919C264.113 289.234 264.593 289.101 264.526 288.787C264.377 288.108 264.311 287.413 264.361 286.718C264.377 286.387 263.881 286.387 263.864 286.718Z" fill="#161616"/>
<path d="M265.354 286.519C265.304 287.363 265.337 288.191 265.437 289.019C265.47 289.333 265.966 289.333 265.933 289.019C265.817 288.191 265.801 287.347 265.85 286.519C265.867 286.205 265.37 286.205 265.354 286.519Z" fill="#161616"/>
<path d="M269.955 286.619C269.988 287.33 270.038 288.042 270.071 288.754C270.087 289.068 270.584 289.068 270.567 288.754C270.534 288.042 270.485 287.33 270.452 286.619C270.435 286.304 269.938 286.304 269.955 286.619Z" fill="#161616"/>
<path d="M254.017 289.681V292.18C254.017 292.494 254.513 292.494 254.513 292.18C254.513 291.352 254.513 290.508 254.513 289.681C254.513 289.366 254.017 289.366 254.017 289.681Z" fill="#161616"/>
<path d="M257.757 289.581C257.84 290.442 257.856 291.319 257.807 292.18C257.79 292.494 258.287 292.494 258.303 292.18C258.353 291.319 258.336 290.442 258.254 289.581C258.221 289.267 257.724 289.267 257.757 289.581Z" fill="#161616"/>
<path d="M260.058 289.681C260.008 290.458 260.041 291.236 260.124 291.998C260.157 292.312 260.654 292.312 260.62 291.998C260.538 291.22 260.505 290.458 260.554 289.681C260.571 289.366 260.074 289.366 260.058 289.681Z" fill="#161616"/>
<path d="M266.893 289.681C266.926 290.492 266.976 291.286 267.009 292.097C267.026 292.411 267.522 292.411 267.506 292.097C267.472 291.286 267.423 290.492 267.39 289.681C267.373 289.366 266.877 289.366 266.893 289.681Z" fill="#161616"/>
<path d="M268.532 290.028C268.648 290.69 268.631 291.369 268.515 292.031C268.449 292.345 268.929 292.478 268.995 292.163C269.144 291.402 269.144 290.657 269.012 289.896C268.945 289.581 268.465 289.714 268.532 290.028Z" fill="#161616"/>
<path d="M136.655 142.61C136.341 144.547 137.201 146.367 138.343 147.874C139.502 149.396 141.074 150.638 143.011 150.919C143.325 150.969 143.458 150.489 143.143 150.439C141.471 150.207 140.081 149.214 139.022 147.94C137.847 146.516 136.821 144.663 137.135 142.759C137.185 142.428 136.705 142.296 136.655 142.61Z" fill="#161616"/>
<path d="M137.085 142.61C137.565 142.246 138.112 141.998 138.707 141.882C139.022 141.816 138.89 141.336 138.575 141.402C137.896 141.535 137.284 141.833 136.738 142.246C136.49 142.461 136.837 142.809 137.085 142.61Z" fill="#161616"/>
<path d="M138.79 141.915C140.263 142.313 141.604 144.034 142.448 145.225C143.325 146.467 143.987 147.84 144.434 149.28C144.533 149.578 145.013 149.462 144.914 149.148C144.401 147.493 143.623 145.921 142.564 144.547C141.67 143.372 140.396 141.833 138.923 141.435C138.608 141.353 138.476 141.833 138.79 141.915Z" fill="#161616"/>
<path d="M143.11 150.952C143.739 150.638 144.302 150.191 144.748 149.628C144.947 149.38 144.6 149.032 144.401 149.28C143.987 149.81 143.474 150.224 142.878 150.522C142.564 150.671 142.829 151.084 143.11 150.952Z" fill="#161616"/>
<path d="M137.863 141.948C137.814 143.852 138.873 145.755 139.998 147.228C141.058 148.618 142.547 149.678 144.368 149.645C144.682 149.645 144.682 149.148 144.368 149.148C142.531 149.181 141.107 147.989 140.114 146.55C139.204 145.209 138.327 143.62 138.36 141.948C138.36 141.634 137.863 141.634 137.863 141.948Z" fill="#161616"/>
<path d="M137.334 144.878C137.582 144.58 137.88 144.348 138.227 144.166C138.509 144.034 138.261 143.603 137.979 143.736C137.599 143.918 137.251 144.183 136.986 144.514C136.788 144.762 137.135 145.126 137.334 144.878Z" fill="#161616"/>
<path d="M137.069 143.752C137.383 143.521 137.698 143.355 138.079 143.256C138.393 143.173 138.261 142.693 137.946 142.776C137.549 142.892 137.168 143.074 136.821 143.322C136.572 143.504 136.804 143.934 137.069 143.752Z" fill="#161616"/>
<path d="M138.823 147.94C139.171 147.658 139.535 147.377 139.883 147.096C140.131 146.897 139.783 146.55 139.535 146.748C139.187 147.029 138.823 147.311 138.476 147.592C138.211 147.791 138.575 148.138 138.823 147.94Z" fill="#161616"/>
<path d="M139.816 149.032C140.098 148.817 140.379 148.602 140.66 148.387C140.76 148.304 140.826 148.171 140.743 148.039C140.677 147.94 140.511 147.874 140.396 147.956C140.114 148.171 139.833 148.387 139.552 148.602C139.452 148.685 139.386 148.817 139.469 148.949C139.535 149.049 139.7 149.115 139.816 149.032Z" fill="#161616"/>
<path d="M141.571 150.273C141.852 149.992 142.15 149.727 142.431 149.446C142.663 149.231 142.316 148.867 142.084 149.098C141.802 149.38 141.505 149.645 141.223 149.926C140.991 150.141 141.339 150.505 141.571 150.273Z" fill="#161616"/>
<path d="M138.873 142.975C139.187 143.256 139.485 143.554 139.8 143.835C139.783 143.736 139.767 143.637 139.767 143.537C139.436 144.067 139.254 144.745 139.7 145.275C139.849 145.457 140.081 145.606 140.329 145.656C140.445 145.672 140.545 145.656 140.66 145.656C140.743 145.639 140.809 145.606 140.892 145.59C141.802 145.441 141.968 145.788 141.372 146.616C141.074 146.732 141.207 147.212 141.505 147.096C142.117 146.864 142.547 146.185 142.183 145.556C142.018 145.259 141.67 145.043 141.339 145.027C141.223 145.01 141.107 145.043 140.991 145.043C140.594 145.259 140.247 145.093 139.949 144.58C139.965 144.299 140.048 144.05 140.214 143.835C140.263 143.752 140.247 143.603 140.18 143.537C139.866 143.256 139.568 142.958 139.254 142.677C138.989 142.412 138.641 142.759 138.873 142.975Z" fill="#161616"/>
<path d="M141.769 146.963C142.051 147.294 142.316 147.609 142.597 147.94C142.795 148.188 143.16 147.824 142.944 147.592C142.663 147.261 142.398 146.947 142.117 146.616C141.918 146.367 141.571 146.732 141.769 146.963Z" fill="#161616"/>
<path d="M152.825 139.251C151.369 138.109 150.475 134.865 151.7 133.325C153.14 131.555 156.003 130.793 157.608 132.68C158.949 134.252 159.032 136.718 158.022 138.489C157.41 139.565 156.516 140.078 155.275 140.095C154.199 140.111 153.173 139.697 152.428 138.903C152.213 138.671 151.865 139.019 152.08 139.251C153.289 140.542 155.457 141.022 157.062 140.194C158.734 139.317 159.363 136.934 159.164 135.196C158.966 133.441 157.89 131.555 156.069 131.091C154.315 130.644 151.716 131.902 150.938 133.541C150.458 134.55 150.641 135.758 150.889 136.818C151.137 137.877 151.567 138.887 152.445 139.565C152.709 139.797 153.074 139.449 152.825 139.251Z" fill="#161616"/>
<path d="M154.216 133.028C154.216 133.011 154.199 132.978 154.199 132.961C154.166 133.061 154.116 133.143 154.083 133.243C153.934 133.193 153.918 133.21 154.017 133.342C154.116 133.508 154.182 133.673 154.249 133.855C154.298 133.756 154.364 133.656 154.414 133.557C153.769 133.756 152.958 134.203 153.189 135.014C153.256 135.262 153.421 135.477 153.669 135.56C153.868 135.643 153.984 135.56 154.182 135.543C154.48 135.394 154.795 135.444 155.093 135.709C155.341 136.437 155.142 136.801 154.48 136.851C154.282 136.851 154.182 137.066 154.265 137.231C154.414 137.513 154.53 137.794 154.629 138.092C154.729 138.39 155.209 138.274 155.109 137.96C155.01 137.612 154.878 137.298 154.695 136.983C154.629 137.116 154.547 137.231 154.48 137.364C155.275 137.347 156.036 136.602 155.705 135.775C155.556 135.394 155.209 135.096 154.811 135.014C154.58 134.964 154.381 135.063 154.166 135.063C153.752 135.063 153.636 134.981 153.851 134.583C154.05 134.219 154.166 134.17 154.547 134.054C154.662 134.021 154.762 133.872 154.712 133.756C154.596 133.425 154.48 132.961 154.149 132.796C154.067 132.763 153.967 132.746 153.901 132.796C153.885 132.812 153.851 132.829 153.835 132.845C153.736 132.912 153.702 133.011 153.719 133.127C153.719 133.143 153.736 133.176 153.736 133.193C153.802 133.458 154.282 133.325 154.216 133.028Z" fill="#161616"/>
<path d="M155.771 131.621C158.287 130.975 159.595 133.69 159.644 135.758C159.661 136.702 159.578 137.761 159.015 138.555C158.403 139.416 157.311 139.681 156.4 140.078C156.102 140.211 156.367 140.641 156.648 140.508C157.741 140.029 158.932 139.714 159.578 138.605C160.19 137.546 160.24 136.139 160.091 134.947C159.826 132.763 158.088 130.512 155.655 131.141C155.341 131.224 155.473 131.703 155.771 131.621Z" fill="#161616"/>
<path d="M158.535 138.324C158.767 138.274 158.999 138.224 159.23 138.175C159.545 138.109 159.412 137.629 159.098 137.695C158.866 137.745 158.635 137.794 158.403 137.844C158.088 137.91 158.221 138.39 158.535 138.324Z" fill="#161616"/>
<path d="M159.131 136.42C159.396 136.338 159.661 136.255 159.909 136.156C160.207 136.056 160.074 135.576 159.777 135.676C159.512 135.758 159.247 135.841 158.999 135.94C158.701 136.04 158.833 136.52 159.131 136.42Z" fill="#161616"/>
<path d="M158.966 134.947C159.131 134.914 159.313 134.881 159.479 134.848C159.611 134.832 159.677 134.666 159.644 134.55C159.611 134.418 159.479 134.352 159.346 134.385C159.181 134.418 158.999 134.451 158.833 134.484C158.701 134.501 158.635 134.666 158.668 134.782C158.701 134.914 158.833 134.964 158.966 134.947Z" fill="#161616"/>
<path d="M157.973 132.862C158.287 132.912 158.585 132.895 158.883 132.796C159.181 132.697 159.048 132.217 158.75 132.316C158.535 132.382 158.32 132.415 158.105 132.382C157.973 132.365 157.84 132.415 157.807 132.548C157.757 132.663 157.84 132.845 157.973 132.862Z" fill="#161616"/>
<path d="M155.225 164.176C153.057 163.547 151.65 161.429 151.617 159.211C151.567 156.679 153.769 154.51 156.284 155.636C158.403 156.579 159.214 159.062 159.28 161.23C159.313 162.273 159.131 163.531 158.188 164.143C157.211 164.788 155.937 164.54 154.894 164.209C154.596 164.11 154.464 164.59 154.762 164.689C156.45 165.235 158.585 165.268 159.429 163.382C160.24 161.578 159.727 158.996 158.8 157.341C157.873 155.669 155.887 154.378 153.918 154.957C151.865 155.57 150.938 157.804 151.17 159.79C151.418 162.024 152.925 164.044 155.109 164.673C155.407 164.755 155.54 164.275 155.225 164.176Z" fill="#161616"/>
<path d="M154.133 156.844C154.547 157.291 154.844 157.754 155.06 158.317C155.159 158.218 155.258 158.118 155.358 158.019C154.563 157.854 154.149 158.532 154.199 159.261C154.216 159.509 154.265 159.807 154.513 159.939C154.695 160.038 154.96 159.972 155.142 159.972C155.341 159.956 155.523 159.939 155.722 159.956C156.599 160.022 156.715 160.403 156.086 161.098C155.92 161.114 155.755 161.296 155.871 161.478C156.169 161.942 156.45 162.422 156.682 162.918C156.814 163.2 157.244 162.951 157.112 162.67C156.864 162.173 156.599 161.693 156.301 161.23C156.235 161.362 156.152 161.478 156.086 161.611C156.781 161.528 157.36 160.882 156.996 160.171C156.831 159.856 156.516 159.658 156.202 159.558C155.953 159.476 155.705 159.476 155.457 159.476C155.258 159.492 155.076 159.509 154.878 159.525C154.563 159.145 154.679 158.814 155.242 158.532C155.407 158.565 155.622 158.416 155.54 158.234C155.291 157.589 154.96 157.043 154.48 156.546C154.265 156.265 153.918 156.612 154.133 156.844Z" fill="#161616"/>
<path d="M152.411 155.735C150.276 157.572 149.614 160.734 151.22 163.133C152.776 165.467 155.904 166.146 158.27 164.623C158.535 164.457 158.287 164.027 158.022 164.193C155.804 165.616 152.875 164.937 151.518 162.67C150.194 160.452 150.872 157.721 152.776 156.083C153.007 155.884 152.66 155.537 152.411 155.735Z" fill="#161616"/>
<path opacity="0.14" d="M153.736 155.52C153.438 156.182 153.057 157.308 153.107 158.731C153.123 159.161 153.239 161.561 154.977 163.183C156.169 164.292 157.426 164.358 157.377 164.739C157.311 165.153 155.755 165.484 154.348 165.136C152.809 164.755 151.435 163.531 150.839 161.925C150.69 161.511 150.094 159.856 150.922 158.052C151.766 156.248 153.421 155.619 153.736 155.52Z" fill="#3F3F3F"/>
<path opacity="0.15" d="M138.128 141.899C138.194 142.528 138.36 143.504 138.79 144.613C139.221 145.672 139.965 147.576 141.902 148.668C142.382 148.933 143.292 149.363 144.616 149.429C144.5 149.661 144.219 150.108 143.689 150.455C143.342 150.671 143.027 150.77 142.795 150.82C142.117 150.621 141.091 150.224 140.032 149.446C139.353 148.933 137.781 147.725 137.102 145.523C136.721 144.282 136.754 143.157 136.887 142.313C137.284 142.164 137.698 142.031 138.128 141.899Z" fill="#3F3F3F"/>
<path opacity="0.14" d="M156.053 131.257C156.549 131.521 157.41 132.084 158.006 133.127C158.85 134.567 158.668 135.99 158.585 136.685C158.502 137.314 158.386 138.241 157.691 139.135C157.327 139.615 156.913 139.929 156.615 140.111C156.98 140.095 157.906 139.979 158.668 139.267C159.264 138.704 159.446 138.059 159.644 137.347C159.959 136.222 159.859 135.312 159.826 134.997C159.694 134.037 159.346 133.359 159.247 133.176C158.932 132.581 158.519 131.819 157.642 131.439C156.996 131.157 156.384 131.207 156.053 131.257Z" fill="#3F3F3F"/>
<path d="M170.071 266.46C169.591 270.134 169.111 273.808 168.631 277.499C159.412 279.518 154.844 280.909 154.944 281.687C155.076 282.63 161.978 282.663 175.682 281.802C176.278 276.87 176.857 271.938 177.453 267.023C174.987 266.841 172.537 266.642 170.071 266.46Z" fill="#161616"/>
<path d="M190.098 202.69C190.263 204.295 190.429 206.96 190.131 210.237C189.684 215.136 188.426 218.694 187.996 219.969C184.47 230.296 182.766 243.851 181.971 250.273C181.408 254.825 180.78 261.627 180.928 270.101C180.002 270.614 176.923 272.186 172.885 271.541C169.144 270.945 166.811 268.843 166.016 268.065C165.602 255.338 166.678 245.142 167.804 238.009C168.995 230.363 170.7 222.617 172.653 214.805C173.812 210.138 174.97 205.487 176.145 200.819C180.78 201.432 185.447 202.061 190.098 202.69Z" fill="#4C4C4C"/>
<path opacity="0.13" d="M189.932 207.672C189.386 209.84 188.509 213.084 187.317 216.956C183.378 229.634 179.836 236.222 177.171 243.272C174.788 249.561 172.14 258.797 171.379 271.111C172.256 271.392 173.497 271.673 174.987 271.657C177.718 271.624 179.77 270.614 180.78 270.018C180.895 261.875 181.425 255.04 181.988 249.826C182.435 245.622 182.881 241.518 183.957 236.073C185.248 229.519 185.894 226.241 187.234 222.418C188.145 219.869 189.237 217.271 189.75 213.249C189.998 210.932 189.982 208.996 189.932 207.672Z" fill="#3F3F3F"/>
<path opacity="0.19" d="M183.494 238.357C182.286 241.319 181.127 244.414 180.002 247.642C177.056 256.099 174.854 264.159 173.232 271.657C174.11 271.74 175.218 271.756 176.509 271.541C178.429 271.226 179.919 270.548 180.879 270.018C180.796 266.725 180.829 263.266 180.995 259.641C181.326 251.812 182.269 244.679 183.494 238.357Z" fill="#3F3F3F"/>
<path d="M200.409 265.698C201.253 268.462 202.097 271.21 202.941 273.974C196.337 278.641 193.242 281.372 193.673 282.133C194.219 283.11 200.359 280.975 212.094 275.728C210.405 271.028 208.717 266.311 207.012 261.61C204.828 262.968 202.61 264.325 200.409 265.698Z" fill="#161616"/>
<path d="M196.751 199.214C197.446 200.671 198.522 203.12 199.366 206.298C200.624 211.048 200.64 214.821 200.674 216.162C200.872 227.086 203.901 240.409 205.324 246.698C206.334 251.183 208.072 257.771 211.101 265.699C210.405 266.493 208.039 269.009 204.017 269.803C200.293 270.531 197.38 269.34 196.387 268.876C191.67 257.042 189.204 247.095 187.814 240.012C186.324 232.415 185.298 224.553 184.454 216.543C183.957 211.76 183.461 206.976 182.964 202.21C187.565 201.2 192.166 200.207 196.751 199.214Z" fill="#4C4C4C"/>
<path opacity="0.17" d="M188.393 201.117C190.627 210.469 192.845 219.82 195.046 229.171C198.224 242.66 201.352 256.165 204.431 269.671C205.175 269.522 206.086 269.257 207.046 268.793C208.982 267.867 210.256 266.592 210.968 265.732C209.826 262.703 208.436 258.698 207.046 253.947C204.348 244.762 203.073 237.479 202.577 234.401C201.667 228.807 201.12 225.447 200.938 220.647C200.822 217.403 200.971 215.798 200.508 212.455C200.309 211.031 199.73 207.473 198.207 203.07C197.645 201.448 197.099 200.108 196.685 199.148C193.937 199.81 191.173 200.472 188.393 201.117Z" fill="#3F3F3F"/>
<path opacity="0.15" d="M200.293 217.287C200.243 229.651 201.22 243.438 204 258.234C204.695 261.925 205.457 265.483 206.301 268.926C206.797 268.777 207.36 268.578 207.939 268.264C209.412 267.503 210.405 266.493 211.001 265.748C209.296 260.965 207.658 255.834 206.201 250.356C202.974 238.307 201.203 227.135 200.293 217.287Z" fill="#3F3F3F"/>
<path d="M178.082 164.64C175.781 166.493 174.772 168.794 174.176 170.167C172.306 174.454 172.703 178.377 172.934 180.462C173.53 185.808 175.367 186.685 176.278 191.717C176.758 194.414 176.94 197.973 175.897 202.408C176.609 203.037 182.087 207.721 189.353 206.314C193.639 205.487 196.387 202.955 197.463 201.829C197.843 191.154 197.231 182.349 196.503 175.877C195.659 168.347 194.781 165.119 192.017 163.249C188.145 160.634 181.888 161.578 178.082 164.64Z" fill="white" stroke="black" stroke-width="0.331015" stroke-miterlimit="10"/>
<path opacity="0.14" d="M185.894 161.495C186.936 163.58 188.211 166.493 189.27 170.118C191.951 179.303 191.405 186.9 191.124 189.548C190.362 196.996 188.062 202.822 186.208 206.579C187.367 206.612 188.873 206.513 190.578 206.033C194.037 205.056 196.288 203.004 197.347 201.879C197.496 196.169 197.446 191.369 197.347 187.794C197.347 187.794 197.214 182.547 196.254 173.924C195.592 167.933 195.129 165.98 193.524 164.308C191.173 161.892 187.764 161.528 185.894 161.495Z" fill="#3F3F3F"/>
<path opacity="0.17" d="M195.394 169.356C195.112 169.373 195.46 173.593 195.063 181.472C194.55 191.667 193.375 195.854 192.994 197.195C191.869 201.035 190.429 204.014 189.386 205.934C190.28 205.867 191.471 205.685 192.762 205.172C195.212 204.196 196.734 202.574 197.463 201.68C197.562 198.387 197.612 193.554 197.347 187.711C196.917 178.244 195.791 169.323 195.394 169.356Z" fill="#3F3F3F"/>
<path d="M174.689 176.308C173.448 177.516 172.802 178.807 172.488 179.568C171.743 181.356 171.726 182.878 171.726 183.689C171.726 185.874 172.322 187.446 172.968 189.201C173.431 190.426 174.176 192.114 175.417 193.984C175.682 194.067 176.079 194.166 176.559 194.183C177.022 194.183 177.387 194.116 177.668 194.034C177.502 192.991 177.353 191.965 177.188 190.922C177.469 190.988 177.9 191.071 178.429 191.154C180.928 191.534 182.964 191.27 184.172 191.104C184.735 191.021 185.53 190.906 186.473 190.674C186.39 191.303 186.307 191.915 186.241 192.544C187.152 193.057 187.549 192.859 187.681 192.776C187.946 192.61 187.979 192.312 188.31 191.286C188.459 190.806 188.608 190.426 188.691 190.177C189.055 190.028 189.419 189.896 189.8 189.747C189.7 190.095 189.601 190.442 189.518 190.806C189.8 190.872 190.263 190.955 190.809 190.856C191.124 190.806 191.372 190.707 191.571 190.624C191.786 189.846 192.017 189.068 192.233 188.274C192.862 187.595 193.457 187.281 193.904 187.132C194.401 186.95 194.566 187.016 194.964 186.801C195.774 186.338 196.056 185.46 196.106 185.262C196.172 185.047 196.387 184.236 196.006 183.441C195.791 182.994 195.642 183.061 195.195 182.382C194.815 181.819 194.831 181.621 194.484 180.992C194.301 180.694 194.02 180.247 193.573 179.75C193.888 178.824 194.169 178.393 194.384 178.178C194.434 178.128 194.583 177.979 194.583 177.797C194.583 177.632 194.434 177.483 194.202 177.317C193.639 176.92 193.292 176.688 192.812 176.738C192.2 176.821 191.835 177.301 191.753 177.4C191.504 176.986 191.14 176.407 190.611 175.828C188.939 173.991 186.936 173.296 186.059 173.047C182.732 172.12 179.886 173.345 178.164 174.107C177.221 174.504 175.947 175.066 174.689 176.308Z" fill="white"/>
<path d="M173.067 188.936C172.074 186.255 171.677 183.292 172.504 180.512C173.299 177.88 175.069 175.795 177.569 174.653C180.084 173.494 183.13 172.65 185.861 173.345C188.244 173.958 190.296 175.513 191.504 177.665C191.653 177.946 192.084 177.698 191.935 177.417C189.899 173.776 185.712 171.988 181.673 172.816C179.389 173.279 176.907 174.09 175.103 175.596C173.464 176.97 172.355 178.939 171.859 181.008C171.23 183.706 171.627 186.503 172.587 189.068C172.703 189.35 173.183 189.234 173.067 188.936Z" fill="black"/>
<path d="M187.301 182.547C187.234 181.869 187.267 180.164 188.178 180.032C188.74 179.949 189.105 180.677 189.733 180.628C190.048 180.594 190.048 180.098 189.733 180.131C189.303 180.181 189.005 179.734 188.625 179.568C188.26 179.419 187.913 179.486 187.615 179.734C186.854 180.363 186.738 181.637 186.821 182.547C186.837 182.862 187.334 182.862 187.301 182.547Z" fill="black"/>
<path d="M189.369 180.214C190.313 179.817 190.925 180.843 190.031 181.339C189.733 181.505 189.369 181.604 189.038 181.72C188.376 181.952 187.698 182.183 187.036 182.415C186.738 182.514 186.87 182.994 187.168 182.895C188.029 182.597 188.906 182.316 189.767 181.985C190.213 181.819 190.743 181.587 190.942 181.108C191.422 179.932 190.015 179.403 189.138 179.783C188.84 179.899 189.088 180.33 189.369 180.214Z" fill="black"/>
<path d="M192.183 176.837C191.736 177.102 191.223 177.516 191.355 178.112C191.405 178.36 191.571 178.542 191.802 178.658C192.15 178.84 192.497 178.939 192.828 179.188C193.077 179.386 193.424 179.039 193.176 178.84C192.878 178.608 192.564 178.443 192.233 178.294C191.984 178.178 191.769 178.062 191.902 177.748C192.001 177.516 192.249 177.384 192.448 177.268C192.713 177.102 192.464 176.672 192.183 176.837Z" fill="black"/>
<path d="M191.835 178.509C191.703 179.353 192.266 180.33 193.242 180.131C193.639 180.048 193.888 179.75 194.053 179.403C194.235 178.989 194.268 178.41 194.682 178.161C194.947 177.996 194.699 177.566 194.434 177.731C194.004 177.996 193.871 178.426 193.722 178.873C193.623 179.171 193.507 179.535 193.176 179.634C192.58 179.817 192.233 179.138 192.315 178.641C192.348 178.327 191.869 178.178 191.835 178.509Z" fill="black"/>
<path d="M192.2 177.433C192.911 176.655 193.871 177.45 194.384 178.013C194.599 178.244 194.947 177.897 194.732 177.665C194.02 176.887 192.746 176.093 191.852 177.086C191.637 177.317 191.984 177.665 192.2 177.433Z" fill="black"/>
<path d="M191.405 182.796C191.372 182.796 191.372 182.796 191.405 182.796C191.372 182.779 191.372 182.779 191.405 182.796C191.389 182.796 191.372 182.779 191.372 182.763C191.389 182.779 191.389 182.779 191.372 182.763C191.355 182.746 191.355 182.729 191.372 182.746C191.372 182.763 191.372 182.763 191.372 182.729C191.372 182.696 191.372 182.696 191.372 182.729C191.372 182.713 191.372 182.696 191.372 182.68C191.372 182.713 191.372 182.713 191.372 182.68C191.355 182.713 191.355 182.713 191.372 182.68C191.339 182.696 191.405 182.68 191.355 182.696C191.389 182.68 191.389 182.68 191.355 182.696C191.389 182.696 191.389 182.696 191.355 182.696H191.405C191.389 182.696 191.372 182.696 191.389 182.696C191.405 182.696 191.405 182.696 191.422 182.713C191.405 182.696 191.405 182.713 191.422 182.713C191.438 182.729 191.455 182.729 191.422 182.713C191.438 182.729 191.438 182.746 191.422 182.729C191.422 182.713 191.422 182.713 191.422 182.746C191.422 182.729 191.422 182.713 191.422 182.713C191.405 182.746 191.422 182.746 191.422 182.713C191.405 182.729 191.405 182.746 191.422 182.713C191.405 182.729 191.405 182.729 191.389 182.746C191.355 182.763 191.422 182.713 191.389 182.746C191.372 182.746 191.355 182.763 191.339 182.763C191.372 182.763 191.372 182.763 191.339 182.763C191.355 182.763 191.355 182.779 191.339 182.763C191.074 182.597 190.809 183.027 191.091 183.193C191.355 183.358 191.703 183.243 191.852 182.978C192.017 182.68 191.835 182.332 191.521 182.25C191.24 182.167 190.925 182.316 190.842 182.614C190.776 182.895 190.942 183.209 191.24 183.292C191.587 183.358 191.72 182.878 191.405 182.796Z" fill="black"/>
<path d="M193.706 181.372C193.739 181.389 193.772 181.405 193.788 181.439C193.772 181.405 193.805 181.488 193.788 181.455C193.788 181.422 193.788 181.521 193.788 181.472C193.772 181.538 193.788 181.422 193.788 181.472C193.755 181.521 193.805 181.422 193.788 181.472C193.805 181.439 193.755 181.505 193.772 181.488C193.739 181.521 193.706 181.538 193.656 181.521C193.623 181.505 193.606 181.488 193.59 181.472C193.573 181.455 193.573 181.455 193.59 181.472C193.59 181.455 193.573 181.455 193.573 181.439C193.59 181.488 193.573 181.372 193.573 181.422C193.573 181.472 193.59 181.372 193.573 181.422C193.557 181.472 193.59 181.389 193.573 181.405C193.557 181.439 193.573 181.405 193.59 181.389C193.573 181.405 193.573 181.405 193.59 181.389C193.606 181.372 193.623 181.372 193.639 181.372C193.606 181.389 193.689 181.372 193.706 181.372C193.573 181.339 193.424 181.405 193.408 181.538C193.375 181.67 193.441 181.819 193.573 181.836C193.788 181.885 193.987 181.753 194.053 181.538C194.103 181.323 194.02 181.091 193.788 181.025C193.573 180.959 193.358 181.124 193.308 181.323C193.242 181.538 193.358 181.753 193.573 181.836C193.689 181.869 193.855 181.786 193.871 181.67C193.904 181.538 193.838 181.422 193.706 181.372Z" fill="black"/>
<path d="M193.441 179.866C193.987 180.495 194.335 181.24 194.484 182.067C194.55 182.382 195.03 182.25 194.964 181.935C194.798 181.025 194.384 180.214 193.788 179.519C193.573 179.27 193.226 179.635 193.441 179.866Z" fill="black"/>
<path d="M194.649 182.382C194.864 182.581 195.129 182.729 195.427 182.796C195.741 182.862 195.874 182.382 195.559 182.316C195.344 182.266 195.162 182.183 194.997 182.034C194.765 181.803 194.417 182.15 194.649 182.382Z" fill="black"/>
<path d="M195.477 182.465C194.301 182.581 193.292 183.259 192.878 184.401C192.531 185.378 192.663 186.818 193.822 187.165C194.831 187.463 195.758 186.735 196.122 185.824C196.486 184.914 196.602 183.11 195.609 182.531C195.328 182.365 195.079 182.796 195.361 182.961C196.039 183.358 195.907 184.865 195.708 185.493C195.477 186.238 194.798 186.95 193.954 186.669C192.977 186.338 193.093 185.013 193.474 184.269C193.871 183.507 194.632 183.077 195.46 182.978C195.791 182.928 195.808 182.432 195.477 182.465Z" fill="black"/>
<path d="M194.252 185.146C194.252 185.113 194.252 185.08 194.252 185.047C194.252 184.914 194.136 184.798 194.004 184.798C193.871 184.798 193.755 184.914 193.755 185.047V185.146C193.755 185.278 193.871 185.394 194.004 185.394C194.136 185.394 194.252 185.295 194.252 185.146Z" fill="black"/>
<path d="M195.576 184.236C195.543 184.203 195.51 184.169 195.493 184.136C195.41 184.037 195.228 184.037 195.146 184.136C195.046 184.236 195.046 184.385 195.146 184.484C195.179 184.517 195.212 184.55 195.228 184.583C195.311 184.682 195.493 184.682 195.576 184.583C195.675 184.484 195.659 184.335 195.576 184.236Z" fill="black"/>
<path d="M189.982 184.798C190.296 185.146 190.859 185.063 191.124 184.699C191.206 184.583 191.14 184.418 191.041 184.351C190.909 184.285 190.776 184.335 190.693 184.434C190.611 184.55 190.412 184.517 190.329 184.418C190.131 184.203 189.767 184.567 189.982 184.798Z" fill="black"/>
<path d="M190.528 184.848C190.892 185.907 192.117 186.42 193.126 185.94C193.408 185.808 193.159 185.378 192.878 185.51C192.166 185.841 191.273 185.444 191.008 184.716C190.892 184.418 190.412 184.534 190.528 184.848Z" fill="black"/>
<path d="M193.755 186.768C193.193 187.215 192.613 187.662 192.051 188.108C191.802 188.307 192.15 188.655 192.398 188.456C192.961 188.009 193.54 187.562 194.103 187.115C194.368 186.933 194.004 186.586 193.755 186.768Z" fill="black"/>
<path d="M191.968 188.324C191.67 189.085 191.438 189.863 191.273 190.657C191.206 190.972 191.686 191.104 191.753 190.79C191.918 189.995 192.15 189.217 192.448 188.456C192.564 188.158 192.084 188.026 191.968 188.324Z" fill="black"/>
<path d="M172.454 188.489C172.852 190.144 173.514 191.733 174.49 193.14C174.772 193.554 175.103 194.133 175.583 194.332C176.195 194.596 177.039 194.381 177.668 194.282C177.767 194.265 177.867 194.133 177.85 194.05C177.751 193.008 177.585 191.981 177.37 190.955C177.304 190.641 176.824 190.773 176.89 191.088C177.105 192.064 177.254 193.057 177.353 194.05C177.42 193.967 177.469 193.885 177.536 193.819C176.824 193.934 176.013 194.116 175.434 193.587C174.987 193.173 174.606 192.461 174.308 191.932C173.663 190.806 173.216 189.615 172.918 188.357C172.852 188.042 172.372 188.175 172.454 188.489Z" fill="black"/>
<path d="M177.32 191.154C178.893 191.501 180.498 191.667 182.104 191.634C183.461 191.601 185.248 191.568 186.44 190.872C186.721 190.707 186.473 190.277 186.192 190.442C184.983 191.137 183.146 191.121 181.789 191.137C180.333 191.154 178.876 190.988 177.436 190.674C177.138 190.608 177.006 191.088 177.32 191.154Z" fill="black"/>
<path d="M186.274 189.896C186.142 190.657 185.976 191.452 185.96 192.23C185.943 192.726 186.208 192.991 186.705 193.008C187.118 193.024 187.946 192.991 188.194 192.627C188.393 192.312 188.443 191.766 188.542 191.419C188.658 191.021 188.79 190.608 188.906 190.21C189.005 189.896 188.525 189.78 188.426 190.078C188.178 190.889 187.946 191.683 187.714 192.494C187.764 192.445 187.83 192.379 187.88 192.329C187.598 192.412 187.267 192.528 186.969 192.511C186.473 192.494 186.44 192.23 186.49 191.816C186.556 191.22 186.638 190.624 186.754 190.028C186.804 189.714 186.324 189.582 186.274 189.896Z" fill="black"/>
<path d="M188.591 190.409C189.419 190.194 190.147 189.764 190.743 189.135C190.958 188.903 190.611 188.555 190.396 188.787C189.866 189.35 189.22 189.73 188.459 189.929C188.161 190.012 188.277 190.492 188.591 190.409Z" fill="black"/>
<path d="M189.402 189.73C189.253 190.144 189.187 190.558 189.204 190.988C189.204 191.121 189.32 191.237 189.452 191.237C189.998 191.237 190.544 191.17 191.091 191.071C191.405 191.005 191.273 190.541 190.958 190.591C190.462 190.69 189.965 190.724 189.452 190.74L189.7 190.988C189.684 190.591 189.733 190.227 189.866 189.863C189.998 189.565 189.518 189.433 189.402 189.73Z" fill="black"/>
<path d="M177.089 176.589C179.24 175.745 181.491 175.282 183.792 175.182C184.106 175.166 184.106 174.669 183.792 174.686C181.442 174.769 179.141 175.249 176.956 176.109C176.658 176.225 176.791 176.705 177.089 176.589Z" fill="black"/>
<path d="M177.205 175.993C177.188 175.977 177.188 175.977 177.171 175.96C177.188 176.06 177.205 176.159 177.205 176.258C177.403 175.795 178.429 175.695 178.86 175.613C179.422 175.497 179.985 175.398 180.548 175.315C181.806 175.116 183.08 174.984 184.338 174.901C184.652 174.884 184.652 174.388 184.338 174.404C182.865 174.504 181.408 174.669 179.952 174.918C179.191 175.05 177.138 175.166 176.774 176.01C176.725 176.109 176.725 176.225 176.807 176.308L176.84 176.341C177.072 176.556 177.436 176.208 177.205 175.993Z" fill="black"/>
<path opacity="0.12" d="M191.372 176.904C191.306 178.708 190.743 179.651 190.213 180.164C189.932 180.445 189.816 180.445 188.74 181.323C187.218 182.547 187.118 182.812 187.069 182.994C186.887 183.871 187.83 184.269 187.896 185.295C187.979 186.47 186.837 187.463 186.225 187.976C183.163 190.608 176.94 190.061 175.914 189.962C176.145 191.352 176.377 192.743 176.625 194.116C176.923 194.199 177.337 194.265 177.519 194.05C177.701 193.852 177.585 193.521 177.453 192.842C177.271 191.882 177.188 191.386 177.32 191.17C177.685 190.608 179.24 191.137 180.581 191.369C181.855 191.584 183.726 191.634 186.159 190.856C186.208 191.419 186.241 191.965 186.291 192.528H187.963C188.161 191.799 188.343 191.071 188.542 190.343C188.922 190.128 189.303 189.913 189.7 189.697C189.618 190.128 189.535 190.558 189.452 190.972C190.048 190.955 190.644 190.922 191.24 190.906C191.256 190.426 191.389 189.433 192.067 188.473C192.315 188.125 192.762 187.513 193.54 187.198C194.037 187 194.186 187.115 194.699 186.884C194.93 186.784 195.559 186.437 195.973 185.725C196.37 185.047 196.602 183.954 196.106 183.226C195.841 182.845 195.675 182.994 195.212 182.514C194.699 181.985 194.815 181.703 194.186 180.528C193.755 179.717 193.606 179.684 193.606 179.37C193.639 178.575 194.649 178.327 194.566 177.764C194.484 177.086 192.928 176.821 192.845 176.804C192.233 176.738 191.72 176.821 191.372 176.904Z" fill="#3F3F3F"/>
<path opacity="0.14" d="M190.925 180.743C190.859 181.108 190.693 181.72 190.213 182.283C189.949 182.597 189.618 182.978 189.055 183.044C188.443 183.127 187.963 182.763 187.847 182.663C188.889 182.018 189.899 181.389 190.925 180.743Z" fill="#3F3F3F"/>
<path d="M188.112 189.664C187.764 189.863 187.499 190.293 187.532 190.657C187.615 191.435 189.121 191.799 189.071 191.965C189.022 192.114 187.946 191.65 186.804 192.064C186.622 192.13 186.026 192.345 185.976 192.726C185.943 193.024 186.274 193.107 186.357 193.587C186.423 193.918 186.274 193.951 186.258 194.547C186.241 194.944 186.241 195.192 186.39 195.44C186.589 195.755 186.821 195.689 187.003 195.987C187.218 196.334 186.936 196.549 187.102 196.98C187.267 197.427 187.747 197.708 188.128 197.807C188.558 197.923 188.79 197.774 188.922 197.94C189.121 198.188 188.658 198.618 188.823 199.032C188.972 199.396 189.518 199.495 189.717 199.512C191.091 199.611 192.299 196.467 192.365 196.285C192.878 196.285 193.49 196.235 194.153 196.069C195.692 195.672 196.668 194.795 197.86 193.736C198.472 193.19 199.234 192.494 200.028 191.402C201.104 189.913 201.584 188.588 202.014 187.413C202.378 186.387 202.908 184.831 203.073 182.746C203.222 180.594 202.891 178.989 202.593 177.582C201.849 174.107 200.508 171.756 200.194 171.227C200.144 171.144 199.151 169.853 197.165 167.271C196.155 165.964 195.245 164.822 194.169 164.871C194.053 164.871 193.838 164.888 193.59 165.037C192.812 165.484 192.746 166.775 192.795 167.966C192.977 172.071 194.417 175.05 194.417 175.05C195.592 177.466 196.536 178.095 196.966 180.346C197.198 181.521 197.198 182.614 197.181 182.829C197.181 183.673 197.148 184.798 196.701 186.156C196.453 186.867 195.907 188.473 194.368 189.764C193.441 190.541 192.779 191.104 191.935 191.005C190.76 190.872 189.783 189.548 188.641 189.532C188.509 189.532 188.31 189.548 188.112 189.664Z" fill="white"/>
<path d="M193.54 164.888C197.711 167.47 200.822 171.624 202.097 176.374C203.52 181.687 202.56 187.182 199.383 191.667C197.81 193.885 195.51 196.036 192.613 195.92C192.299 195.904 192.299 196.4 192.613 196.417C195.079 196.516 197.148 195.076 198.721 193.305C200.508 191.286 201.898 188.787 202.627 186.189C204.116 180.843 202.958 174.901 199.879 170.316C198.29 167.966 196.221 165.964 193.805 164.474C193.507 164.292 193.259 164.722 193.54 164.888Z" fill="black"/>
<path d="M196.552 185.94C195.659 188.075 194.252 190.31 191.786 190.724C191.471 190.773 191.604 191.253 191.918 191.203C194.55 190.757 196.056 188.357 197.016 186.073C197.148 185.791 196.668 185.659 196.552 185.94Z" fill="black"/>
<path d="M191.885 190.69C190.76 190.492 188.807 188.456 187.665 189.582C187.251 189.995 187.301 190.69 187.549 191.17C187.913 191.882 188.707 192.13 189.419 192.312C189.733 192.395 189.866 191.915 189.551 191.832C188.922 191.683 188.161 191.485 187.929 190.79C187.797 190.541 187.847 190.31 188.062 190.128C188.161 189.78 188.393 189.664 188.757 189.813C189.022 189.863 189.27 189.979 189.502 190.095C190.263 190.475 190.892 191.021 191.753 191.17C192.067 191.237 192.2 190.757 191.885 190.69Z" fill="black"/>
<path d="M192.348 196.02C191.802 196.814 191.273 197.625 190.727 198.42C190.594 198.602 190.478 198.784 190.313 198.949C190.164 199.131 189.965 199.264 189.733 199.346C189.502 198.999 189.287 198.651 189.055 198.304C189.154 198.006 189.849 197.609 190.081 197.393C190.329 197.178 189.965 196.831 189.733 197.046C189.253 197.476 188.376 197.956 188.343 198.684C188.327 199.247 188.757 199.777 189.303 199.86C189.982 199.959 190.528 199.495 190.909 198.999C191.587 198.138 192.15 197.178 192.779 196.268C192.961 196.003 192.531 195.755 192.348 196.02Z" fill="black"/>
<path d="M189.436 191.816C188.476 192.097 187.499 191.866 186.539 192.031C186.043 192.114 185.612 192.379 185.662 192.941C185.827 194.53 188.012 194.282 189.055 194.05C189.369 193.984 189.237 193.504 188.922 193.57C188.443 193.686 187.946 193.785 187.449 193.752C186.821 193.703 185.463 192.908 186.771 192.494C187.218 192.362 187.814 192.478 188.26 192.461C188.707 192.461 189.138 192.412 189.568 192.279C189.882 192.197 189.75 191.717 189.436 191.816Z" fill="black"/>
<path d="M186.506 193.653C185.778 194.166 185.712 195.308 186.407 195.887C187.234 196.566 188.492 196.136 189.336 195.722C189.618 195.573 189.369 195.143 189.088 195.292C188.542 195.573 187.814 195.854 187.185 195.705C186.473 195.556 186.092 194.547 186.771 194.083C187.019 193.901 186.771 193.471 186.506 193.653Z" fill="black"/>
<path d="M186.804 196.02C186.589 196.665 186.87 197.427 187.433 197.824C188.145 198.32 189.038 198.072 189.684 197.576C189.932 197.377 189.684 196.947 189.436 197.145C188.972 197.493 188.343 197.791 187.797 197.46C187.35 197.195 187.135 196.632 187.301 196.152C187.383 195.854 186.903 195.722 186.804 196.02Z" fill="black"/>
<path d="M193.805 164.209C191.686 167.221 192.415 171.078 193.772 174.222C195.477 178.178 198.356 182.15 197.479 186.685C197.413 187 197.893 187.132 197.959 186.818C198.721 182.862 196.751 179.254 195.063 175.828C193.358 172.369 191.753 167.983 194.235 164.457C194.417 164.193 193.987 163.944 193.805 164.209Z" fill="black"/>
<path d="M197.016 181.24C196.933 183.011 196.718 184.765 196.37 186.503C196.304 186.818 196.784 186.95 196.85 186.635C197.198 184.848 197.43 183.061 197.512 181.24C197.529 180.925 197.032 180.925 197.016 181.24Z" fill="black"/>
<path opacity="0.12" d="M196.701 167.023C197.529 168.628 198.522 170.962 199.151 173.908C199.978 177.814 199.747 180.942 199.598 182.349C199.25 185.593 198.952 188.39 196.85 191.154C195.973 192.329 194.186 194.679 191.223 195.457C189.204 195.97 187.168 195.623 186.92 196.417C186.804 196.831 187.185 197.36 187.582 197.609C188.111 197.923 188.823 197.873 189.436 197.46C188.84 197.873 188.558 198.453 188.691 198.866C188.807 199.231 189.22 199.429 189.502 199.462C190.859 199.644 192.216 196.516 192.315 196.285C192.845 196.301 193.639 196.268 194.533 195.987C196.387 195.424 197.512 194.183 198.754 192.809C199.267 192.246 200.194 191.187 201.054 189.631C203.255 185.609 203.073 181.571 202.974 180.081C202.693 175.182 200.624 171.806 200.078 170.978C198.952 169.125 197.661 167.85 196.701 167.023Z" fill="#3F3F3F"/>
<path opacity="0.11" d="M203.073 181.157C202.478 183.011 201.551 185.245 200.111 187.595C197.612 191.683 194.616 194.365 192.481 195.97C193.027 196.003 193.855 195.987 194.781 195.755C197.926 194.927 199.598 192.18 200.26 191.088C201.12 189.664 201.451 188.473 202.031 186.42C202.643 184.269 202.924 182.432 203.073 181.157Z" fill="#3F3F3F"/>
<path d="M176.84 165.517C176.576 165.202 174.407 166.609 172.934 167.718C171.147 169.059 169.608 170.217 168.135 172.319C166.182 175.1 165.586 177.797 165.387 178.906C165.238 179.767 164.775 182.779 165.801 186.453C166.662 189.548 168.118 191.419 169.922 193.736C171.081 195.242 171.974 196.069 173.216 196.616C174.358 197.129 175.4 197.228 176.096 197.228C176.46 197.758 176.874 198.353 177.337 199.015C177.734 199.578 177.966 199.893 178.363 200.257C178.744 200.604 179.34 201.117 179.803 200.935C180.051 200.853 180.184 200.588 180.415 200.174C180.647 199.744 180.597 199.661 180.763 199.495C181.111 199.131 181.475 199.363 181.938 199.082C182.401 198.784 182.186 198.387 182.766 197.576C183.212 196.947 183.461 196.996 183.593 196.549C183.726 196.053 183.428 195.887 183.527 195.242C183.626 194.596 183.99 194.381 183.874 194.15C183.742 193.901 183.229 194.001 182.501 194.017C181.177 194.034 180.035 193.703 180.035 193.537C180.035 193.355 181.21 193.521 181.822 192.776C182.17 192.345 182.319 191.617 182.021 191.27C181.673 190.839 180.763 191.055 179.621 191.336C178.082 191.717 177.999 192.031 177.353 192.097C175.367 192.279 173.58 189.433 172.968 188.456C172.637 187.943 171.61 186.205 171.246 183.723C170.882 181.223 171.362 179.155 171.726 177.615C171.826 177.168 171.792 177.384 172.488 175C173.712 170.763 173.63 170.78 173.927 170.052C175.152 167.106 177.105 165.815 176.84 165.517Z" fill="white"/>
<path d="M176.394 165.351C171.395 167.552 167.274 171.74 165.652 177.019C163.881 182.729 165.321 188.671 169.028 193.289C170.816 195.507 173.216 197.344 176.145 197.509C176.46 197.526 176.46 197.029 176.145 197.013C173.53 196.864 171.362 195.258 169.707 193.322C167.92 191.22 166.48 188.638 165.834 185.957C164.51 180.578 166.149 174.818 169.806 170.714C171.71 168.579 174.06 166.924 176.675 165.765C176.94 165.649 176.691 165.235 176.394 165.351Z" fill="black"/>
<path d="M171.677 186.702C172.703 189.25 174.358 191.683 177.171 192.379C177.486 192.461 177.618 191.981 177.304 191.899C174.672 191.253 173.116 188.953 172.157 186.569C172.041 186.288 171.561 186.404 171.677 186.702Z" fill="black"/>
<path d="M177.271 192.345C178.264 192.279 179.058 191.783 179.985 191.485C180.597 191.286 181.64 191.071 181.756 191.915C181.905 192.941 180.597 193.156 179.853 193.239C179.538 193.272 179.538 193.769 179.853 193.736C180.597 193.653 181.425 193.537 181.938 192.941C182.335 192.461 182.468 191.717 182.037 191.22C180.895 189.896 178.545 191.766 177.271 191.849C176.956 191.882 176.956 192.379 177.271 192.345Z" fill="black"/>
<path d="M175.963 197.377C176.609 198.337 177.205 199.363 177.916 200.273C178.347 200.836 178.926 201.366 179.687 201.316C180.25 201.266 180.78 200.836 180.78 200.24C180.796 199.462 179.803 198.866 179.306 198.42C179.075 198.204 178.711 198.552 178.959 198.767C179.24 199.015 179.935 199.462 180.068 199.793C180.084 200.075 180.084 200.34 180.101 200.621C179.588 200.869 179.158 200.836 178.827 200.522C178.562 200.323 178.38 200.091 178.181 199.81C177.552 198.933 176.989 198.022 176.394 197.129C176.211 196.847 175.781 197.096 175.963 197.377Z" fill="black"/>
<path d="M179.77 193.703C180.713 194.05 181.706 194.001 182.683 194.166C182.848 194.183 183.014 194.216 183.179 194.265C183.262 194.514 183.345 194.762 183.411 195.01C183.345 195.308 182.418 195.391 182.219 195.391C181.59 195.407 180.978 195.209 180.382 195.043C180.068 194.961 179.952 195.424 180.25 195.523C181.21 195.805 184.007 196.434 184.106 194.679C184.139 194.067 183.543 193.835 183.047 193.736C182.004 193.521 180.912 193.603 179.902 193.239C179.604 193.123 179.472 193.603 179.77 193.703Z" fill="black"/>
<path d="M182.865 195.821C183.212 196.086 183.328 196.566 183.113 196.93C182.898 197.294 182.484 197.393 182.087 197.393C181.408 197.377 180.73 197.062 180.134 196.748C179.853 196.599 179.604 197.029 179.886 197.178C180.796 197.675 182.236 198.304 183.212 197.592C183.974 197.029 183.841 195.92 183.13 195.391C182.848 195.192 182.6 195.623 182.865 195.821Z" fill="black"/>
<path d="M182.17 197.857C182.335 198.42 181.955 198.999 181.392 199.148C180.779 199.313 180.167 198.999 179.704 198.635C179.455 198.436 179.108 198.784 179.356 198.982C180.018 199.512 180.895 199.893 181.739 199.545C182.451 199.247 182.898 198.469 182.666 197.724C182.567 197.41 182.087 197.542 182.17 197.857Z" fill="black"/>
<path opacity="0.11" d="M173.596 167.238C172.637 168.612 171.428 170.598 170.419 173.163C168.78 177.334 168.548 180.843 168.499 182.117C168.35 185.775 168.267 187.91 169.542 190.194C171.164 193.107 174.06 194.547 177.685 196.334C179.538 197.245 181.127 197.84 182.203 198.188C182.203 198.287 182.203 198.999 181.69 199.38C181.127 199.777 180.151 199.628 179.538 198.866C180.333 199.38 180.697 200.075 180.498 200.488C180.333 200.869 179.687 201.068 179.158 200.935C178.131 200.654 178.231 199.214 176.708 197.824C176.36 197.509 176.046 197.294 175.814 197.162C174.838 197.062 173.166 196.731 171.511 195.606C171.213 195.407 170.088 194.596 168.548 192.279C167.572 190.806 166.364 188.969 165.652 186.205C165.42 185.311 164.295 180.545 166.463 175.398C166.678 174.868 167.241 173.643 168.234 172.22C170.088 169.605 172.223 168.066 173.596 167.238Z" fill="#3F3F3F"/>
<path d="M174.656 140.508C172.835 141.799 172.256 143.637 171.13 147.261C169.707 151.829 168.681 155.123 170.435 157.688C172.173 160.204 175.996 161.098 179.952 160.452C180.2 160.551 180.548 160.734 180.796 161.065C181.127 161.511 181.077 161.958 181.177 162.67C181.309 163.613 181.408 164.408 181.872 164.739C182.633 165.302 184.239 164.524 185.165 163.812C186.605 162.72 187.218 161.263 187.466 160.667C190.031 154.328 191.306 151.167 190.611 148.171C190.412 147.327 189.767 144.696 187.466 142.495C184.106 139.317 178.231 137.976 174.656 140.508Z" fill="white"/>
<path d="M172.14 144.299C170.121 148.536 170.849 154.792 174.325 158.135C177.304 160.982 182.335 160.717 185.083 157.705C185.298 157.473 184.95 157.109 184.735 157.357C182.087 160.254 177.254 160.436 174.49 157.605C171.346 154.395 170.667 148.536 172.554 144.563C172.703 144.265 172.272 144.017 172.14 144.299Z" fill="#161616"/>
<path d="M180.531 159.84C180.515 161.561 180.879 163.216 181.59 164.788C181.723 165.086 182.153 164.822 182.021 164.54C181.342 163.051 181.011 161.478 181.028 159.84C181.028 159.525 180.531 159.525 180.531 159.84Z" fill="#161616"/>
<path d="M181.574 164.904C183.229 165.864 185.331 164.391 186.523 163.282C186.754 163.067 186.407 162.72 186.175 162.935C185.182 163.862 183.229 165.302 181.839 164.491C181.541 164.325 181.293 164.755 181.574 164.904Z" fill="#161616"/>
<path d="M174.854 152.872C177.403 154.494 180.846 152.276 182.104 149.992C182.253 149.711 181.822 149.462 181.673 149.744C180.548 151.796 177.42 153.915 175.103 152.442C174.838 152.276 174.59 152.706 174.854 152.872Z" fill="#161616"/>
<path d="M181.077 149.562C181.508 149.777 181.839 150.124 181.971 150.588C182.07 150.886 182.55 150.77 182.451 150.455C182.269 149.876 181.872 149.396 181.326 149.131C181.044 148.999 180.796 149.429 181.077 149.562Z" fill="#161616"/>
<path d="M176.46 143.653C175.847 145.374 175.103 147.046 174.209 148.635C174.06 148.916 174.474 149.165 174.639 148.883C175.549 147.245 176.311 145.54 176.94 143.769C177.039 143.488 176.559 143.355 176.46 143.653Z" fill="#161616"/>
<path d="M174.275 149.082C174.788 149.793 175.599 150.207 176.476 150.141C176.791 150.124 176.791 149.628 176.476 149.645C175.781 149.694 175.119 149.396 174.705 148.834C174.523 148.569 174.093 148.817 174.275 149.082Z" fill="#161616"/>
<path d="M174.225 146.483C174.176 146.103 174.225 145.722 174.374 145.374C174.209 145.374 174.06 145.374 173.894 145.374C174.027 145.821 173.961 146.268 173.712 146.665C173.861 146.682 174.01 146.698 174.159 146.732C174.093 146.417 174.11 146.103 174.209 145.788C174.308 145.49 173.828 145.358 173.729 145.656C173.596 146.053 173.58 146.45 173.679 146.864C173.729 147.079 174.027 147.096 174.126 146.93C174.441 146.434 174.523 145.821 174.358 145.259C174.292 145.01 173.961 145.043 173.878 145.259C173.696 145.705 173.663 146.169 173.729 146.632C173.795 146.93 174.258 146.798 174.225 146.483Z" fill="#161616"/>
<path d="M180.564 145.441C180.399 145.027 180.465 144.597 180.78 144.299C180.647 144.266 180.498 144.232 180.366 144.183C180.482 144.663 180.415 145.126 180.167 145.556C180.316 145.573 180.465 145.59 180.614 145.623C180.548 145.308 180.581 145.027 180.68 144.729C180.78 144.431 180.3 144.299 180.2 144.597C180.068 144.977 180.051 145.358 180.134 145.755C180.184 145.97 180.482 145.987 180.581 145.821C180.895 145.275 180.978 144.663 180.829 144.067C180.78 143.885 180.548 143.835 180.415 143.951C179.985 144.381 179.836 145.027 180.068 145.59C180.217 145.871 180.697 145.739 180.564 145.441Z" fill="#161616"/>
<path d="M173.381 143.852C173.663 143.239 174.441 143.024 174.97 143.421C175.235 143.603 175.483 143.173 175.218 142.991C174.474 142.445 173.315 142.759 172.951 143.603C172.819 143.901 173.249 144.15 173.381 143.852Z" fill="#161616"/>
<path d="M172.223 147.84C172.19 147.874 172.157 147.907 172.123 147.94C172.024 148.039 172.024 148.188 172.123 148.287C172.223 148.387 172.372 148.387 172.471 148.287C172.504 148.254 172.537 148.221 172.57 148.188C172.67 148.089 172.67 147.94 172.57 147.84C172.471 147.741 172.322 147.741 172.223 147.84Z" fill="#161616"/>
<path d="M173.679 147.774C173.679 147.807 173.696 147.84 173.712 147.89C173.712 147.89 173.712 147.89 173.712 147.874C173.696 147.923 173.696 147.956 173.679 148.006C173.563 148.138 173.448 148.138 173.332 148.006C173.315 147.956 173.315 147.923 173.299 147.874V147.89C173.315 147.84 173.315 147.807 173.332 147.758V147.774C173.282 147.89 173.299 148.039 173.414 148.122C173.514 148.188 173.696 148.155 173.762 148.039C173.812 147.923 173.812 147.807 173.729 147.708C173.679 147.658 173.596 147.625 173.514 147.625C173.431 147.625 173.348 147.658 173.299 147.708C173.199 147.807 173.216 147.923 173.265 148.039C173.315 148.155 173.497 148.188 173.613 148.122C173.712 148.039 173.729 147.89 173.679 147.774Z" fill="#161616"/>
<path d="M172.819 149.512H172.885C173.199 149.512 173.199 149.016 172.885 149.016C172.868 149.016 172.835 149.016 172.819 149.016C172.504 149.016 172.504 149.512 172.819 149.512H172.885C173.199 149.512 173.199 149.016 172.885 149.016C172.868 149.016 172.835 149.016 172.819 149.016C172.504 149.016 172.504 149.512 172.819 149.512Z" fill="#161616"/>
<path d="M179.969 147.063C179.969 147.029 179.969 146.996 179.952 146.963C179.935 146.831 179.853 146.715 179.704 146.715C179.588 146.715 179.439 146.831 179.455 146.963C179.455 146.996 179.455 147.029 179.472 147.063C179.489 147.195 179.571 147.311 179.72 147.311C179.836 147.311 179.985 147.212 179.969 147.063Z" fill="#161616"/>
<path d="M181.094 146.798H181.193C181.326 146.798 181.442 146.682 181.442 146.55C181.442 146.417 181.326 146.301 181.193 146.301C181.16 146.301 181.127 146.301 181.094 146.301C180.962 146.301 180.846 146.417 180.846 146.55C180.846 146.682 180.945 146.798 181.094 146.798Z" fill="#161616"/>
<path d="M180.531 147.692V147.791C180.531 147.923 180.647 148.039 180.78 148.039C180.912 148.039 181.028 147.923 181.028 147.791C181.028 147.758 181.028 147.725 181.028 147.692C181.028 147.559 180.912 147.443 180.78 147.443C180.647 147.46 180.531 147.559 180.531 147.692Z" fill="#161616"/>
<path d="M179.505 142.809C180.266 142.445 181.177 142.544 181.839 143.09C182.087 143.289 182.435 142.941 182.186 142.743C181.342 142.048 180.233 141.915 179.257 142.395C178.959 142.528 179.224 142.958 179.505 142.809Z" fill="#161616"/>
<path d="M186.854 145.408C187.052 145.209 187.251 145.027 187.466 144.828L187.863 144.878C188.161 144.944 188.393 145.093 188.608 145.275C189.088 145.689 189.336 146.285 189.386 146.914C189.485 147.956 189.071 149.347 187.814 149.313C187.499 149.313 187.499 149.81 187.814 149.81C189.899 149.86 190.313 147.096 189.518 145.639C189.121 144.894 188.327 144.315 187.449 144.332C186.771 144.348 186.076 144.795 186.357 145.54C186.49 145.821 186.969 145.705 186.854 145.408Z" fill="#161616"/>
<path d="M175.318 137.993C174.987 138.076 173.812 138.373 172.421 139.482C169.426 141.899 168.548 145.705 168.267 146.963C167.721 149.446 168.3 149.529 167.671 151.548C166.811 154.328 165.586 154.593 164.643 157.026C164.328 157.821 162.954 161.362 164.576 164.292C166.231 167.271 170.154 168.132 172.868 167.85C175.996 167.536 179.571 165.484 180.415 162.289C180.647 161.429 180.631 160.634 180.564 160.055C179.786 160.105 178.38 160.105 176.791 159.476C176.377 159.31 174.821 158.648 173.464 157.026C172.306 155.652 171.892 154.312 171.594 153.335C171.312 152.375 170.684 150.191 171.312 147.46C171.892 144.977 173.183 143.405 173.448 143.09C175.053 141.204 176.94 140.426 177.833 140.128C178.628 141.154 179.406 141.915 179.985 142.428C181.243 143.537 182.584 144.712 184.57 145.093C185.314 145.242 185.927 145.242 186.324 145.209C186.423 145.06 186.721 144.679 187.251 144.53C188.128 144.282 188.873 144.944 189.005 145.06C189.518 145.507 189.651 146.07 189.75 146.417C189.816 146.665 190.015 147.509 189.618 148.403C189.518 148.618 189.369 148.933 189.055 149.198C188.459 149.711 187.714 149.678 187.499 149.661C186.887 150.323 186.043 151.415 185.397 152.922C184.338 155.404 184.47 157.589 184.503 158.185C184.619 159.674 184.818 162.422 187.019 164.259C189.783 166.576 193.474 165.566 193.904 165.45C198.174 164.226 199.565 159.873 199.68 159.459C200.856 155.537 198.82 152.094 197.827 150.422C196.453 148.089 195.774 148.354 192.713 144.944C188.227 139.946 188.194 137.728 185.53 136.718C184.106 136.189 181.723 135.907 177.9 137.91C177.337 137.827 176.394 137.744 175.318 137.993Z" fill="#262626"/>
<path d="M180.862 160.353C181.839 160.237 182.865 159.558 183.643 158.979C183.891 158.797 183.643 158.367 183.395 158.549C183.03 158.83 182.633 159.062 182.219 159.277C181.789 159.509 181.342 159.79 180.846 159.856C180.548 159.889 180.548 160.386 180.862 160.353Z" fill="#161616"/>
<path d="M181.011 160.568C181.64 160.469 182.203 160.105 182.749 159.79C183.279 159.476 183.759 159.128 184.189 158.681C184.404 158.45 184.057 158.102 183.841 158.334C183.13 159.095 181.922 159.923 180.879 160.105C180.564 160.154 180.697 160.634 181.011 160.568Z" fill="#161616"/>
<path opacity="0.25" d="M191.273 143.603C192.249 145.242 193.557 147.725 194.599 150.969C195.874 154.924 196.635 157.225 195.377 159.029C194.136 160.816 191.306 161.528 188.939 160.734C186.572 159.939 184.901 157.738 184.752 155.156C184.537 156.099 184.305 157.705 184.669 159.641C184.917 160.916 185.232 162.538 186.605 163.895C188.244 165.517 190.329 165.682 191.091 165.748C191.869 165.815 193.921 165.864 195.973 164.59C198.009 163.332 198.82 161.528 199.151 160.8C200.061 158.747 199.929 156.927 199.846 156C199.631 153.385 198.505 151.564 197.992 150.737C197.777 150.389 197.281 149.628 194.897 147.178C193.424 145.639 192.166 144.414 191.273 143.603Z" fill="#3F3F3F"/>
<path opacity="0.15" d="M164.94 156.53C164.742 157.208 164.444 158.665 165.023 160.254C165.967 162.852 168.913 164.722 171.925 164.275C174.391 163.911 176.46 162.058 177.188 159.542C178.347 159.691 179.505 159.856 180.68 160.005C180.713 160.568 180.68 161.429 180.366 162.405C179.803 164.193 178.678 165.235 178.198 165.666C175.996 167.635 173.348 167.784 172.306 167.834C170.932 167.9 168.697 168.032 166.645 166.51C164.924 165.252 164.278 163.547 164.096 162.951C163.037 159.74 164.676 156.976 164.94 156.53Z" fill="#3F3F3F"/>
<path opacity="0.15" d="M185.546 149.645C184.917 151.895 184.073 154.924 182.137 156.695C181.309 157.456 179.34 158.83 175.235 158.549C175.732 158.896 176.84 159.558 178.413 159.707C179.985 159.856 181.193 159.409 181.739 159.161C182.352 160.998 182.981 162.835 183.593 164.656C184.47 164.16 185.348 163.68 186.225 163.183C185.629 162.256 184.503 160.22 184.437 157.456C184.338 152.922 187.168 149.926 187.764 149.33C187.996 149.297 188.807 149.115 189.32 148.403C189.998 147.443 189.717 146.053 188.939 145.308C188.79 145.159 188.128 144.53 187.466 144.696C186.407 144.928 186.274 146.996 185.546 149.645Z" fill="#3F3F3F"/>
<defs>
<linearGradient id="paint0_linear_604_207" x1="198.5" y1="26" x2="198.5" y2="316" gradientUnits="userSpaceOnUse">
<stop offset="0.18" stop-color="#55D1A4"/>
<stop offset="0.346" stop-color="#14C67B"/>
<stop offset="1" stop-color="#4CBC42"/>
</linearGradient>
</defs>
</svg>

