<svg width="26" height="22" viewBox="0 0 30 22" fill="none" xmlns="http://www.w3.org/2000/svg">
<path d="M1.5 12.3697H24.879L16.9395 19.6445C16.7976 19.7716 16.6847 19.9232 16.6073 20.0906C16.5298 20.2579 16.4894 20.4377 16.4883 20.6195C16.4872 20.8013 16.5255 20.9815 16.6009 21.1496C16.6763 21.3177 16.7874 21.4705 16.9277 21.599C17.068 21.7276 17.2348 21.8293 17.4183 21.8984C17.6018 21.9675 17.7984 22.0025 17.9968 22.0015C18.1952 22.0004 18.3914 21.9634 18.574 21.8924C18.7567 21.8214 18.9221 21.7179 19.0608 21.5879L29.5608 11.967C29.842 11.7093 30 11.3598 30 10.9953C30 10.6309 29.842 10.2813 29.5608 10.0236L19.0608 0.402704C18.9217 0.274861 18.7563 0.173472 18.5743 0.104364C18.3922 0.035255 18.197 -0.000211979 18 9.53111e-07C17.7033 5.89868e-05 17.4134 0.0806981 17.1668 0.231725C16.9202 0.382751 16.728 0.597384 16.6145 0.848489C16.5009 1.09959 16.4712 1.3759 16.5291 1.64247C16.5869 1.90904 16.7298 2.15391 16.9395 2.34612L24.879 9.62089H1.5C1.10217 9.62089 0.720643 9.7657 0.439339 10.0235C0.158035 10.2812 0 10.6308 0 10.9953C0 11.3598 0.158035 11.7094 0.439339 11.9672C0.720643 12.2249 1.10217 12.3697 1.5 12.3697Z" fill="black"/>
</svg>
