<svg width="100" height="100" viewBox="0 0 24 27" fill="none" xmlns="http://www.w3.org/2000/svg">
<path d="M12 12C13.5913 12 15.1174 11.3679 16.2426 10.2426C17.3679 9.11742 18 7.5913 18 6C18 4.4087 17.3679 2.88258 16.2426 1.75736C15.1174 0.632141 13.5913 0 12 0C10.4087 0 8.88258 0.632141 7.75736 1.75736C6.63214 2.88258 6 4.4087 6 6C6 7.5913 6.63214 9.11742 7.75736 10.2426C8.88258 11.3679 10.4087 12 12 12ZM12 15C9.67102 14.9982 7.37371 15.5397 5.29061 16.5812C3.2075 17.6228 1.39599 19.1358 0 21C1.39599 22.8642 3.2075 24.3772 5.29061 25.4188C7.37371 26.4603 9.67102 27.0017 12 27C14.329 27.0017 16.6263 26.4603 18.7094 25.4188C20.7925 24.3772 22.604 22.8642 24 21C22.604 19.1358 20.7925 17.6228 18.7094 16.5812C16.6263 15.5397 14.329 14.9982 12 15Z" fill="black"/>
</svg>
