<svg width="254" height="245" viewBox="0 0 254 245" fill="none" xmlns="http://www.w3.org/2000/svg">
<path d="M87.0043 111.609C110.096 111.609 128.815 93.0134 128.815 70.0741C128.815 47.1349 110.096 28.5389 87.0043 28.5389C63.9132 28.5389 45.1938 47.1349 45.1938 70.0741C45.1938 93.0134 63.9132 111.609 87.0043 111.609Z" fill="#203752"/>
<path d="M87.0052 101.612C104.537 101.612 118.75 87.4919 118.75 70.0735C118.75 52.655 104.537 38.5345 87.0052 38.5345C69.4725 38.5345 55.2598 52.655 55.2598 70.0735C55.2598 87.4919 69.4725 101.612 87.0052 101.612Z" fill="#1B81A6"/>
<path d="M87.0042 91.4005C98.8626 91.4005 108.476 81.852 108.476 70.0734C108.476 58.2946 98.8626 48.746 87.0042 48.746C75.1465 48.746 65.5337 58.2946 65.5337 70.0734C65.5337 81.852 75.1465 91.4005 87.0042 91.4005Z" fill="#203752"/>
<path d="M87.0051 82.2808C93.792 82.2808 99.2937 76.8153 99.2937 70.0737C99.2937 63.3319 93.792 57.8667 87.0051 57.8667C80.2184 57.8667 74.7168 63.3319 74.7168 70.0737C74.7168 76.8153 80.2184 82.2808 87.0051 82.2808Z" fill="#1B81A6"/>
<path d="M87.0044 75.0362C89.7637 75.0362 92.0005 72.8146 92.0005 70.074C92.0005 67.3335 89.7637 65.1118 87.0044 65.1118C84.2457 65.1118 82.009 67.3335 82.009 70.074C82.009 72.8146 84.2457 75.0362 87.0044 75.0362Z" fill="#203752"/>
<path d="M161.727 60.4266C156.627 63.6279 151.17 66.2932 145.474 68.3556C143.803 68.9633 142.082 69.528 140.647 70.552C139.214 71.576 138.073 73.1599 138.113 74.8778C138.132 75.7822 138.47 76.6483 138.803 77.4905C139.735 79.864 140.672 82.2326 141.605 84.6058C117.401 98.6795 91.8862 110.709 65.415 120.265C64.016 115.456 62.0714 111.805 59.7099 108.426C58.6086 106.852 57.16 105.196 55.1955 105.081C54.0544 105.014 52.9581 105.493 51.9411 105.996C46.5932 108.637 41.7861 112.178 36.6167 115.13C31.4474 118.083 25.7027 120.48 19.4072 121.074C23.4901 124.892 28.7834 127.5 34.3843 128.448C31.9336 132.563 29.1555 136.491 26.0797 140.196C36.3737 138.932 46.0623 136.233 55.4485 132.409C57.7702 137.568 60.841 139.664 65.2761 140.396C69.7161 141.128 74.2355 140.004 78.5515 138.76C104.487 131.3 128.99 119.217 150.436 103.297C155.426 99.5933 160.437 95.4446 162.768 89.8023C164.678 85.18 164.579 80.0362 164.351 75.0644C164.137 70.2984 163.805 65.408 161.727 60.4266Z" fill="url(#paint0_linear_253_169)"/>
<path d="M186.298 128.166C184.785 130.324 181.506 130.185 178.837 129.778C173.464 128.97 168.106 128.066 162.768 127.065C161.508 126.831 160.129 126.515 159.371 125.515C158.76 124.711 158.7 123.648 158.665 122.653C158.472 117.275 158.278 111.891 158.095 106.513C158.026 104.68 157.961 102.853 157.896 101.019C165.308 97.8709 173.941 96.3968 182.637 95.8848C183.103 95.8562 183.624 95.8464 183.992 96.129C184.393 96.4401 184.467 96.9954 184.517 97.4879C185.018 102.823 185.519 108.154 186.02 113.485C186.333 116.835 186.65 120.184 186.963 123.539C187.106 125.127 187.216 126.85 186.298 128.166Z" fill="#FFC5A6"/>
<path d="M186.015 113.49C185.891 113.513 185.777 113.528 185.653 113.547C177.998 114.6 165.874 114.284 158.03 104.9C157.961 103.067 157.956 102.852 157.892 101.024C165.303 97.8759 173.935 96.4018 182.632 95.8898C183.099 95.8612 183.619 95.8514 183.986 96.134C184.388 96.4451 184.463 96.9996 184.512 97.4929C185.013 102.823 185.514 108.154 186.015 113.49Z" fill="#FF9F6B"/>
<path d="M151.467 80.654C149.642 81.1564 148.382 82.7496 147.469 84.3527C147.057 85.0706 146.685 85.8268 146.531 86.6353C146.03 89.296 148.113 91.9134 150.679 93.0143C153.243 94.1143 156.16 94.0522 158.963 93.9232C168.369 93.4879 177.75 92.5112 187.037 91.0045C188.262 90.8085 189.503 90.5929 190.614 90.0612C193.854 88.5161 195.198 84.1951 193.521 81.1133C192.325 78.917 189.945 77.4958 187.459 76.8546C184.973 76.2134 182.359 76.2469 179.789 76.3234C170.234 76.5866 160.813 78.0939 151.467 80.654Z" fill="#FF9F6B"/>
<path d="M151.805 78.1755C151.522 82.908 151.671 87.6691 152.256 92.378C152.792 96.7129 153.873 101.321 157.227 104.255C158.224 105.125 159.38 105.81 160.58 106.389C167.853 109.891 177.031 109.384 183.838 105.102C184.567 104.642 185.271 104.145 185.892 103.556C187.791 101.762 188.818 99.2495 189.225 96.7129C189.632 94.1771 189.473 91.5981 189.315 89.0379C189.061 84.9896 188.808 80.9413 188.312 76.9171C188.183 75.8691 188.029 74.7972 187.499 73.8737C186.646 72.3855 184.974 71.5385 183.352 70.8781C178.921 69.0694 174.07 68.0214 169.288 68.543C166.93 68.7966 164.639 69.4282 162.357 70.0504C160.785 70.481 159.197 70.9213 157.797 71.7347C156.23 72.6438 154.98 73.9789 153.755 75.2901C152.955 76.1418 151.874 77.0414 151.805 78.1755Z" fill="#FFC5A6"/>
<path d="M189.131 86.2139C188.744 85.7786 188.536 85.2281 188.347 84.6826C187.077 81.0218 186.273 77.2128 185.956 73.3656C183.336 75.2557 180.112 76.5333 176.788 77.1649C173.464 77.7966 170.031 77.8014 166.663 77.4425C165.532 77.3229 164.396 77.1602 163.314 76.8108C161.404 76.1888 159.747 75.0021 158.224 73.7197C157.792 79.1269 155.436 84.4621 151.72 88.7071C148.675 86.9987 147.052 83.625 146.333 80.2992C145.529 76.5907 145.644 72.6669 146.919 69.0829C148.193 65.4988 150.663 62.2783 153.993 60.2638C155.342 59.4456 156.895 58.8139 158.517 59.1728C160.353 56.0194 164.168 54.5216 167.774 53.5263C171.961 52.3731 185.51 51.3347 192.4 60.3882C195.704 64.7283 195.049 71.0878 194.315 74.6049C193.447 78.7776 191.934 82.9456 189.131 86.2139Z" fill="#203752"/>
<path d="M158.814 80.2954C161.662 79.1613 164.872 79.0704 167.799 79.9748C168.409 80.1614 168.662 79.2379 168.056 79.0513C164.862 78.0655 161.414 78.2378 158.318 79.4675C157.733 79.702 158.234 80.525 158.814 80.2954Z" fill="#203752"/>
<path d="M174.009 80.0751C177.051 79.0797 180.34 79.1085 183.361 80.1564C183.961 80.367 184.214 79.4387 183.619 79.2329C180.454 78.1323 176.947 78.1036 173.761 79.1515C173.161 79.3478 173.404 80.2761 174.009 80.0751Z" fill="#203752"/>
<path d="M162.942 83.3531C162.912 83.358 162.883 83.3621 162.852 83.3719C162.788 83.3956 162.713 83.4201 162.654 83.4585C162.525 83.5344 162.436 83.6259 162.352 83.7451C162.331 83.7688 162.317 83.7982 162.307 83.8219C162.277 83.884 162.248 83.946 162.232 84.013C162.203 84.1518 162.203 84.2809 162.232 84.4148C162.287 84.65 162.456 84.8509 162.664 84.975C162.883 85.1041 163.17 85.1237 163.414 85.0567C163.865 84.9268 164.226 84.5397 164.231 84.075C164.236 83.8358 164.127 83.6014 163.954 83.434C163.79 83.2764 163.547 83.171 163.309 83.1898C163.14 83.2045 162.996 83.2527 162.862 83.3531C162.768 83.425 162.684 83.5107 162.63 83.6161C162.569 83.7312 162.525 83.8652 162.53 83.9942C162.53 84.0563 162.54 84.1281 162.56 84.1902C162.58 84.2523 162.609 84.3241 162.649 84.3772C162.679 84.4344 162.723 84.4818 162.783 84.5152C162.833 84.5585 162.887 84.5871 162.952 84.6018C163.071 84.6304 163.225 84.6165 163.329 84.5536C163.438 84.4866 163.532 84.3862 163.562 84.2621C163.587 84.1469 163.591 83.9991 163.513 83.8986C163.497 83.879 163.487 83.8603 163.478 83.8407C163.492 83.8791 163.513 83.9223 163.527 83.9607C163.522 83.9411 163.518 83.9272 163.513 83.9076C163.518 83.9509 163.522 83.9893 163.527 84.0326C163.522 84.004 163.522 83.9795 163.527 83.9558C163.522 83.9942 163.518 84.0375 163.513 84.075C163.518 84.0465 163.522 84.0228 163.537 83.9991C163.522 84.0375 163.508 84.075 163.487 84.1134C163.502 84.0848 163.518 84.0563 163.537 84.0326C163.513 84.0661 163.487 84.0995 163.458 84.133C163.478 84.1085 163.497 84.0897 163.518 84.075C163.483 84.0995 163.448 84.1281 163.414 84.1518C163.438 84.1379 163.458 84.1232 163.487 84.1085C163.448 84.1232 163.403 84.142 163.364 84.1567C163.388 84.1469 163.408 84.142 163.433 84.1379C163.388 84.142 163.348 84.1469 163.304 84.1518C163.334 84.1469 163.358 84.1469 163.388 84.1518C163.348 84.1469 163.304 84.142 163.265 84.1379C163.294 84.142 163.319 84.1469 163.344 84.1567C163.304 84.142 163.265 84.1281 163.225 84.1085C163.254 84.1232 163.284 84.1379 163.309 84.1567C163.274 84.133 163.239 84.1085 163.204 84.08C163.239 84.1045 163.27 84.133 163.294 84.1665C163.27 84.133 163.239 84.0996 163.215 84.0661C163.239 84.0947 163.254 84.1281 163.274 84.1616C163.259 84.1232 163.239 84.0799 163.225 84.0416C163.239 84.075 163.249 84.1134 163.254 84.1469C163.249 84.1045 163.244 84.0661 163.239 84.0228C163.244 84.0563 163.244 84.0897 163.239 84.1232C163.244 84.0848 163.249 84.0416 163.254 84.004C163.249 84.0465 163.235 84.0849 163.22 84.1281C163.235 84.0898 163.249 84.0514 163.27 84.013C163.249 84.0563 163.225 84.0996 163.195 84.1379C163.22 84.1045 163.244 84.071 163.274 84.0375C163.239 84.08 163.2 84.1183 163.155 84.1518C163.19 84.1281 163.225 84.0995 163.259 84.075C163.209 84.1134 163.155 84.142 163.1 84.1665C163.14 84.1518 163.185 84.133 163.225 84.1183C163.175 84.1379 163.126 84.1518 163.071 84.1567C163.116 84.1518 163.155 84.1469 163.2 84.142C163.16 84.1469 163.121 84.1469 163.081 84.142C163.121 84.1469 163.165 84.1518 163.204 84.1567C163.165 84.1518 163.131 84.142 163.091 84.1281C163.131 84.142 163.17 84.1567 163.209 84.1755C163.18 84.1616 163.15 84.1469 163.121 84.1281C163.155 84.1518 163.19 84.1755 163.225 84.2049C163.195 84.1804 163.165 84.1567 163.145 84.1281C163.17 84.1616 163.2 84.1951 163.225 84.2286C163.2 84.2 163.18 84.1665 163.165 84.133C163.18 84.1714 163.2 84.2139 163.215 84.2523C163.2 84.2188 163.19 84.1804 163.185 84.1469C163.19 84.1902 163.195 84.2286 163.2 84.2719C163.195 84.2384 163.195 84.209 163.2 84.1755C163.195 84.2139 163.19 84.2572 163.185 84.2955C163.19 84.2621 163.2 84.2335 163.209 84.2C163.195 84.2384 163.18 84.2768 163.16 84.3143C163.175 84.2858 163.19 84.2572 163.209 84.2286C163.185 84.2621 163.16 84.2955 163.131 84.329C163.155 84.2955 163.185 84.267 163.22 84.2384C163.185 84.2621 163.15 84.2907 163.116 84.3143C163.145 84.2907 163.18 84.2768 163.215 84.2621C163.175 84.2768 163.131 84.2956 163.091 84.3103C163.121 84.3005 163.155 84.2906 163.19 84.2857C163.309 84.2719 163.438 84.1567 163.497 84.0612C163.557 83.9607 163.582 83.817 163.547 83.7018C163.508 83.5826 163.433 83.4674 163.314 83.4054C163.274 83.3915 163.235 83.3768 163.195 83.358C163.116 83.3286 163.031 83.3286 162.942 83.3531Z" fill="#203752"/>
<path d="M178.723 82.8982C178.654 82.9129 178.588 82.9276 178.524 82.9513C178.455 82.975 178.385 83.0036 178.321 83.0371C178.256 83.0705 178.201 83.1187 178.142 83.162C178.063 83.2241 177.993 83.3049 177.949 83.3915C177.889 83.5107 177.845 83.6447 177.854 83.7835C177.859 83.8464 177.864 83.9223 177.889 83.9844C177.914 84.0473 177.939 84.1191 177.979 84.1763C178.063 84.3004 178.152 84.387 178.281 84.4728C178.311 84.4924 178.336 84.5062 178.366 84.516C178.43 84.5446 178.494 84.5732 178.564 84.583C178.708 84.6067 178.847 84.6116 178.991 84.5732C179.09 84.5446 179.199 84.5013 179.283 84.4393C179.343 84.396 179.402 84.3576 179.452 84.3053C179.506 84.2531 179.551 84.1902 179.591 84.133C179.655 84.0473 179.695 83.9509 179.73 83.8505C179.74 83.8219 179.75 83.7933 179.754 83.7598C179.764 83.6879 179.78 83.6161 179.78 83.5442C179.775 83.4013 179.745 83.2625 179.67 83.1375C179.636 83.0803 179.591 83.0232 179.541 82.975C179.492 82.9317 179.432 82.8843 179.367 82.8558C179.254 82.8076 179.189 82.7888 179.065 82.779C178.996 82.7741 178.921 82.7839 178.857 82.7978C178.807 82.8076 178.762 82.8264 178.718 82.846C178.668 82.8647 178.619 82.8843 178.574 82.9129C178.444 82.9987 178.34 83.095 178.262 83.2241C178.187 83.3531 178.157 83.487 178.142 83.6308C178.132 83.7549 178.162 83.875 178.212 83.9844C178.276 84.1379 178.385 84.2621 178.534 84.3437C178.643 84.4009 178.782 84.4205 178.906 84.3911C179.025 84.3625 179.154 84.2719 179.214 84.1665C179.273 84.0563 179.303 83.9272 179.263 83.808C179.223 83.683 179.15 83.5777 179.03 83.5107C179.015 83.5066 179.006 83.4968 178.991 83.487C179.025 83.5107 179.06 83.5352 179.095 83.5638C179.079 83.554 179.07 83.5401 179.055 83.5254C179.079 83.5589 179.11 83.5924 179.134 83.6259C179.119 83.6071 179.105 83.5875 179.095 83.5638C179.11 83.6022 179.129 83.6447 179.145 83.683C179.129 83.6545 179.124 83.621 179.119 83.5875C179.124 83.6308 179.129 83.6692 179.134 83.7116C179.129 83.6781 179.129 83.6447 179.134 83.6112C179.129 83.6496 179.124 83.6928 179.119 83.7312C179.124 83.6928 179.134 83.6594 179.15 83.621C179.134 83.6594 179.119 83.6977 179.1 83.7361C179.115 83.7026 179.129 83.6741 179.154 83.6496C179.129 83.683 179.105 83.7165 179.075 83.75C179.1 83.7214 179.129 83.6928 179.159 83.6692C179.124 83.6928 179.09 83.7214 179.055 83.7451C179.084 83.7263 179.114 83.7075 179.145 83.6928C179.105 83.7075 179.06 83.7263 179.02 83.741C179.05 83.7312 179.075 83.7214 179.11 83.7165C179.065 83.7214 179.025 83.7263 178.98 83.7312C179.006 83.7263 179.03 83.7263 179.055 83.7312C179.015 83.7263 178.971 83.7214 178.931 83.7165C178.951 83.7214 178.966 83.7263 178.985 83.7312C178.946 83.7165 178.906 83.7026 178.867 83.683C178.886 83.6928 178.906 83.7026 178.926 83.7165C178.891 83.6928 178.857 83.6692 178.822 83.6406C178.836 83.6545 178.852 83.6692 178.867 83.683C178.842 83.6496 178.812 83.6161 178.787 83.5826C178.802 83.6022 178.812 83.621 178.822 83.6447C178.807 83.6071 178.787 83.5638 178.772 83.5254C178.782 83.554 178.792 83.5875 178.797 83.621C178.792 83.5777 178.787 83.5401 178.782 83.4968C178.787 83.5352 178.787 83.5736 178.782 83.6071C178.787 83.5687 178.792 83.5254 178.797 83.487C178.792 83.5352 178.777 83.5826 178.758 83.6308C178.772 83.5924 178.787 83.554 178.807 83.5156C178.782 83.5687 178.758 83.6112 178.723 83.6594C178.748 83.6259 178.772 83.5924 178.802 83.5589C178.767 83.6022 178.727 83.6406 178.683 83.6741C178.718 83.6496 178.753 83.621 178.787 83.5973C178.748 83.6259 178.708 83.6447 178.668 83.6643C178.708 83.6496 178.753 83.6308 178.792 83.6161C178.758 83.6308 178.718 83.6406 178.683 83.6447C178.727 83.6406 178.767 83.6357 178.812 83.6308C178.777 83.6357 178.748 83.6357 178.713 83.6308C178.753 83.6357 178.797 83.6406 178.836 83.6447C178.802 83.6406 178.772 83.6308 178.742 83.621C178.782 83.6357 178.822 83.6496 178.862 83.6692C178.827 83.6545 178.797 83.6357 178.767 83.6161C178.802 83.6406 178.836 83.6643 178.871 83.6928C178.836 83.6692 178.812 83.6406 178.782 83.6112C178.807 83.6447 178.836 83.6781 178.862 83.7116C178.841 83.683 178.822 83.6545 178.807 83.621C178.822 83.6594 178.841 83.7026 178.857 83.741C178.847 83.7116 178.836 83.683 178.832 83.6545C178.836 83.6977 178.842 83.7361 178.847 83.7786C178.847 83.7549 178.847 83.7361 178.847 83.7116C178.842 83.75 178.836 83.7933 178.832 83.8317C178.836 83.8031 178.841 83.7786 178.857 83.7549C178.841 83.7933 178.827 83.8317 178.807 83.8701C178.817 83.8464 178.832 83.8219 178.852 83.7982C178.827 83.8317 178.802 83.8652 178.772 83.8986C178.797 83.8701 178.822 83.8464 178.847 83.8268C178.812 83.8505 178.777 83.8799 178.742 83.9035C178.787 83.8701 178.832 83.8464 178.886 83.8268C178.847 83.8415 178.802 83.8603 178.762 83.875C178.832 83.8505 178.902 83.8317 178.971 83.817C179.095 83.7933 179.219 83.6928 179.278 83.5924C179.338 83.4919 179.362 83.3482 179.327 83.2339C179.289 83.1138 179.214 82.9987 179.095 82.9366C178.975 82.8843 178.857 82.8745 178.723 82.8982Z" fill="#203752"/>
<path d="M166.425 98.1054C170.508 99.6277 175.171 97.9813 177.319 94.3259C177.632 93.7893 176.773 93.3157 176.456 93.8514C174.507 97.163 170.354 98.5505 166.677 97.1826C166.087 96.9572 165.834 97.8857 166.425 98.1054Z" fill="#203752"/>
<path d="M156.632 115.748C156.632 115.748 125.919 110.805 114.96 145.626L108.774 172.777L87.0053 168.155C87.0053 168.155 83.7806 171.778 81.7019 180.592C81.7019 180.592 102.002 195.004 111.14 196.837C120.278 198.675 131.029 191.239 136.297 179.381C136.297 179.381 135.811 204.858 140.33 207.58C144.855 210.303 173.733 210.054 189.677 209.049C189.677 209.049 205.929 216.591 214.645 214.064C223.362 211.537 230.793 190.837 233.879 173.893C236.964 156.949 231.408 117.471 189.568 117.471L172.427 120.725L156.632 115.748Z" fill="url(#paint1_linear_253_169)"/>
<path d="M165.289 125.85L169.198 130.864L161.895 198.45L170.969 205.144L180.722 199.546L174.828 131.108L179.541 126.931L172.382 120.863L165.289 125.85Z" fill="#1B81A6"/>
<path d="M157.892 111.575L153.76 117.045L164.153 129.425L172.571 121.466L178.673 130.108L192.018 117.719L186.591 111.853L172.606 119.931L157.892 111.575Z" fill="#31DECD"/>
<path d="M167.66 177.142C164.887 174.534 163.354 170.979 161.628 167.639C161.514 167.418 161.385 167.184 161.166 167.055C160.65 166.754 160.02 167.179 159.603 167.6C158.8 168.419 158.085 169.314 157.475 170.275C157.197 170.711 156.94 171.17 156.865 171.677C156.721 172.654 157.282 173.587 157.858 174.395C159.767 177.084 162.084 179.487 164.54 181.731C165.249 182.382 165.993 183.033 166.901 183.382C167.809 183.736 168.925 183.741 169.689 183.157C170.671 182.411 170.766 180.937 170.24 179.841C169.714 178.745 168.613 178.042 167.66 177.142Z" fill="#FFC5A6"/>
<path d="M74.27 167.079C73.5804 168.739 73.4366 170.605 73.8681 172.347C74.1063 173.319 74.5379 174.266 75.2522 174.984C75.9716 175.702 77.0035 176.166 78.0353 176.06C78.4918 176.012 78.9283 175.864 79.345 175.677C79.8213 175.462 80.2826 175.195 80.6051 174.792C81.0963 174.175 81.1806 173.314 80.9573 172.562C80.7341 171.811 80.2429 171.16 79.6823 170.601C78.1941 169.122 76.2196 168.198 74.27 167.079Z" fill="#FFC5A6"/>
<path d="M138.951 151.12C138.951 151.12 148.803 150.68 157.981 150.646C164.311 150.623 168.597 156.867 166.082 162.471C164.048 167.002 161.082 172.074 156.899 176.108C146.942 185.712 136.733 180.473 135.914 186.047C135.096 191.622 143.51 185.176 141.645 190.722C139.779 196.268 127.218 193.57 131.346 182.831C135.473 172.094 146.229 180.506 155.362 168.17C163.795 156.771 157.812 155.178 138.41 157.178C118.492 159.231 138.951 151.12 138.951 151.12Z" fill="#FF9F6B"/>
<path d="M124.117 191.659H114.503V209.647H124.117V191.659Z" fill="#FFC5A6"/>
<path d="M135.756 215.614C134.328 211.308 132.755 207.795 130.527 204.56C123.27 203.938 116.031 204.092 108.843 204.785C106.705 208.599 105.842 211.867 104.666 215.959C111.696 216.715 125.834 216.624 135.756 215.614Z" fill="#FF9F6B"/>
<path d="M129.748 182.918C129.917 186.305 129.62 189.712 128.855 193.024C122.411 193.373 116.071 193.445 109.751 193.148C108.863 189.736 108.327 186.506 108.278 183.65C115.357 182.415 122.624 182.175 129.748 182.918Z" fill="#FF9F6B"/>
<path d="M99.1194 150.967C99.1194 150.967 89.2676 150.526 80.0896 150.493C73.7594 150.469 69.4732 156.714 71.9884 162.317C74.0224 166.849 76.989 171.921 81.171 175.955C91.1277 185.559 101.338 180.319 102.156 185.894C102.974 191.468 94.5609 185.023 96.4261 190.569C98.2913 196.115 110.852 193.416 106.725 182.679C102.597 171.94 91.8423 180.353 82.7089 168.016C74.2754 156.618 80.2583 155.025 99.6604 157.025C119.574 159.078 99.1194 150.967 99.1194 150.967Z" fill="#FF9F6B"/>
<path d="M93.583 143.612C91.7576 143.923 90.5722 145.626 90.9439 147.378C92.0556 152.565 94.665 163.288 99.0059 173.155C105.013 186.808 111.973 187.119 118.696 187.119H119.246C125.968 187.119 133.053 186.96 139.06 173.309C143.401 163.442 146.01 152.713 147.122 147.526C147.499 145.77 146.318 144.076 144.488 143.76C137.403 142.54 129.084 141.64 123.865 141.138C120.462 140.808 117.034 140.798 113.63 141.114C108.545 141.583 100.538 142.425 93.583 143.612Z" fill="#FFC5A6"/>
<path d="M134.809 159.484C134.828 163.231 134.63 166.878 133.777 171.146C129.972 171.868 126.062 171.892 122.182 171.912C116.637 171.935 111.09 171.959 105.544 171.801C105.375 171.796 105.197 171.787 105.058 171.701C104.909 171.605 104.824 171.438 104.755 171.28C103.073 167.5 102.349 163.327 102.662 159.226C112.931 159.451 124.301 159.087 134.809 159.484Z" fill="#FF9F6B"/>
<path d="M74.0715 171.634C74.1162 172.888 74.7165 174.079 75.5648 175.026C76.4132 175.974 77.5045 176.696 78.6456 177.299C79.6923 177.855 80.8532 178.333 82.0438 178.238C82.788 178.175 83.4924 177.898 84.1472 177.553C85.8343 176.668 87.2728 175.338 88.26 173.749C88.845 172.801 89.287 171.734 89.2768 170.634C89.2667 168.466 87.3871 166.523 85.179 166.121C82.9715 165.72 80.625 166.739 79.2459 168.447C78.6158 169.231 78.1594 170.15 77.4004 170.821C76.5124 171.624 75.2176 171.992 74.0715 171.634Z" fill="#FFC5A6"/>
<path d="M170.091 177.926C166.186 176.534 162.58 174.371 159.564 171.609C158.715 170.834 157.907 170.011 156.93 169.399C155.952 168.786 154.752 168.404 153.611 168.638C152.742 168.815 151.984 169.323 151.333 169.906C150.282 170.849 149.438 172.007 148.873 173.28C148.545 174.031 148.307 174.839 148.392 175.653C148.496 176.634 149.057 177.515 149.657 178.313C151.973 181.371 155.164 183.797 158.785 185.262C160.69 186.032 162.768 186.573 164.286 187.922C165.884 185.707 167.273 183.357 168.429 180.902C168.9 179.903 169.352 178.869 170.091 177.926Z" fill="#FFC5A6"/>
<path d="M168.714 175C168.714 175 163.37 180.608 159 189.484C159 189.484 176.452 204.778 189.426 207.792C202.398 210.808 208.039 189.643 208.039 189.643C208.039 189.643 178.527 179.862 168.714 175Z" fill="#24BF59"/>
<path d="M55.4778 106.398C56.4303 106.656 56.3261 107.776 56.0037 108.465C55.6614 109.188 55.1256 109.843 54.6196 110.465C53.7068 111.58 52.7146 112.642 51.9158 113.838C51.0874 115.087 50.5715 116.461 50.4822 117.949C50.3829 119.6 50.7501 121.251 51.1817 122.84C52.0697 126.075 53.3 129.223 54.8031 132.233C56.1228 134.879 57.5267 137.741 60.1659 139.382C61.9419 140.487 63.9709 140.842 66.0397 140.984C66.6796 141.028 66.6796 140.071 66.0446 140.028C64.2438 139.903 62.4926 139.617 60.92 138.707C58.2311 137.162 56.857 134.176 55.5622 131.558C54.0441 128.491 52.8088 125.27 51.9704 121.964C51.5438 120.289 51.2312 118.499 51.638 116.791C51.9903 115.322 52.8783 114.068 53.8357 112.906C54.8776 111.642 56.1377 110.413 56.857 108.943C57.4672 107.69 57.3381 105.914 55.7258 105.479C55.1156 105.307 54.8577 106.23 55.4778 106.398Z" fill="#203752"/>
<path d="M52.7895 115.155C52.2687 117.031 53.3402 118.845 54.9525 119.864C56.7881 121.022 59.1941 121.328 61.3422 121.256C66.1345 121.103 70.7631 119.126 75.1386 117.414C77.758 116.385 80.3575 115.304 82.9421 114.203C83.5275 113.954 83.0265 113.126 82.4461 113.375C78.3186 115.126 74.1712 116.844 69.9395 118.342C66.0154 119.73 61.6299 121.017 57.4578 119.887C55.4239 119.337 53.0971 117.744 53.742 115.404C53.9108 114.805 52.9533 114.557 52.7895 115.155Z" fill="#203752"/>
<path d="M138.197 72.9159C137.363 74.5907 138.013 76.7584 139.755 77.6293C140.791 78.1508 142.022 78.2322 143.173 78.2657C144.492 78.3039 145.807 78.1939 147.102 77.9642C147.731 77.8542 147.479 76.9259 146.853 77.0359C145.797 77.2225 144.731 77.3182 143.654 77.3135C142.651 77.3087 141.591 77.2799 140.638 76.9594C139.164 76.4569 138.366 74.7773 139.06 73.3896C139.338 72.8393 138.475 72.3608 138.197 72.9159Z" fill="#203752"/>
<path d="M129.927 91.4586C136.584 87.8693 143.148 84.1184 149.612 80.2086C150.153 79.8831 149.657 79.0505 149.116 79.3807C142.651 83.2854 136.088 87.0371 129.431 90.6305C128.87 90.9318 129.366 91.7599 129.927 91.4586Z" fill="#203752"/>
<path d="M84.8614 119.275C81.9644 119.825 79.4592 121.984 79.1267 124.893C78.8142 127.659 80.9474 131.095 84.2167 130.492C86.1018 130.142 87.3125 128.573 88.3539 127.162C88.7213 126.659 87.8577 126.19 87.4911 126.688C86.5386 127.984 85.2737 129.669 83.4179 129.607C81.7561 129.549 80.5555 128.061 80.2082 126.606C79.4542 123.448 82.0388 120.783 85.1095 120.204C85.7394 120.084 85.4871 119.161 84.8614 119.275Z" fill="#203752"/>
<path d="M85.3676 125.567C85.7444 125.353 86.122 125.142 86.4988 124.926C86.6723 124.826 86.8459 124.73 87.0195 124.63C87.1092 124.582 87.193 124.529 87.2828 124.481C87.3421 124.448 87.3971 124.414 87.4563 124.381C87.5309 124.328 87.5452 124.324 87.5105 124.366C87.4318 124.347 87.3471 124.324 87.2675 124.304C87.243 124.295 87.3277 124.424 87.337 124.438C87.3818 124.524 87.4267 124.615 87.4758 124.702C87.585 124.908 87.6892 125.113 87.7984 125.319C88.0219 125.745 88.2404 126.17 88.463 126.596C88.8999 127.433 89.3317 128.271 89.7677 129.108C90.0556 129.659 90.9141 129.18 90.6263 128.63C89.9168 127.266 89.2073 125.897 88.4977 124.534C88.3445 124.237 88.215 123.859 87.972 123.616C87.6697 123.313 87.2582 123.395 86.9255 123.582C86.2405 123.964 85.5666 124.357 84.8867 124.74C84.321 125.05 84.8173 125.879 85.3676 125.567Z" fill="#203752"/>
<path d="M94.6996 116.012C93.1163 117.045 92.4424 118.983 92.8683 120.758C93.0867 121.677 93.5828 122.52 94.2229 123.228C94.8478 123.916 95.7114 124.639 96.6537 124.859C98.5934 125.313 100.25 123.308 100.802 121.749C101.367 120.141 101.069 118.299 99.8236 117.059C98.4944 115.739 96.3862 115.265 94.6344 116.04C94.0544 116.298 94.5557 117.126 95.1306 116.868C96.3015 116.346 97.7307 116.638 98.7272 117.389C99.8042 118.203 100.266 119.504 100.032 120.796C99.9083 121.476 99.6255 122.127 99.1988 122.682C98.7873 123.218 98.132 123.835 97.4225 123.954C96.6088 124.093 95.8054 123.419 95.2652 122.907C94.7242 122.4 94.2729 121.782 94.0045 121.103C93.4245 119.625 93.7767 117.767 95.1907 116.844C95.7215 116.499 95.2305 115.667 94.6996 116.012Z" fill="#203752"/>
<path d="M107.136 119.945C107.121 116.949 107.102 113.959 107.086 110.963C106.838 111.102 106.59 111.241 106.342 111.375C107.642 112.164 108.56 113.471 109.517 114.6C110.604 115.887 111.696 117.17 112.782 118.457C113.183 118.93 113.878 118.246 113.476 117.777C112.35 116.447 111.224 115.117 110.093 113.786C109.106 112.623 108.173 111.361 106.833 110.546C106.516 110.355 106.089 110.609 106.089 110.958C106.104 113.954 106.124 116.944 106.139 119.94C106.149 120.557 107.142 120.562 107.136 119.945Z" fill="#203752"/>
<path d="M107.091 116.93C108.178 116.245 109.27 115.557 110.356 114.872C110.575 114.734 110.688 114.446 110.54 114.217C110.4 114.006 110.093 113.896 109.86 114.039C108.774 114.724 107.682 115.413 106.595 116.097C106.378 116.236 106.263 116.523 106.412 116.753C106.555 116.963 106.859 117.078 107.091 116.93Z" fill="#203752"/>
<path d="M116.512 107.025C117.668 109.063 118.829 111.102 119.985 113.136C120.416 113.892 121.066 114.839 122.099 114.332C122.569 114.102 122.982 113.7 123.393 113.384C123.86 113.026 124.33 112.671 124.797 112.313C125.01 112.15 124.965 111.801 124.792 111.638C124.584 111.437 124.301 111.485 124.092 111.642C123.7 111.945 123.304 112.241 122.912 112.542C122.53 112.834 122.163 113.165 121.756 113.418C121.414 113.633 121.245 113.341 121.072 113.064C120.813 112.643 120.586 112.208 120.337 111.776C119.345 110.035 118.358 108.288 117.366 106.546C117.063 106.006 116.205 106.484 116.512 107.025Z" fill="#203752"/>
<path d="M128.86 99.3352C127.734 99.2103 126.563 99.8326 126.082 100.828C125.601 101.828 125.888 103.067 126.712 103.819C127.759 104.771 129.272 104.479 130.567 104.781C131.891 105.087 133.177 106.082 132.729 107.532C132.398 108.613 130.795 109.944 129.615 109.077C129.113 108.709 128.409 109.383 128.919 109.757C131.083 111.346 134.069 108.982 133.801 106.632C133.647 105.297 132.502 104.364 131.241 103.962C130.547 103.742 129.818 103.68 129.088 103.632C128.399 103.584 127.684 103.503 127.228 102.943C126.23 101.718 127.332 100.119 128.855 100.287C129.49 100.363 129.49 99.4063 128.86 99.3352Z" fill="#203752"/>
<path d="M154.335 117.548C157.713 121.208 160.898 125.027 163.88 128.993C164.078 129.257 164.401 129.309 164.663 129.089C167.442 126.735 170.195 124.357 172.923 121.945C173.395 121.529 172.685 120.858 172.219 121.275C169.491 123.682 166.738 126.065 163.959 128.419C164.222 128.453 164.48 128.481 164.743 128.515C161.712 124.476 158.472 120.591 155.034 116.863C154.607 116.408 153.908 117.088 154.335 117.548Z" fill="#203752"/>
<path d="M172.521 122.356C174.169 125.05 176.143 127.543 178.41 129.783C178.603 129.974 178.916 129.95 179.11 129.778C183.48 126.008 187.851 122.236 192.216 118.471C192.693 118.059 191.983 117.389 191.512 117.801C187.141 121.571 182.771 125.342 178.405 129.108C178.638 129.108 178.871 129.104 179.105 129.104C176.897 126.926 174.982 124.505 173.379 121.883C173.057 121.347 172.199 121.825 172.521 122.356Z" fill="#203752"/>
<path d="M166.499 127.855C167.05 128.492 167.6 129.128 168.151 129.764C168.419 130.075 168.687 130.382 168.95 130.693C169.173 130.951 169.377 131.286 169.748 131.349C170.111 131.411 170.532 131.31 170.9 131.291C171.311 131.267 171.723 131.257 172.135 131.252C173.013 131.248 173.886 131.295 174.759 131.386C175.394 131.454 175.394 130.497 174.764 130.43C173.261 130.271 171.634 130.166 170.13 130.387C169.917 130.42 169.951 130.363 169.793 130.181C169.694 130.066 169.595 129.951 169.49 129.831C169.222 129.52 168.955 129.214 168.692 128.903C168.19 128.324 167.69 127.745 167.189 127.166C166.792 126.702 166.092 127.386 166.499 127.855Z" fill="#203752"/>
<path d="M167.366 154.532C168.448 146.712 169.198 138.855 169.946 130.998C170.006 130.386 169.014 130.386 168.954 130.993C168.205 138.851 167.456 146.708 166.375 154.527C166.29 155.14 167.283 155.135 167.366 154.532Z" fill="#203752"/>
<path d="M179.601 179.606C178.589 170.931 177.582 162.246 177.007 153.527C176.967 152.914 175.975 152.904 176.014 153.522C176.589 162.241 177.597 170.921 178.609 179.601C178.678 180.204 179.675 180.219 179.601 179.606Z" fill="#203752"/>
<path d="M176.749 148.718C176.242 142.89 175.612 137.076 174.863 131.272C174.783 130.668 173.791 130.654 173.871 131.267C174.62 137.071 175.245 142.885 175.756 148.713C175.81 149.326 176.803 149.331 176.749 148.718Z" fill="#203752"/>
<path d="M175.309 131.233C176.178 130.486 177.045 129.74 177.918 128.988C178.112 128.821 178.102 128.476 177.913 128.314C177.705 128.132 177.418 128.142 177.214 128.319C176.346 129.065 175.478 129.812 174.605 130.563C174.412 130.73 174.421 131.075 174.61 131.238C174.818 131.424 175.101 131.415 175.309 131.233Z" fill="#203752"/>
<path d="M153.397 169.204C154.23 168.845 155.183 168.457 156.076 168.869C156.85 169.227 157.52 169.888 158.129 170.462C159.35 171.615 160.293 173.031 161.667 174.027C162.178 174.395 162.664 173.563 162.158 173.195C161.399 172.644 160.804 171.912 160.199 171.218C159.558 170.481 158.874 169.787 158.125 169.151C157.46 168.586 156.72 167.95 155.823 167.783C154.796 167.591 153.823 167.979 152.901 168.375C152.32 168.625 152.816 169.453 153.397 169.204Z" fill="#203752"/>
<path d="M160.045 189.611C162.436 184.549 165.556 179.831 169.322 175.619C169.739 175.155 169.034 174.481 168.618 174.95C164.793 179.222 161.613 184.003 159.187 189.138C158.918 189.693 159.777 190.176 160.045 189.611Z" fill="#203752"/>
<path d="M169.227 175.769C177.19 180.755 186.288 184.143 195.412 186.536C199.088 187.502 202.813 188.287 206.564 188.923C207.189 189.028 207.452 188.105 206.821 188C195.788 186.143 184.854 182.937 174.927 177.874C173.152 176.965 171.405 175.998 169.719 174.941C169.183 174.601 168.692 175.434 169.227 175.769Z" fill="#203752"/>
<path d="M159.504 190.377C168.488 198.258 178.445 205.335 189.647 209.991C192.767 211.288 195.967 212.394 199.236 213.269C199.851 213.437 200.11 212.508 199.494 212.346C187.866 209.226 177.309 203.22 167.903 196.024C165.258 193.999 162.699 191.884 160.204 189.693C159.727 189.281 159.028 189.961 159.504 190.377Z" fill="#203752"/>
<path d="M203.716 151.522C203.944 160.594 203.051 169.677 201.022 178.539C200.452 181.032 199.792 183.506 199.048 185.961C198.869 186.554 199.827 186.798 200.006 186.21C202.659 177.462 204.222 168.409 204.633 159.302C204.753 156.714 204.772 154.121 204.708 151.527C204.694 150.909 203.701 150.904 203.716 151.522Z" fill="#203752"/>
<defs>
<linearGradient id="paint0_linear_253_169" x1="91.9392" y1="60.4266" x2="91.9392" y2="140.628" gradientUnits="userSpaceOnUse">
<stop stop-color="#39F48F"/>
<stop offset="0.5" stop-color="#0DFF7C"/>
<stop offset="1" stop-color="#5CBC42"/>
</linearGradient>
<linearGradient id="paint1_linear_253_169" x1="158.147" y1="115.506" x2="158.147" y2="214.582" gradientUnits="userSpaceOnUse">
<stop stop-color="#55D1A4"/>
<stop offset="0.5" stop-color="#14C67B"/>
<stop offset="1" stop-color="#4CBC42"/>
</linearGradient>
</defs>
</svg>
