<svg width="313" height="307" viewBox="0 0 313 307" fill="none" xmlns="http://www.w3.org/2000/svg">
<path d="M262.684 227.359C301.324 190.504 303.302 133.991 233.552 70.6137C223.436 61.4 218.492 48.5679 208.451 41.667C178.026 20.7402 135.316 24.9927 108.428 56.0657C93.7099 73.0757 87.777 96.4271 72.4883 113.101C55.336 131.827 34.799 150.031 27.0025 175.546C21.8302 192.444 22.7049 210.871 28.5998 227.396C113.334 242.168 193.429 246.719 262.684 227.359Z" fill="url(#paint0_linear_138_98)"/>
<path d="M231.879 191.735C231.879 191.735 226.858 221.801 245.722 228.851C264.586 235.901 259.832 221.279 259.832 221.279C259.832 221.279 267.096 218.817 245.836 208.67C235.834 203.896 231.879 191.735 231.879 191.735Z" fill="#2A94F4"/>
<path d="M256.371 230.754C256.371 230.754 282.993 230.94 288.812 195.876C294.593 160.811 308.094 154.171 308.094 154.171C308.094 154.171 250.21 160.811 256.371 230.754Z" fill="#0E538C"/>
<path d="M255.572 229.821C261.771 238.848 277.25 211.282 272.306 193.488C267.362 175.658 257.664 164.952 257.55 152.344C257.55 152.306 225.033 185.431 255.572 229.821Z" fill="#FFBE55"/>
<path d="M7.18799 199.27C7.18799 199.27 13.9196 229 34.1144 228.665C54.3091 228.329 44.3449 216.467 44.3449 216.467C44.3449 216.467 50.1637 211.505 26.5841 209.864C15.4789 209.118 7.18799 199.27 7.18799 199.27Z" fill="#2A94F4"/>
<path d="M42.9758 227.098C42.9758 227.098 63.3987 220.831 57.0855 198.636C50.8103 176.441 59.0631 169.279 59.0631 169.279C59.0631 169.279 16.8861 187.072 42.9758 227.098Z" fill="#FFBE55"/>
<path d="M40.922 226.352C50.0876 232.469 54.0429 201.247 42.6715 186.513C31.3381 171.778 18.2552 165.362 13.3872 153.687C13.3872 153.687 -4.2595 196.323 40.922 226.352Z" fill="#0E538C"/>
<path d="M144.558 227.322L149.35 233.365C149.35 233.365 142.923 240.378 145.053 239.744C147.22 239.072 159.048 229.746 159.048 229.746C159.048 229.746 153.343 222.211 153.419 222.174C153.534 222.137 144.558 227.322 144.558 227.322Z" fill="#0B4870"/>
<path d="M137.522 181.999L157.793 223.89L144.9 231.015L123.831 193.488L125.162 181.141L137.522 181.999Z" fill="#0B4870"/>
<path d="M190.044 194.197L205.219 244.891L206.968 244.854L195.292 193.899L190.044 194.197ZM162.623 195.018L151.062 245.19L153.115 245.152L168.594 194.869L162.623 195.018ZM176.124 193.6L177.912 244.593L180.346 244.556L181.411 193.675L176.124 193.6Z" fill="black"/>
<path d="M162.091 215.236L196.737 213.445L196.966 216.952L159.466 219.152L162.091 215.236Z" fill="black"/>
<path opacity="0.15" d="M162.585 195.018L162.053 197.592L167.795 197.48L168.518 194.906L162.585 195.018ZM176.162 194.831L176.238 197.293L181.335 197.181L181.411 194.234L176.162 194.831Z" fill="#D3D3D3"/>
<path opacity="0.5" d="M176.847 214.303L176.961 217.959L174.755 217.996L173.918 214.452L177.417 214.266M181.335 214.266V217.884L183.008 217.772L183.464 214.154L181.335 214.266Z" fill="#D3D3D3"/>
<path d="M150.681 191.362C155.587 189.012 175.478 190.28 175.478 190.28C175.478 190.28 169.849 121.905 177.113 121.345C184.377 120.786 200.807 115.675 203.773 126.008C206.892 136.863 202.67 194.98 198.525 194.421C189.055 193.153 159.771 196.473 150.947 194.421C148.704 193.899 150.681 191.362 150.681 191.362Z" fill="black"/>
<path d="M197.536 127.202C197.574 127.202 197.688 127.388 197.954 127.761C198.069 127.948 198.221 128.172 198.373 128.47C198.525 128.768 198.677 129.104 198.867 129.477C199.552 131.007 200.274 133.394 200.579 136.378C200.921 139.362 200.921 142.943 200.883 146.897C200.807 150.852 200.579 155.179 200.198 159.73C199.818 164.28 199.4 168.608 198.981 172.524C198.563 176.441 198.145 179.985 197.612 182.932C197.08 185.879 196.357 188.229 195.787 189.795C195.216 191.362 194.76 192.183 194.722 192.183C194.646 192.145 194.95 191.287 195.406 189.683C195.863 188.079 196.433 185.767 196.89 182.82C197.346 179.873 197.688 176.366 198.03 172.45C198.411 168.533 198.829 164.206 199.171 159.692C199.514 155.179 199.818 150.852 199.932 146.897C200.046 142.981 200.122 139.437 199.856 136.49C199.628 133.543 199.057 131.193 198.487 129.664C197.916 128.06 197.46 127.239 197.536 127.202Z" fill="#EAA43F"/>
<path d="M123.869 151.784L122.043 150.852C122.043 150.852 120.864 150.441 118.963 149.322C118.468 149.024 118.012 148.651 117.67 148.24C117.213 147.718 116.643 147.009 116.415 146.524C116.149 145.928 115.35 145.89 115.198 146.413C115.084 146.935 115.73 148.576 117.251 150.031C118.773 151.486 115.578 151.038 114.399 150.926C113.22 150.777 109.607 150.516 109.303 150.852C108.884 151.299 109.341 151.896 110.52 152.008C111.699 152.12 115.198 152.717 115.16 153.313C115.122 153.91 109.151 153.127 109.151 153.127C109.151 153.127 107.896 152.754 107.82 153.463C107.667 154.694 114.019 155.104 114.627 155.104C115.046 155.104 115.008 155.775 114.551 155.738C114.095 155.701 108.618 154.806 108.466 156.074C108.352 157.044 113.676 156.447 114.779 157.23C115.882 158.014 110.634 157.268 110.558 158.2C110.52 158.536 110.558 158.797 113.562 158.834C116.643 158.834 124.934 157.529 124.934 157.529L123.755 151.784" fill="#FFBA98"/>
<path d="M164.601 127.426C164.601 127.426 149.046 147.942 145.471 148.837C141.896 149.77 121.473 150.963 121.473 150.963L119.647 159.618C119.647 159.618 145.775 160.961 151.518 156.82C160.569 150.292 170.039 135.222 170.039 135.222C170.343 130.261 168.404 127.799 164.601 127.426Z" fill="#050360"/>
<path d="M122.31 234.857L123.298 242.467C123.298 242.467 114.095 245.302 116.301 245.824C118.506 246.346 133.529 244.22 133.529 244.22C133.529 244.22 132.502 234.894 132.616 234.894C132.73 234.857 122.31 234.857 122.31 234.857ZM185.442 165.773C185.442 165.773 194.113 183.939 176.999 190.206L167.871 170.771L185.442 165.773Z" fill="#0E538C"/>
<path d="M173.538 170.622C173.538 170.622 124.173 157.305 118.621 168.496C113.068 179.649 119.685 237.804 119.685 237.804L135.126 236.2C135.126 236.2 132.54 185.133 135.126 183.342C137.712 181.552 173.272 190.355 176.999 190.206C186.089 189.833 192.516 173.196 173.538 170.622Z" fill="#0E538C"/>
<path d="M174.603 121.942C168.138 122.091 162.851 127.127 162.547 133.469C162.281 138.765 162.813 146.002 161.368 152.381C160.607 155.664 156.234 168.869 156.234 168.869L160.607 169.577C167.377 170.696 174.337 170.361 180.954 168.608L185.936 167.302C185.936 167.302 188.827 152.605 190.424 138.803C191.793 127.276 189.549 122.8 182.4 121.793L174.603 121.942Z" fill="#050360"/>
<path d="M171.18 122.763C171.408 121.644 171.028 116.943 171.028 116.943C171.028 116.943 166.654 116.384 166.502 112.131C166.312 107.879 166.807 98.0684 166.807 98.0684L174.869 94.4128L183.502 101.09L184.301 105.79L182.285 111.385L181.373 122.054L171.18 122.763Z" fill="#B97A59"/>
<path d="M171.028 116.943C171.028 116.943 173.957 117.018 176.809 115.153C176.809 115.153 175.44 118.249 171.104 117.988L171.028 116.943Z" fill="#A0654B"/>
<path d="M161.482 166.295L159.428 166.183C159.428 166.183 158.173 166.295 155.967 166.034C155.397 165.959 154.827 165.81 154.294 165.586C153.648 165.288 152.811 164.877 152.431 164.542C151.936 164.094 151.176 164.392 151.29 164.952C151.404 165.511 152.697 166.705 154.712 167.414C156.728 168.123 153.61 169.055 152.507 169.391C151.404 169.727 147.981 170.995 147.867 171.405C147.677 172.002 148.361 172.338 149.464 171.965C150.605 171.592 153.99 170.659 154.218 171.219C154.408 171.778 148.703 173.494 148.703 173.494C148.703 173.494 147.41 173.681 147.639 174.352C148.057 175.546 153.952 173.27 154.522 173.047C154.903 172.897 155.169 173.494 154.75 173.643C154.294 173.793 148.97 175.247 149.388 176.441C149.692 177.374 154.294 174.613 155.625 174.912C156.956 175.173 151.898 176.665 152.202 177.523C152.316 177.859 152.469 178.082 155.207 176.851C158.021 175.583 164.943 170.995 164.943 170.995L161.406 166.257" fill="#B97A59"/>
<path d="M167.681 170.212C167.681 170.212 177.379 167.488 183.54 161.856C188.447 157.379 188.37 153.202 188.37 153.202L190.69 135.744L167.681 170.212Z" fill="black"/>
<path d="M181.182 123.285C181.182 123.285 179.319 148.8 176.809 151.448C174.299 154.097 157.755 165.884 157.755 165.884L160.988 174.166C160.988 174.166 183.731 161.483 186.317 154.955C189.397 147.047 189.968 134.737 190.044 129.477C190.082 127.239 189.169 125.075 187.382 123.695C185.518 122.24 183.426 122.166 181.182 123.285Z" fill="#050360"/>
<path d="M193.809 192.071C193.733 192.369 189.245 191.661 183.617 191.213C178.026 190.765 173.424 190.728 173.424 190.43C173.424 190.168 178.026 189.758 183.693 190.206C189.397 190.691 193.885 191.81 193.809 192.071ZM192.098 147.233C192.06 147.27 191.869 147.233 191.793 146.935C191.717 146.674 191.869 146.226 192.25 145.965C192.44 145.816 192.744 145.704 193.086 145.741C193.277 145.778 193.429 145.816 193.581 145.89C193.733 145.965 193.847 146.077 193.961 146.189C194.418 146.711 194.532 147.42 194.265 148.128C193.999 148.8 193.467 149.285 192.82 149.434C192.668 149.471 192.478 149.471 192.326 149.471C192.174 149.471 191.983 149.397 191.869 149.322C191.603 149.173 191.413 148.949 191.337 148.725C191.147 148.315 191.185 147.867 191.375 147.644C191.527 147.42 191.717 147.42 191.755 147.457C191.793 147.494 191.755 147.644 191.755 147.793C191.755 147.942 191.793 148.166 191.983 148.352C192.06 148.464 192.174 148.539 192.288 148.576C192.364 148.576 192.402 148.613 192.44 148.576C192.516 148.576 192.592 148.576 192.63 148.539C192.896 148.464 193.239 148.166 193.353 147.793C193.467 147.457 193.429 147.009 193.277 146.786C193.086 146.524 192.934 146.487 192.668 146.562C192.44 146.636 192.288 146.823 192.212 146.935C192.136 147.047 192.174 147.196 192.098 147.233Z" fill="#EAA43F"/>
<path d="M180.27 131.342C180.346 131.342 180.384 131.939 180.384 132.984C180.384 134.028 180.346 135.595 180.232 137.46C180.08 139.362 179.851 141.638 179.281 144.1C178.71 146.562 177.722 149.248 176.086 151.747C174.413 154.209 172.283 156.148 170.267 157.715C168.252 159.282 166.312 160.513 164.715 161.595C161.52 163.721 159.695 165.213 159.619 165.101C159.581 165.064 159.999 164.616 160.798 163.907C161.596 163.199 162.813 162.229 164.373 161.072C165.932 159.916 167.795 158.648 169.773 157.081C171.713 155.514 173.766 153.612 175.326 151.262C176.885 148.874 177.874 146.301 178.444 143.913C179.053 141.526 179.357 139.288 179.585 137.423C180.004 133.692 180.156 131.342 180.27 131.342ZM175.021 123.397L175.364 119.592L181.677 118.473L183.578 122.502L175.021 123.397ZM171.028 119.144L173.538 119.592V123.397L170.382 122.763L171.142 118.473M163.46 136.9C163.46 140.892 162.965 144.846 161.977 148.725Z" fill="black"/>
<path d="M66.1749 163.721H225.185V168.831H66.1749V163.721ZM78.6113 168.831L66.1749 245.525L72.3741 245.637L93.7478 168.831H78.6113Z" fill="#254368"/>
<path d="M213.623 167.973L220.849 247.129H215.031L199.4 171.256L198.601 165.623L213.623 167.973Z" fill="#254368"/>
<path opacity="0.3" d="M199.057 168.831L199.628 172.338L213.966 171.816L213.699 168.831H199.057ZM78.6112 168.831L78.0408 172.45L92.8351 172.039L93.7478 168.831H78.6112Z" fill="#000C38"/>
<path d="M89.9828 135.334L99.909 163.721H144.748L144.406 162.266L126.265 161.707L117.936 135.334H89.9828Z" fill="#D3D3D3"/>
<path d="M109.873 149.061C110.178 150.217 109.645 151.374 108.732 151.598C107.82 151.821 106.831 151.075 106.526 149.919C106.222 148.763 106.755 147.606 107.667 147.382C108.58 147.159 109.569 147.905 109.873 149.061Z" fill="#F7F7F7"/>
<path d="M199.704 154.88C198.373 150.441 197.764 144.212 197.422 139.623C197.346 138.728 197.308 137.758 197.65 136.938C197.992 136.08 198.791 135.334 199.704 135.371C200.464 135.371 201.187 135.931 201.567 136.565C201.948 137.236 202.1 137.982 202.252 138.728C203.089 143.018 203.963 147.27 204.8 151.56C205.599 150.031 206.702 148.651 207.957 147.494C208.527 146.972 209.364 146.45 210.048 146.823C210.657 147.159 210.733 147.979 210.695 148.688C210.619 150.777 210.353 152.866 209.896 154.918" fill="#2A94F4"/>
<path d="M197.878 154.433C197.878 154.433 195.635 163.124 204.686 163.534C213.015 163.907 211.037 154.433 211.037 154.433H197.878Z" fill="#0E538C"/>
<path d="M176.809 102.022C176.809 102.022 176.885 102.06 176.999 102.134C177.113 102.209 177.303 102.321 177.531 102.507C177.95 102.843 178.482 103.515 178.634 104.484C178.71 104.969 178.71 105.529 178.52 106.051C178.33 106.611 178.026 107.133 177.493 107.581C177.265 107.804 176.961 107.991 176.657 108.14C176.352 108.289 176.01 108.401 175.63 108.439C174.907 108.55 174.147 108.401 173.462 108.065C172.778 107.692 172.245 107.133 171.941 106.499C171.789 106.163 171.675 105.827 171.637 105.492C171.599 105.156 171.599 104.82 171.637 104.484C171.713 103.85 172.017 103.253 172.397 102.806C172.778 102.358 173.234 102.06 173.69 101.836C174.603 101.426 175.478 101.538 175.972 101.687C176.238 101.761 176.429 101.836 176.543 101.911C176.733 101.985 176.809 102.022 176.809 102.022C176.809 102.06 176.543 101.873 176.01 101.761C175.478 101.649 174.679 101.575 173.804 101.985C173.386 102.172 172.93 102.47 172.587 102.918C172.245 103.365 171.979 103.888 171.903 104.484C171.865 104.783 171.865 105.119 171.903 105.417C171.941 105.753 172.055 106.051 172.207 106.35C172.473 106.946 173.006 107.469 173.614 107.842C174.261 108.177 174.983 108.289 175.668 108.215C176.01 108.177 176.314 108.065 176.619 107.954C176.923 107.804 177.189 107.655 177.417 107.431C177.912 107.021 178.216 106.499 178.406 105.977C178.596 105.454 178.596 104.932 178.52 104.484C178.368 103.552 177.874 102.88 177.493 102.545C177.075 102.172 176.809 102.06 176.809 102.022ZM167.111 101.351H167.339C167.491 101.351 167.681 101.388 167.948 101.463C168.48 101.612 169.241 101.948 169.849 102.731C170.153 103.142 170.382 103.626 170.458 104.186C170.534 104.746 170.496 105.38 170.267 106.014C170.153 106.312 169.963 106.611 169.773 106.872C169.545 107.133 169.317 107.394 169.012 107.581C168.404 107.991 167.681 108.215 166.883 108.177C166.122 108.14 165.399 107.879 164.829 107.431C164.525 107.208 164.296 106.946 164.106 106.685C163.916 106.387 163.764 106.088 163.65 105.79C163.422 105.156 163.46 104.522 163.574 103.962C163.688 103.403 163.992 102.918 164.296 102.545C164.943 101.799 165.742 101.5 166.274 101.388C166.54 101.351 166.769 101.314 166.921 101.351C167.035 101.314 167.111 101.351 167.111 101.351C167.111 101.388 166.807 101.351 166.274 101.463C165.742 101.575 164.981 101.911 164.373 102.619C164.068 102.992 163.802 103.44 163.688 104C163.574 104.522 163.574 105.156 163.764 105.715C163.84 106.014 163.992 106.312 164.182 106.573C164.373 106.835 164.601 107.096 164.867 107.282C165.399 107.692 166.084 107.954 166.807 107.991C167.529 107.991 168.252 107.804 168.784 107.431C169.05 107.245 169.317 107.021 169.507 106.76C169.697 106.499 169.887 106.238 170.001 105.939C170.229 105.38 170.305 104.783 170.229 104.223C170.153 103.664 169.925 103.216 169.659 102.806C169.088 102.022 168.366 101.649 167.871 101.5C167.415 101.351 167.111 101.351 167.111 101.351Z" fill="black"/>
<path d="M170.343 105.081C170.343 105.044 170.686 105.007 171.104 105.007C171.522 105.007 171.827 105.081 171.827 105.119C171.827 105.156 171.484 105.193 171.066 105.193C170.648 105.193 170.305 105.156 170.343 105.081ZM178.444 105.38C178.444 105.342 179.243 105.305 180.232 105.342C181.221 105.38 182.019 105.454 182.019 105.492C182.019 105.529 181.221 105.566 180.232 105.529C179.243 105.492 178.444 105.417 178.444 105.38Z" fill="#0B4870"/>
<path d="M181.981 112.094C184.301 109.595 184.529 105.977 184.567 102.582C184.605 100.941 184.491 99.2621 183.655 97.8446C182.818 96.4644 181.373 95.5691 179.889 94.935C177.608 93.9651 175.021 93.5175 172.587 93.9651C170.153 94.4128 167.833 95.8303 166.616 97.9565C166.616 97.9565 177.912 97.7327 178.672 98.1803C179.433 98.6279 181.753 100.232 181.563 102.209C181.373 104.186 180.802 107.096 180.802 107.096L182.628 106.835C182.628 106.835 182.476 104.149 183.274 104.223C184.035 104.373 181.981 112.094 181.981 112.094Z" fill="black"/>
<path d="M182.514 107.506C182.59 107.804 182.932 108.028 183.274 107.991C183.617 107.991 183.921 107.804 184.187 107.618C184.72 107.208 185.176 106.611 185.252 105.939C185.328 105.268 185.024 104.522 184.453 104.186C183.845 103.85 182.97 104 182.628 104.596L182.514 107.506Z" fill="#B97A59"/>
<defs>
<linearGradient id="paint0_linear_138_98" x1="156.505" y1="28.7381" x2="156.505" y2="240.233" gradientUnits="userSpaceOnUse">
<stop stop-color="#55D1A4"/>
<stop offset="0.5" stop-color="#14C67B"/>
<stop offset="1" stop-color="#4CBC42"/>
</linearGradient>
</defs>
</svg>
